<?xml version="1.0" encoding="utf-8"?>
<!-- Generator: Adobe Illustrator 22.1.0, SVG Export Plug-In . SVG Version: 6.00 Build 0)  -->
<svg version="1.1" id="Layer_1" xmlns="http://www.w3.org/2000/svg" xmlns:xlink="http://www.w3.org/1999/xlink" x="0px" y="0px"
	 viewBox="0 0 100.1 640.2" style="enable-background:new 0 0 100.1 640.2;" xml:space="preserve">
<style type="text/css">
	.st0{fill:#FFFFFF;}
	.st1{clip-path:url(#SVGID_2_);fill:#F7A600;}
	.st2{clip-path:url(#SVGID_4_);fill:#F7A600;}
	.st3{clip-path:url(#SVGID_6_);fill:#F7A600;}
	.st4{fill:#F7A600;}
	.st5{clip-path:url(#SVGID_8_);fill:#F7A600;}
	.st6{clip-path:url(#SVGID_10_);fill:#F7A600;}
	.st7{clip-path:url(#SVGID_12_);fill:#F7A600;}
	.st8{clip-path:url(#SVGID_12_);fill:none;stroke:#F7A600;stroke-miterlimit:10;}
</style>
<ellipse transform="matrix(6.652058e-02 -0.9978 0.9978 6.652058e-02 -430.928 496.8041)" class="st0" cx="50" cy="478.7" rx="38.2" ry="38.2"/>
<circle class="st0" cx="50" cy="53" r="38.2"/>
<circle class="st0" cx="50" cy="160.4" r="38.2"/>
<ellipse transform="matrix(9.053455e-02 -0.9959 0.9959 9.053455e-02 -222.9119 294.9016)" class="st0" cx="50" cy="269.5" rx="38.2" ry="38.2"/>
<ellipse transform="matrix(6.652058e-02 -0.9978 0.9978 6.652058e-02 -326.6158 399.0888)" class="st0" cx="50" cy="374.1" rx="38.2" ry="38.2"/>
<g>
	<defs>
		<rect id="SVGID_1_" x="31.3" y="34.3" width="37.5" height="37.5"/>
	</defs>
	<clipPath id="SVGID_2_">
		<use xlink:href="#SVGID_1_"  style="overflow:visible;"/>
	</clipPath>
	<path class="st1" d="M61.3,59.9c-1.4-0.5-2.8-1.1-4.2-1.8l-1.8-2.7l-0.4,0.1v-2.1c0.8-0.7,2.6-2.9,3.2-7.6l0-3.4h-0.8h0.8
		c0-5.4-2.7-8.1-8.1-8.1c-5.4,0-8.1,2.7-8.1,8.1h0.8h-0.8v3.3l0,0.1c0.7,4.7,2.5,6.9,3.2,7.6v2.1l-0.4-0.1L43,58.1
		c-1.4,0.8-2.8,1.3-4.2,1.8c-3.8,1.5-7.5,2.8-7.5,9.4v2.4h37.5v-2.4C68.8,62.8,65.2,61.4,61.3,59.9 M50,35.9c4.3,0,6.4,1.9,6.5,6
		l-2.5,1.2l-8.1-3.3l-2.3,1.2C44,37.5,46,35.9,50,35.9 M43.5,45.6v-2.7l2.5-1.2l8.1,3.3l2.4-1.2v1.9c-0.7,4.8-2.6,6.5-2.9,6.7
		C52.3,53,50.1,53,50,53c0,0-2.2,0-3.7-0.7C46.1,52.1,44.2,50.4,43.5,45.6 M53.3,54.2v1.5L50,56.2l-3.3-0.5v-1.5
		c1.6,0.4,3.2,0.5,3.3,0.5C50.1,54.6,51.7,54.6,53.3,54.2 M45.5,57.1l4.5,0.8l4.5-0.8l1,1.5L53.1,61L50,59.4L46.9,61l-2.4-2.4
		L45.5,57.1z M67.1,70.1H32.9v-0.8c0-5.4,2.5-6.4,6.4-7.8c1.2-0.5,2.6-1,4-1.7l3.2,3.2l3.4-1.7l3.4,1.7l3.2-3.2
		c1.4,0.7,2.8,1.3,4,1.7c3.9,1.5,6.4,2.4,6.4,7.8V70.1z"/>
</g>
<g>
	<defs>
		<rect id="SVGID_3_" x="28" y="246.8" width="42.5" height="42.5"/>
	</defs>
	<clipPath id="SVGID_4_">
		<use xlink:href="#SVGID_3_"  style="overflow:visible;"/>
	</clipPath>
	<path class="st2" d="M52.2,267c0.1,0.2,0.4,0.4,0.6,0.4c0.1,0,0.2,0,0.3-0.1c0,0,4.2-2.1,6.3-2.8c0.4-0.1,0.6-0.5,0.5-0.9
		c-0.1-0.4-0.5-0.6-0.9-0.5c-2.2,0.7-6.3,2.8-6.5,2.9C52.1,266.2,52,266.6,52.2,267"/>
	<path class="st2" d="M52.8,258.8c0.1,0,0.2,0,0.3-0.1c0,0,4.2-2.1,6.3-2.8c0.4-0.1,0.6-0.5,0.5-0.9c-0.1-0.4-0.5-0.6-0.9-0.5
		c-2.2,0.7-6.3,2.8-6.5,2.9c-0.3,0.2-0.5,0.6-0.3,1C52.3,258.7,52.5,258.8,52.8,258.8"/>
	<path class="st2" d="M69.8,257.4c-0.4,0-0.7,0.3-0.7,0.7v27.6c0,1.2-1,2.1-2.1,2.1H50v-1.6c1-0.4,3.7-1.2,6.4-1.2
		c6.2,0,10.4,1.4,10.4,1.4c0.2,0.1,0.5,0,0.6-0.1c0.2-0.1,0.3-0.3,0.3-0.6v-31.2c0-0.3-0.2-0.6-0.6-0.7c0,0-0.6-0.1-1.5-0.3
		c-0.4-0.1-0.8,0.2-0.8,0.6c-0.1,0.4,0.2,0.8,0.6,0.8c0.4,0.1,0.7,0.1,0.9,0.2v29.7c-1.6-0.4-5.2-1.2-9.9-1.2c-3.1,0-6.1,1-7.1,1.4
		c-0.8-0.4-3.4-1.4-6.4-1.4c-4.9,0-8.9,0.8-10.6,1.2v-29.7c1.4-0.3,5.6-1.3,10.6-1.3c2.6,0,4.8,0.8,5.7,1.2v27.9
		c0,0.3,0.1,0.5,0.4,0.6c0.2,0.1,0.5,0.1,0.7,0c0.1,0,7.1-4.2,13.3-6.3c0.3-0.1,0.5-0.4,0.5-0.7v-29.1c0-0.2-0.1-0.4-0.3-0.6
		c-0.2-0.1-0.4-0.2-0.7-0.1c-5.7,2.1-11.4,5.7-11.5,5.7c-0.3,0.2-0.4,0.6-0.2,1s0.6,0.4,1,0.2c0.1,0,5-3.1,10.3-5.2V276
		c-4.8,1.7-9.9,4.4-12,5.7v-27.1c0-0.3-0.2-0.5-0.4-0.6c-0.1-0.1-3-1.5-6.7-1.5c-6.4,0-11.3,1.4-11.5,1.4c-0.3,0.1-0.5,0.4-0.5,0.7
		v31.2c0,0.2,0.1,0.4,0.3,0.6c0.1,0.1,0.3,0.1,0.4,0.1c0.1,0,0.1,0,0.2,0c0,0,4.9-1.4,11.1-1.4c2.6,0,4.8,0.8,5.7,1.2v1.7h-17
		c-1.2,0-2.1-1-2.1-2.1v-27.6c0-0.4-0.3-0.7-0.7-0.7c-0.4,0-0.7,0.3-0.7,0.7v27.6c0,2,1.6,3.5,3.5,3.5H67c2,0,3.5-1.6,3.5-3.5v-27.6
		C70.5,257.7,70.2,257.4,69.8,257.4"/>
	<path class="st2" d="M52.2,262.7c0.1,0.2,0.4,0.4,0.6,0.4c0.1,0,0.2,0,0.3-0.1c0,0,4.2-2.1,6.3-2.8c0.4-0.1,0.6-0.5,0.5-0.9
		c-0.1-0.4-0.5-0.6-0.9-0.5c-2.2,0.7-6.3,2.8-6.5,2.9C52.1,261.9,52,262.4,52.2,262.7"/>
	<path class="st2" d="M52.2,271.2c0.1,0.2,0.4,0.4,0.6,0.4c0.1,0,0.2,0,0.3-0.1c0,0,4.2-2.1,6.3-2.8c0.4-0.1,0.6-0.5,0.5-0.9
		c-0.1-0.4-0.5-0.6-0.9-0.5c-2.2,0.7-6.3,2.8-6.5,2.9C52.1,270.4,52,270.9,52.2,271.2"/>
	<path class="st2" d="M45.2,259.9c-4.4-1-9.3,0.3-9.6,0.3c-0.4,0.1-0.6,0.5-0.5,0.9c0.1,0.3,0.4,0.5,0.7,0.5c0.1,0,0.1,0,0.2,0
		c0,0,4.8-1.3,8.9-0.3c0.4,0.1,0.8-0.1,0.9-0.5C45.8,260.4,45.5,260,45.2,259.9"/>
	<path class="st2" d="M45.2,264.2c-4.4-1-9.3,0.3-9.6,0.3c-0.4,0.1-0.6,0.5-0.5,0.9c0.1,0.3,0.4,0.5,0.7,0.5c0.1,0,0.1,0,0.2,0
		c0,0,4.8-1.3,8.9-0.3c0.4,0.1,0.8-0.1,0.9-0.5C45.8,264.7,45.5,264.3,45.2,264.2"/>
	<path class="st2" d="M52.2,275.5c0.1,0.2,0.4,0.4,0.6,0.4c0.1,0,0.2,0,0.3-0.1c0,0,4.2-2.1,6.3-2.8c0.4-0.1,0.6-0.5,0.5-0.9
		c-0.1-0.4-0.5-0.6-0.9-0.5c-2.2,0.7-6.3,2.8-6.5,2.9C52.1,274.7,52,275.1,52.2,275.5"/>
	<path class="st2" d="M45.2,268.4c-4.4-1-9.3,0.3-9.6,0.3c-0.4,0.1-0.6,0.5-0.5,0.9c0.1,0.3,0.4,0.5,0.7,0.5c0.1,0,0.1,0,0.2,0
		c0,0,4.8-1.3,8.9-0.3c0.4,0.1,0.8-0.1,0.9-0.5C45.8,268.9,45.5,268.5,45.2,268.4"/>
	<path class="st2" d="M45.2,276.9c-4.4-1-9.3,0.3-9.6,0.3c-0.4,0.1-0.6,0.5-0.5,0.9c0.1,0.3,0.4,0.5,0.7,0.5c0.1,0,0.1,0,0.2,0
		c0,0,4.8-1.3,8.9-0.3c0.4,0.1,0.8-0.1,0.9-0.5C45.8,277.4,45.5,277,45.2,276.9"/>
	<path class="st2" d="M45.2,272.7c-4.4-1-9.3,0.3-9.6,0.3c-0.4,0.1-0.6,0.5-0.5,0.9c0.1,0.3,0.4,0.5,0.7,0.5c0.1,0,0.1,0,0.2,0
		c0,0,4.8-1.3,8.9-0.3c0.4,0.1,0.8-0.1,0.9-0.5C45.8,273.2,45.5,272.8,45.2,272.7"/>
</g>
<g>
	<g>
		<defs>
			<rect id="SVGID_5_" x="27.7" y="457.4" width="44.8" height="42.5"/>
		</defs>
		<clipPath id="SVGID_6_">
			<use xlink:href="#SVGID_5_"  style="overflow:visible;"/>
		</clipPath>
		<path class="st3" d="M69.1,457.4H31c-1.9,0-3.4,1.5-3.4,3.4v27.6c0,1.9,1.5,3.4,3.4,3.4h13.3c0.1,1.3-0.5,2.6-1.5,3.3l-1.3,0.9
			c-0.1,0.1-0.2,0.1-0.2,0.2c-0.9,0.1-1.7,0.9-1.7,1.8c0,1,0.8,1.9,1.9,1.9h17.2c1,0,1.9-0.8,1.9-1.9c0-1-0.7-1.7-1.7-1.8
			c-0.1-0.1-0.1-0.1-0.2-0.2l-1.3-0.9c-1-0.7-1.6-2-1.5-3.3h13.3c1.9,0,3.4-1.5,3.4-3.4v-27.6C72.4,459,70.9,457.4,69.1,457.4
			 M29.2,460.8c0-1,0.8-1.9,1.9-1.9h38c1,0,1.9,0.8,1.9,1.9v22.8H29.2V460.8z M58.6,498.5H41.5c-0.2,0-0.4-0.2-0.4-0.4
			c0-0.2,0.2-0.4,0.4-0.4h17.2c0.2,0,0.4,0.2,0.4,0.4C59,498.3,58.8,498.5,58.6,498.5 M54.3,491.8c-0.1,1.7,0.7,3.4,2,4.5H43.8
			c1.4-1,2.1-2.7,2-4.5H54.3z M70.9,488.4c0,1-0.8,1.9-1.9,1.9H31c-1,0-1.9-0.8-1.9-1.9v-3.4h41.8V488.4z"/>
		<path class="st3" d="M46.5,479.2c-0.3,0-0.6-0.1-0.9-0.2c-0.4-0.2-0.6-0.5-0.6-0.9v-13c0-0.4,0.2-0.7,0.6-0.9
			c0.6-0.3,1.3-0.3,1.8,0.1l9.9,6.5c0.3,0.2,0.5,0.5,0.5,0.9c0,0.3-0.2,0.6-0.5,0.9l-9.9,6.5C47.2,479.1,46.9,479.2,46.5,479.2
			 M46.5,464.9c-0.1,0-0.3,0-0.4,0.1c-0.1,0.1-0.2,0.1-0.2,0.1v13c0,0,0.1,0.1,0.2,0.1c0.2,0.1,0.6,0.1,0.8-0.1l9.9-6.5
			c0.1,0,0.1-0.1,0.1-0.1c0,0,0,0-0.1-0.1L47,465C46.9,464.9,46.7,464.9,46.5,464.9"/>
		<path class="st3" d="M46.5,479.2c-0.3,0-0.6-0.1-0.9-0.2c-0.4-0.2-0.6-0.5-0.6-0.9v-13c0-0.4,0.2-0.7,0.6-0.9
			c0.6-0.3,1.3-0.3,1.8,0.1l9.9,6.5c0.3,0.2,0.5,0.5,0.5,0.9c0,0.3-0.2,0.6-0.5,0.9l-9.9,6.5C47.2,479.1,46.9,479.2,46.5,479.2
			 M46.5,464.9c-0.1,0-0.3,0-0.4,0.1c-0.1,0.1-0.2,0.1-0.2,0.1v13c0,0,0.1,0.1,0.2,0.1c0.2,0.1,0.6,0.1,0.8-0.1l9.9-6.5
			c0.1,0,0.1-0.1,0.1-0.1c0,0,0,0-0.1-0.1L47,465C46.9,464.9,46.7,464.9,46.5,464.9"/>
		<path class="st3" d="M42.7,479.7c-0.3,0-0.5-0.2-0.5-0.5v-14.8c0-0.3,0.2-0.5,0.5-0.5s0.5,0.2,0.5,0.5v14.8
			C43.2,479.5,42.9,479.7,42.7,479.7"/>
		<path class="st3" d="M42.7,479.7c-0.3,0-0.5-0.2-0.5-0.5v-14.8c0-0.3,0.2-0.5,0.5-0.5s0.5,0.2,0.5,0.5v14.8
			C43.2,479.5,42.9,479.7,42.7,479.7"/>
	</g>
</g>
<path class="st4" d="M82,365"/>
<g>
	<defs>
		<rect id="SVGID_7_" x="28.1" y="136.6" width="42.5" height="42.5"/>
	</defs>
	<clipPath id="SVGID_8_">
		<use xlink:href="#SVGID_7_"  style="overflow:visible;"/>
	</clipPath>
	<path class="st5" d="M34.5,163.5c-0.4,0-0.7-0.3-0.7-0.7c0-0.4,0.3-0.7,0.7-0.7h2.8c0.4,0,0.7-0.3,0.7-0.7v-2.8
		c0-0.4,0.3-0.7,0.7-0.7c0.4,0,0.7,0.3,0.7,0.7v2.8c0,0.4,0.3,0.7,0.7,0.7H43c0.4,0,0.7,0.3,0.7,0.7c0,0.4-0.3,0.7-0.7,0.7h-2.8
		c-0.4,0-0.7,0.3-0.7,0.7v2.8c0,0.4-0.3,0.7-0.7,0.7c-0.4,0-0.7-0.3-0.7-0.7v-2.8c0-0.4-0.3-0.7-0.7-0.7H34.5z M38.8,169.2
		c1.2,0,2.1-1,2.1-2.1v-2.1H43c1.2,0,2.1-1,2.1-2.1s-1-2.1-2.1-2.1h-2.1v-2.1c0-1.2-1-2.1-2.1-2.1c-1.2,0-2.1,1-2.1,2.1v2.1h-2.1
		c-1.2,0-2.1,1-2.1,2.1s1,2.1,2.1,2.1h2.1v2.1C36.6,168.2,37.6,169.2,38.8,169.2"/>
	<path class="st5" d="M60,152.2h-5v-6.4c0-2-1.6-3.5-3.5-3.5c-2,0-3.5,1.6-3.5,3.5c0,1.2-1,2.1-2.1,2.1c-1.2,0-2.1-1-2.1-2.1v-8.5
		c0-0.4-0.3-0.7-0.7-0.7c-0.4,0-0.7,0.3-0.7,0.7v8.5c0,2,1.6,3.5,3.5,3.5c2,0,3.5-1.6,3.5-3.5c0-1.2,1-2.1,2.1-2.1s2.1,1,2.1,2.1
		v7.1c0,0.4,0.3,0.7,0.7,0.7H60c5,0,9.2,4.2,9.2,9.2v11.4c0,2.3-2.1,3.5-3.5,3.5c-2.1,0-3.3-1.3-4.8-3c-2.2-2.4-5-5.5-11.5-5.5
		c-6.5,0-9.2,3-11.4,5.5c-1.5,1.7-2.8,3-4.9,3c-1.5,0-3.5-1.3-3.5-3.5v-11.3c0-5,4.2-9.2,9.2-9.2h12.8c0.4,0,0.7-0.3,0.7-0.7
		c0-0.4-0.3-0.7-0.7-0.7H38.8c-5.8,0-10.6,4.9-10.6,10.6v11.3c0,2.9,2.6,5,5,5c2.7,0,4.3-1.7,5.9-3.5c2.1-2.3,4.6-5,10.4-5
		c5.8,0,8.3,2.7,10.4,5c1.6,1.8,3.2,3.5,5.9,3.5c2.3,0,5-2,5-4.9v-11.4C70.7,157.1,65.8,152.2,60,152.2"/>
	<path class="st5" d="M64.3,162.1c0.4,0,0.7,0.3,0.7,0.7c0,0.4-0.3,0.7-0.7,0.7c-0.4,0-0.7-0.3-0.7-0.7
		C63.6,162.4,63.9,162.1,64.3,162.1 M64.3,164.9c1.2,0,2.1-1,2.1-2.1c0-1.2-1-2.1-2.1-2.1c-1.2,0-2.1,1-2.1,2.1
		C62.2,164,63.1,164.9,64.3,164.9"/>
	<path class="st5" d="M60,159.3c-0.4,0-0.7-0.3-0.7-0.7c0-0.4,0.3-0.7,0.7-0.7c0.4,0,0.7,0.3,0.7,0.7S60.4,159.3,60,159.3 M60,156.4
		c-1.2,0-2.1,1-2.1,2.1s1,2.1,2.1,2.1c1.2,0,2.1-1,2.1-2.1S61.2,156.4,60,156.4"/>
	<path class="st5" d="M55.8,163.5c-0.4,0-0.7-0.3-0.7-0.7c0-0.4,0.3-0.7,0.7-0.7s0.7,0.3,0.7,0.7C56.5,163.2,56.2,163.5,55.8,163.5
		 M55.8,160.7c-1.2,0-2.1,1-2.1,2.1s1,2.1,2.1,2.1s2.1-1,2.1-2.1S56.9,160.7,55.8,160.7"/>
	<path class="st5" d="M60,166.4c0.4,0,0.7,0.3,0.7,0.7c0,0.4-0.3,0.7-0.7,0.7c-0.4,0-0.7-0.3-0.7-0.7
		C59.3,166.7,59.6,166.4,60,166.4 M60,169.2c1.2,0,2.1-1,2.1-2.1s-1-2.1-2.1-2.1c-1.2,0-2.1,1-2.1,2.1S58.9,169.2,60,169.2"/>
</g>
<ellipse transform="matrix(6.652058e-02 -0.9978 0.9978 6.652058e-02 -535.3597 594.3795)" class="st0" cx="50" cy="583.3" rx="38.2" ry="38.2"/>
<g>
	<defs>
		<rect id="SVGID_9_" x="27.7" y="562.7" width="44.8" height="42.5"/>
	</defs>
	<clipPath id="SVGID_10_">
		<use xlink:href="#SVGID_9_"  style="overflow:visible;"/>
	</clipPath>
	<path class="st6" d="M69.1,562.7h-38c-1.9,0-3.4,1.5-3.4,3.4v27.6c0,1.9,1.5,3.4,3.4,3.4h13.3c0.1,1.3-0.5,2.6-1.5,3.3l-1.3,0.9
		c-0.1,0.1-0.2,0.1-0.2,0.2c-0.9,0.1-1.7,0.9-1.7,1.8c0,1,0.8,1.9,1.9,1.9h17.2c1,0,1.9-0.8,1.9-1.9c0-1-0.7-1.7-1.7-1.8
		c-0.1-0.1-0.1-0.1-0.2-0.2l-1.3-0.9c-1-0.7-1.6-2-1.5-3.3h13.3c1.9,0,3.4-1.5,3.4-3.4V566C72.5,564.2,71,562.7,69.1,562.7
		 M29.2,566c0-1,0.8-1.9,1.9-1.9h38c1,0,1.9,0.8,1.9,1.9v22.8H29.2V566z M58.7,603.7H41.5c-0.2,0-0.4-0.2-0.4-0.4
		c0-0.2,0.2-0.4,0.4-0.4h17.2c0.2,0,0.4,0.2,0.4,0.4C59,603.5,58.9,603.7,58.7,603.7 M54.3,597c-0.1,1.7,0.7,3.4,2,4.5H43.8
		c1.4-1,2.1-2.7,2-4.5H54.3z M71,593.6c0,1-0.8,1.9-1.9,1.9h-38c-1,0-1.9-0.8-1.9-1.9v-3.4H71V593.6z"/>
	<path class="st6" d="M48.2,583.4H36.9c-0.9,0-1.6-1-1.6-2.2v-1.7c0-0.2,0.1-0.4,0.3-0.5l4.7-2.1c-0.6-0.9-1-2.1-1-3.4
		c0-1.7,0.4-3.6,3.3-3.6c3,0,3.3,1.9,3.3,3.6c0,1.2-0.4,2.5-1,3.4l4.7,2.1c0.2,0.1,0.3,0.3,0.3,0.5v1.7
		C49.8,582.4,49.1,583.4,48.2,583.4 M36.3,579.8v1.4c0,0.7,0.4,1.2,0.6,1.2h11.3c0.2,0,0.6-0.5,0.6-1.2v-1.4l-4.7-2.1h-0.2
		c-0.2,0-0.4-0.1-0.5-0.3c-0.1-0.2,0-0.4,0.1-0.6c0.7-0.7,1.3-2,1.3-3.3c0-2-0.6-2.6-2.3-2.6c-1.7,0-2.3,0.6-2.3,2.6
		c0,1.3,0.5,2.6,1.3,3.3c0.2,0.1,0.2,0.4,0.1,0.6c-0.1,0.2-0.3,0.3-0.5,0.3h-0.2L36.3,579.8z"/>
</g>
<g>
	<defs>
		<rect id="SVGID_11_" x="27.7" y="353.1" width="44.8" height="42.5"/>
	</defs>
	<clipPath id="SVGID_12_">
		<use xlink:href="#SVGID_11_"  style="overflow:visible;"/>
	</clipPath>
	<path class="st7" d="M69.1,353.1h-38c-1.9,0-3.4,1.5-3.4,3.4V384c0,1.9,1.5,3.4,3.4,3.4h13.3c0.1,1.3-0.5,2.6-1.5,3.3l-1.3,0.9
		c-0.1,0.1-0.2,0.1-0.2,0.2c-0.9,0.1-1.7,0.9-1.7,1.8c0,1,0.8,1.9,1.9,1.9h17.2c1,0,1.9-0.8,1.9-1.9c0-1-0.7-1.7-1.7-1.8
		c-0.1-0.1-0.1-0.1-0.2-0.2l-1.3-0.9c-1-0.7-1.6-2-1.5-3.3h13.3c1.9,0,3.4-1.5,3.4-3.4v-27.6C72.5,354.6,71,353.1,69.1,353.1
		 M29.2,356.4c0-1,0.8-1.9,1.9-1.9h38c1,0,1.9,0.8,1.9,1.9v22.8H29.2V356.4z M58.7,394.1H41.5c-0.2,0-0.4-0.2-0.4-0.4
		c0-0.2,0.2-0.4,0.4-0.4h17.2c0.2,0,0.4,0.2,0.4,0.4C59,393.9,58.9,394.1,58.7,394.1 M54.3,387.4c-0.1,1.7,0.7,3.4,2,4.5H43.8
		c1.4-1,2.1-2.7,2-4.5H54.3z M71,384c0,1-0.8,1.9-1.9,1.9h-38c-1,0-1.9-0.8-1.9-1.9v-3.4H71V384z"/>
	<rect x="31.8" y="370.8" class="st7" width="12.4" height="1.1"/>
	<rect x="31.8" y="373.1" class="st7" width="12.4" height="1.1"/>
	<rect x="31.8" y="375.3" class="st7" width="6.8" height="1.1"/>
	<rect x="28.3" y="368.1" class="st8" width="18.1" height="11.9"/>
</g>
<rect x="52.8" y="576.4" class="st4" width="12.4" height="1.1"/>
<rect x="52.8" y="578.6" class="st4" width="12.4" height="1.1"/>
<rect x="52.8" y="580.9" class="st4" width="6.8" height="1.1"/>
</svg>
