<?xml version="1.0" encoding="utf-8"?>
<!-- Generator: Adobe Illustrator 22.1.0, SVG Export Plug-In . SVG Version: 6.00 Build 0)  -->
<svg version="1.1" id="Layer_1" xmlns="http://www.w3.org/2000/svg" xmlns:xlink="http://www.w3.org/1999/xlink" x="0px" y="0px"
	 viewBox="0 0 100.1 425.1" style="enable-background:new 0 0 100.1 425.1;" xml:space="preserve">
<style type="text/css">
	.st0{fill:#FFFFFF;}
	.st1{fill:#F7A600;}
	.st2{clip-path:url(#SVGID_2_);fill:#F7A600;}
	.st3{clip-path:url(#SVGID_4_);fill:#F7A600;}
</style>
<circle class="st0" cx="50" cy="53" r="38.2"/>
<circle class="st0" cx="50" cy="160.4" r="38.2"/>
<ellipse transform="matrix(4.531443e-02 -0.999 0.999 4.531443e-02 -221.4889 307.2364)" class="st0" cx="50" cy="269.5" rx="38.2" ry="38.2"/>
<ellipse transform="matrix(3.327794e-02 -0.9994 0.9994 3.327794e-02 -325.5567 411.623)" class="st0" cx="50" cy="374.1" rx="38.2" ry="38.2"/>
<g>
	<path class="st1" d="M53.4,65.2h-5.7c-0.4,0-0.7,0.3-0.7,0.7c0,0.4,0.3,0.7,0.7,0.7h5.7c0.4,0,0.7-0.3,0.7-0.7
		C54.1,65.5,53.7,65.2,53.4,65.2L53.4,65.2z"/>
	<g>
		<path class="st1" d="M61.2,57.4c0-0.4-0.3-0.7-0.7-0.7h-4.3c-0.4,0-0.7,0.3-0.7,0.7s0.3,0.7,0.7,0.7h4.3
			C60.9,58.1,61.2,57.8,61.2,57.4L61.2,57.4z"/>
		<path class="st1" d="M58.3,38.9v-3.6c0-0.4-0.3-0.7-0.7-0.7s-0.7,0.3-0.7,0.7v3.6c0,1.9,1.6,3.6,3.6,3.6h6.4V56
			c0,0.4,0.3,0.7,0.7,0.7c0.4,0,0.7-0.3,0.7-0.7V41.7c0-0.4-0.3-0.7-0.7-0.7h-7.1C59.3,41,58.3,40.1,58.3,38.9L58.3,38.9z"/>
		<path class="st1" d="M60.5,48.1h-5.7c-0.4,0-0.7,0.3-0.7,0.7s0.3,0.7,0.7,0.7h5.7c0.4,0,0.7-0.3,0.7-0.7S60.9,48.1,60.5,48.1
			L60.5,48.1z"/>
		<path class="st1" d="M52.6,48.8c0-0.4-0.3-0.7-0.7-0.7h-4.3c-0.4,0-0.7,0.3-0.7,0.7s0.3,0.7,0.7,0.7h4.3
			C52.3,49.6,52.6,49.2,52.6,48.8L52.6,48.8z"/>
		<path class="st1" d="M47.7,52.4c-0.4,0-0.7,0.3-0.7,0.7s0.3,0.7,0.7,0.7h1.4c0.4,0,0.7-0.3,0.7-0.7s-0.3-0.7-0.7-0.7H47.7z"/>
		<path class="st1" d="M47.7,45.3h7.1c0.4,0,0.7-0.3,0.7-0.7s-0.3-0.7-0.7-0.7h-7.1c-0.4,0-0.7,0.3-0.7,0.7S47.3,45.3,47.7,45.3
			L47.7,45.3z"/>
		<path class="st1" d="M51.9,53.8H59c0.4,0,0.7-0.3,0.7-0.7s-0.3-0.7-0.7-0.7h-7.1c-0.4,0-0.7,0.3-0.7,0.7S51.6,53.8,51.9,53.8
			L51.9,53.8z"/>
		<path class="st1" d="M56.2,60.9c-0.4,0-0.7,0.3-0.7,0.7s0.3,0.7,0.7,0.7h1.4c0.4,0,0.7-0.3,0.7-0.7s-0.3-0.7-0.7-0.7H56.2z"/>
		<path class="st1" d="M53.4,56.7h-5.7c-0.4,0-0.7,0.3-0.7,0.7s0.3,0.7,0.7,0.7h5.7c0.4,0,0.7-0.3,0.7-0.7S53.7,56.7,53.4,56.7
			L53.4,56.7z"/>
		<g>
			<g>
				<g>
					<g>
						<defs>
							<rect id="SVGID_1_" x="30.5" y="31" width="40" height="42.7"/>
						</defs>
						<clipPath id="SVGID_2_">
							<use xlink:href="#SVGID_1_"  style="overflow:visible;"/>
						</clipPath>
						<path class="st2" d="M52.6,60.9h-5.7c-0.4,0-0.7,0.3-0.7,0.7s0.3,0.7,0.7,0.7h5.7c0.4,0,0.7-0.3,0.7-0.7
							C53.3,61.3,53,60.9,52.6,60.9L52.6,60.9z"/>
					</g>
				</g>
			</g>
			<g>
				<g>
					<g>
						<defs>
							<rect id="SVGID_3_" x="30.5" y="31" width="40" height="42.7"/>
						</defs>
						<clipPath id="SVGID_4_">
							<use xlink:href="#SVGID_3_"  style="overflow:visible;"/>
						</clipPath>
						<path class="st3" d="M69.6,60.4L68.2,59c-1.1-1.1-2.8-1.1-3.8,0L55,68.2c-0.1,0.1-0.2,0.3-0.2,0.5V73c0,0.4,0.3,0.7,0.7,0.7
							h4.3c0.2,0,0.4-0.1,0.5-0.2l9.3-9.3C70.7,63.1,70.7,61.5,69.6,60.4L69.6,60.4z M63.3,61.9l1.1,1.1l-6.2,6.2l-1-1.2L63.3,61.9z
							 M56.2,72.3V69l3.3,3.3H56.2z M60.5,71.3l-1.1-1.1l6.2-6.2l1.1,1.1L60.5,71.3z M68.6,63.2l-0.9,0.9l-3.3-3.3l0.9-0.9
							c0.6-0.6,1.3-0.6,1.9,0l1.4,1.4C69.1,61.9,69.1,62.6,68.6,63.2L68.6,63.2z"/>
					</g>
				</g>
			</g>
		</g>
		<path class="st1" d="M53.4,72.3H34.9c-1.2,0-2.1-0.9-2.1-2.1V34.6c0-1.2,0.9-2.1,2.1-2.1h22.4l6.9,6.9c0.3,0.3,0.7,0.3,1,0
			s0.3-0.7,0-1l-7.1-7.1c-0.1-0.1-0.3-0.2-0.5-0.2H34.8c-1.9,0-3.6,1.6-3.6,3.6v35.5c0,1.9,1.6,3.6,3.6,3.6h18.5
			c0.4,0,0.7-0.3,0.7-0.7C54.1,72.6,53.7,72.3,53.4,72.3L53.4,72.3z"/>
		<path class="st1" d="M44.1,44.6c0-0.4-0.3-0.7-0.7-0.7h-4.3c-0.4,0-0.7,0.3-0.7,0.7v4.3c0,0.4,0.3,0.7,0.7,0.7h4.3
			c0.4,0,0.7-0.3,0.7-0.7V44.6z M42.7,48.1h-2.8v-2.8h2.8V48.1z"/>
		<path class="st1" d="M39.1,66.6h4.3c0.4,0,0.7-0.3,0.7-0.7v-4.3c0-0.4-0.3-0.7-0.7-0.7h-4.3c-0.4,0-0.7,0.3-0.7,0.7v4.3
			C38.4,66.3,38.7,66.6,39.1,66.6L39.1,66.6z M39.8,62.4h2.8v2.8h-2.8V62.4z"/>
		<path class="st1" d="M40.1,57.9c0.1,0.1,0.3,0.2,0.5,0.2l0,0c0.2,0,0.4-0.1,0.5-0.3l2.8-4.3c0.2-0.3,0.1-0.8-0.2-1s-0.8-0.1-1,0.2
			l-2.4,3.6l-0.8-0.8c-0.3-0.3-0.7-0.3-1,0s-0.3,0.7,0,1L40.1,57.9z"/>
	</g>
</g>
<path class="st1" d="M37.6,162.2c0.4,0.6,0.9,1.2,1.3,1.7c0,0.1,0.1,0.2,0.1,0.2c2.6,3.9,2.8,4.8,3.2,7.1c0.1,0.5,0.2,1,0.3,1.5
	c0.2,1,0.8,1.8,1.5,2.3c-0.2,0.4-0.5,0.9-0.5,1.3c0,0.9,0.5,1.6,1.1,2c-0.2,0.3-0.3,0.7-0.3,1.1c0,0.9,0.5,1.6,1.1,2
	c-0.2,0.3-0.3,0.7-0.3,1.1c0,1.3,1,2.4,2.4,2.4h6.3c1.3,0,2.4-1,2.4-2.4c0-0.5-0.1-0.8-0.3-1.1c0.6-0.4,1.1-1.1,1.1-2
	c0-0.5-0.1-0.8-0.3-1.1c0.6-0.4,1.1-1.1,1.1-2c0-0.5-0.2-1-0.5-1.3c0.8-0.5,1.3-1.3,1.5-2.3c0.1-0.6,0.2-1,0.3-1.5
	c0.5-2.4,0.6-3.2,3.2-7.1c0.1-0.1,0.1-0.2,0.1-0.2c0.5-0.6,1-1.1,1.3-1.8l1-1.6c1.1-2.2,1.7-4.6,1.7-7.1c0-8.8-7.1-15.9-15.8-15.9
	s-15.9,7.1-15.9,15.9c0,2.5,0.6,4.9,1.7,7.1h-0.1 M55.5,175.6c0.5,0,0.8,0.3,0.8,0.8c0,0.5-0.3,0.8-0.8,0.8h-0.8h-7.9H46
	c-0.5,0-0.8-0.3-0.8-0.8c0-0.5,0.3-0.8,0.8-0.8H55.5z M55.5,179.6c0,0.5-0.3,0.8-0.8,0.8H54h-6.3h-0.8c-0.5,0-0.8-0.3-0.8-0.8
	s0.3-0.8,0.8-0.8h7.9C55.2,178.8,55.5,179.1,55.5,179.6z M54,183.6h-6.4c-0.5,0-0.8-0.3-0.8-0.8s0.3-0.8,0.8-0.8H54
	c0.5,0,0.8,0.3,0.8,0.8C54.8,183.2,54.4,183.6,54,183.6z M61.2,163.2c-0.2,0.2-0.2,0.3-0.2,0.5c-2.5,3.8-2.8,4.9-3.2,7.3
	c-0.1,0.5-0.2,0.9-0.3,1.5c-0.2,1-1,1.6-1.9,1.6h-0.1h-1.4l2.1-11.9H57c1.3,0,2.4-1,2.4-2.4v-3.2h2.4c0.5,0,0.8-0.3,0.8-0.8v-4
	c0-1.3-1-2.4-2.4-2.4V147c0-1.3-1-2.4-2.4-2.4H57c0-1.3-1-2.4-2.4-2.4h-2.4c-0.5,0-0.8,0.3-0.8,0.8v18.2c0,0.5,0.3,0.8,0.8,0.8h2.2
	L52.5,174H49L47,162.1h2.2c0.5,0,0.8-0.3,0.8-0.8v-18.1c0-0.5-0.3-0.8-0.8-0.8h-2.4c-1.3,0-2.4,1-2.4,2.4h-0.8c-1.3,0-2.4,1-2.4,2.4
	v2.4c-1.3,0-2.4,1-2.4,2.4v5.5c0,0.5,0.3,0.8,0.8,0.8h2.4v1.6c0,1.3,1,2.4,2.4,2.4h1l2.1,11.9H46H46c-0.9,0-1.7-0.6-1.9-1.6
	c-0.1-0.6-0.2-1-0.3-1.4c-0.5-2.5-0.6-3.4-3.2-7.3c0-0.2-0.1-0.3-0.2-0.5c-2.5-2.6-3.9-6.1-3.9-9.7c0-7.8,6.4-14.3,14.3-14.3
	s14.3,6.4,14.3,14.3C65.1,157.1,63.8,160.5,61.2,163.2z M53.2,149.4h1.6v1.6h1.5v-2.4c0-0.5-0.3-0.8-0.8-0.8h-2.4v-4h1.6
	c0.5,0,0.8,0.3,0.8,0.8v0.8c0,0.5,0.3,0.8,0.8,0.8h1.6c0.5,0,0.8,0.3,0.8,0.8v3.2c0,0.5,0.3,0.8,0.8,0.8h0.8c0.5,0,0.8,0.3,0.8,0.8
	v3.2h-2.4h-3.2c-0.5,0-0.8,0.3-0.8,0.8v1.6h1.6v-0.9h1.6v3.2c0,0.5-0.3,0.8-0.8,0.8h-4L53.2,149.4L53.2,149.4z M43.7,157.3v-2.4h1.6
	v-1.6h-2.4c-0.5,0-0.8,0.3-0.8,0.8v2.4h-1.6v-4.8c0-0.5,0.3-0.8,0.8-0.8h0.8c0.5,0,0.8-0.3,0.8-0.8V147c0-0.5,0.3-0.8,0.8-0.8h0.8
	v1.6h1.6v-2.4v-0.8c0-0.5,0.3-0.8,0.8-0.8h1.6v16.7h-4c-0.5,0-0.8-0.3-0.8-0.8V157.3z"/>
<g>
	<path class="st1" d="M66.8,277.2v-5.9l-2.5,1l0,0l-0.1-0.1c-1-1.5-2.5-2.5-4.2-2.8l-6-1.1v-0.5c2.2-1.3,3.8-3.5,4.4-6.1
		c1.7-0.4,2.9-1.8,2.9-3.5v-9c0-2.5-1.7-4.7-4.1-5.4l-0.5-0.5c-2.1-2.1-4.9-3.3-7.9-3.3c-6.2,0-11.2,5-11.2,11.2v7
		c0,1.7,1.3,3.2,2.9,3.5c0.5,2.6,2.2,4.8,4.4,6.1v0.5l-6,1.1c-1.7,0.3-3.2,1.3-4.2,2.8l-0.1,0.1l-2.5-1v5.9c-1.5,0-2.8,1.2-2.8,2.8
		v3.7c0,1.5,1.2,2.8,2.8,2.8v3.4l17.2,6.7l17.2-6.7v-3.4c1.5,0,2.8-1.2,2.8-2.8V280C69.5,278.4,68.3,277.2,66.8,277.2L66.8,277.2z
		 M55.7,270.3l4,0.7c1.1,0.2,2.2,0.9,2.9,1.9l-8.8,3.4L55.7,270.3z M46.9,268.5c0.8,0.2,1.7,0.4,2.6,0.4s1.8-0.1,2.6-0.4l-2.6,2
		L46.9,268.5z M48.1,271.8l-1.9,1.9l-1.2-3.6l0.6-0.1L48.1,271.8z M53.4,269.9L54,270l-1.2,3.6l-1.9-1.9L53.4,269.9z M58.6,259.6
		v-3.1c0.5,0.3,0.9,0.9,0.9,1.6C59.5,258.7,59.2,259.3,58.6,259.6L58.6,259.6z M40.4,259.6c-0.5-0.3-0.9-0.9-0.9-1.6
		s0.4-1.3,0.9-1.6V259.6z M40.4,253.5v1c-0.3,0.1-0.6,0.2-0.9,0.4v-3.8c0-5.1,4.2-9.3,9.3-9.3c2.5,0,4.8,1,6.6,2.8l0.8,0.8l0.2,0.1
		c1.7,0.4,2.9,2,2.9,3.8v5.9c-0.3-0.2-0.6-0.3-0.9-0.4v-1h-2.8c-2.5,0-4.8-1.2-6.3-3.1l-0.7-1l-1.8,1.8c-1.5,1.5-3.5,2.3-5.6,2.3
		L40.4,253.5L40.4,253.5z M42.3,259.9v-4.6c2.2-0.2,4.3-1.2,5.9-2.8l0.4-0.4c1.8,2,4.4,3.2,7.2,3.2h1.1v4.5c0,4-3.2,7.2-7.2,7.2
		S42.3,263.9,42.3,259.9L42.3,259.9z M39.3,271.1l4-0.7l2,6l-8.8-3.4C37.1,272,38.2,271.3,39.3,271.1L39.3,271.1z M31.4,283.5v-3.7
		c0-0.5,0.4-0.9,0.9-0.9c1.5,0,2.8,1.2,2.8,2.8c0,1.5-1.2,2.8-2.8,2.8C31.7,284.4,31.4,284,31.4,283.5L31.4,283.5z M48.6,294
		l-14.5-5.6v-2.5c1.6-0.7,2.8-2.3,2.8-4.1s-1.1-3.5-2.8-4.1V274l14.5,5.6V294z M45.9,276.6l3.6-3.6l3.6,3.6l-3.6,1.4L45.9,276.6z
		 M65,288.3l-14.5,5.6v-14.4l14.5-5.6v3.6c-1.6,0.7-2.8,2.3-2.8,4.1s1.1,3.5,2.8,4.1V288.3z M67.7,283.5c0,0.5-0.4,0.9-0.9,0.9
		c-1.5,0-2.8-1.2-2.8-2.8c0-1.5,1.2-2.8,2.8-2.8c0.5,0,0.9,0.4,0.9,0.9V283.5z"/>
</g>
<g>
	<path class="st1" d="M50.4,372.1c-0.3-0.3-0.8-0.3-1.1,0s-0.3,0.8,0,1.1s0.8,0.3,1.1,0C50.7,372.9,50.7,372.4,50.4,372.1
		L50.4,372.1z"/>
	<g>
		<path class="st1" d="M60.3,362.2c-1.5-1.5-4-1.5-5.5,0s-1.5,4,0,5.5s4,1.5,5.5,0S61.8,363.7,60.3,362.2L60.3,362.2z M59.2,366.6
			c-0.9,0.9-2.4,0.9-3.3,0s-0.9-2.4,0-3.3s2.4-0.9,3.3,0S60.1,365.6,59.2,366.6L59.2,366.6z"/>
		<path class="st1" d="M69.1,353.3c-0.2-0.2-0.4-0.3-0.6-0.2c-0.2,0-4.4,0.2-9.4,1.9c-4,1.4-7.3,3.4-9.9,6c-0.6,0.6-1.1,1.2-1.7,1.8
			c-2.5-1.5-4.6-1-5.9-0.4c-3,1.6-4.8,5.9-4.8,9c0,0.3,0.2,0.6,0.5,0.7c0.1,0.1,0.2,0.1,0.3,0.1c0.2,0,0.4-0.1,0.6-0.2
			c1.6-1.6,3.5-1.5,4.1-1.4l0.3,0.3c-0.5,1.3-1,2.5-1.3,3.8c-0.1,0.5-0.1,0.9,0.1,1.4c-0.7,0.4-1.5,0.8-2.1,1.5
			c-2,2-2.4,6.9-2.4,7.1s0.1,0.5,0.2,0.6c0.2,0.2,0.4,0.2,0.6,0.2h0.1c0.2,0,5.1-0.4,7.1-2.4c0.6-0.6,1.1-1.4,1.5-2.1
			c0.5,0.2,0.9,0.2,1.4,0.1c1.2-0.3,2.5-0.7,3.8-1.3l0.3,0.3c0.1,0.6,0.2,2.5-1.4,4.1c-0.2,0.2-0.3,0.6-0.2,0.8
			c0.1,0.3,0.4,0.5,0.7,0.5c3.1,0,7.4-1.8,9-4.8c0.7-1.3,1.1-3.3-0.4-5.9c0.6-0.5,1.2-1.1,1.8-1.7c2.6-2.6,4.6-5.9,6-9.9
			c1.8-5,1.9-9.2,1.9-9.4C69.4,353.7,69.3,353.5,69.1,353.3L69.1,353.3z M38.7,369.9c0.5-2.3,1.9-4.9,3.8-5.9
			c1.3-0.7,2.7-0.6,4.2,0.2c-1.2,1.7-2.3,3.4-3.3,5.4c0,0-0.2-0.2-0.4-0.3C42.8,369.2,40.8,368.7,38.7,369.9L38.7,369.9z M43.8,382
			c-1.1,1.1-3.6,1.6-5.2,1.9c0.2-1.6,0.8-4.1,1.9-5.2c0.6-0.6,1.3-1,2-1.3l2.6,2.6C44.8,380.7,44.4,381.4,43.8,382L43.8,382z
			 M47.3,379.6c-0.2,0.1-0.5-0.1-0.7-0.2c-1-1-1.4-1.4-1.5-1.5c-0.2-0.2-0.8-0.8-2-2c-0.2-0.2-0.3-0.5-0.2-0.7c0.3-1,0.6-2,1-3
			l6.4,6.4C49.3,379,48.3,379.3,47.3,379.6L47.3,379.6z M58.6,380c-1,1.9-3.6,3.3-5.9,3.8c0.7-1.4,0.9-3.2,0.6-4.3
			c-0.1-0.3-0.2-0.4-0.3-0.4c1.9-0.9,3.7-2,5.4-3.3C59.2,377.3,59.2,378.7,58.6,380L58.6,380z M60.3,372.1c-0.7,0.7-1.5,1.4-2.2,2
			c-1.9,1.5-4,2.8-6.2,3.8l-7.3-7.3c1-2.2,2.3-4.3,3.8-6.2c0.6-0.8,1.3-1.6,2-2.2c2.3-2.3,5.3-4.2,8.8-5.5l6.5,6.5
			C64.4,366.8,62.6,369.8,60.3,372.1L60.3,372.1z M66.4,361.6l-5.5-5.5c3-0.9,5.6-1.2,6.9-1.4C67.6,356,67.2,358.6,66.4,361.6
			L66.4,361.6z"/>
	</g>
	<path class="st1" d="M48.2,385.3c-0.3-0.3-0.8-0.3-1.1,0l-2.2,2.2c-0.3,0.3-0.3,0.8,0,1.1s0.8,0.3,1.1,0l2.2-2.2
		C48.5,386.1,48.5,385.6,48.2,385.3L48.2,385.3z"/>
	<g>
		<path class="st1" d="M37.1,374.3c-0.3-0.3-0.8-0.3-1.1,0l-2.2,2.2c-0.3,0.3-0.3,0.8,0,1.1c0.3,0.3,0.8,0.3,1.1,0l2.2-2.2
			C37.5,375.1,37.5,374.6,37.1,374.3L37.1,374.3z"/>
		<path class="st1" d="M42.7,386.4c-0.3-0.3-0.8-0.3-1.1,0l-5.3,5.3c-0.3,0.3-0.3,0.8,0,1.1c0.3,0.3,0.8,0.3,1.1,0l5.3-5.3
			C43,387.2,43,386.7,42.7,386.4L42.7,386.4z"/>
		<path class="st1" d="M36.4,386.4c-0.3-0.3-0.8-0.3-1.1,0l-5.3,5.3c-0.3,0.3-0.3,0.8,0,1.1c0.3,0.3,0.8,0.3,1.1,0l5.3-5.3
			C36.7,387.2,36.7,386.7,36.4,386.4L36.4,386.4z"/>
		<path class="st1" d="M36.1,379.8c-0.3-0.3-0.8-0.3-1.1,0l-5.3,5.3c-0.3,0.3-0.3,0.8,0,1.1c0.3,0.3,0.8,0.3,1.1,0l5.3-5.3
			C36.4,380.6,36.4,380.1,36.1,379.8L36.1,379.8z"/>
	</g>
	<path class="st1" d="M53.7,368.8c-0.3-0.3-0.8-0.3-1.1,0l-1.1,1.1c-0.3,0.3-0.3,0.8,0,1.1c0.3,0.3,0.8,0.3,1.1,0l1.1-1.1
		C54,369.5,54,369.1,53.7,368.8L53.7,368.8z"/>
</g>
</svg>
