<?xml version="1.0" encoding="utf-8"?>
<!-- Generator: Adobe Illustrator 22.1.0, SVG Export Plug-In . SVG Version: 6.00 Build 0)  -->
<svg version="1.1" id="Layer_1" xmlns="http://www.w3.org/2000/svg" xmlns:xlink="http://www.w3.org/1999/xlink" x="0px" y="0px"
	 viewBox="0 0 100.1 425.1" style="enable-background:new 0 0 100.1 425.1;" xml:space="preserve">
<style type="text/css">
	.st0{fill:#FFFFFF;}
	.st1{fill:#F7A600;}
	.st2{clip-path:url(#SVGID_2_);fill:#F7A600;}
	.st3{clip-path:url(#SVGID_4_);fill:#F7A600;}
</style>
<circle class="st0" cx="50" cy="53" r="38.2"/>
<circle class="st0" cx="50" cy="160.4" r="38.2"/>
<ellipse transform="matrix(9.053455e-02 -0.9959 0.9959 9.053455e-02 -222.9119 294.9016)" class="st0" cx="50" cy="269.5" rx="38.2" ry="38.2"/>
<ellipse transform="matrix(6.652058e-02 -0.9978 0.9978 6.652058e-02 -326.6158 399.0888)" class="st0" cx="50" cy="374.1" rx="38.2" ry="38.2"/>
<g>
	<path class="st1" d="M54.8,63.7h-5.2c-0.4,0-0.6,0.3-0.6,0.6s0.3,0.6,0.6,0.6h5.2c0.4,0,0.6-0.3,0.6-0.6
		C55.5,64,55.1,63.7,54.8,63.7L54.8,63.7z"/>
	<g>
		<path class="st1" d="M62,56.6c0-0.4-0.3-0.6-0.6-0.6h-3.9c-0.4,0-0.6,0.3-0.6,0.6s0.3,0.6,0.6,0.6h3.9C61.7,57.2,62,56.9,62,56.6
			L62,56.6z"/>
		<path class="st1" d="M59.3,39.6v-3.3c0-0.4-0.3-0.6-0.6-0.6S58,36,58,36.3v3.3c0,1.7,1.5,3.3,3.3,3.3h5.9v12.4
			c0,0.4,0.3,0.6,0.6,0.6s0.6-0.3,0.6-0.6V42.2c0-0.4-0.3-0.6-0.6-0.6h-6.5C60.2,41.6,59.3,40.7,59.3,39.6L59.3,39.6z"/>
		<path class="st1" d="M61.3,48.1h-5.2c-0.4,0-0.6,0.3-0.6,0.6c0,0.4,0.3,0.6,0.6,0.6h5.2c0.4,0,0.6-0.3,0.6-0.6
			C62,48.3,61.7,48.1,61.3,48.1L61.3,48.1z"/>
		<path class="st1" d="M54.1,48.7c0-0.4-0.3-0.6-0.6-0.6h-3.9c-0.4,0-0.6,0.3-0.6,0.6c0,0.4,0.3,0.6,0.6,0.6h3.9
			C53.8,49.4,54.1,49.1,54.1,48.7L54.1,48.7z"/>
		<path class="st1" d="M49.6,52c-0.4,0-0.6,0.3-0.6,0.6s0.3,0.6,0.6,0.6h1.3c0.4,0,0.6-0.3,0.6-0.6S51.3,52,50.9,52H49.6z"/>
		<path class="st1" d="M49.6,45.5h6.5c0.4,0,0.6-0.3,0.6-0.6s-0.3-0.6-0.6-0.6h-6.5c-0.4,0-0.6,0.3-0.6,0.6S49.3,45.5,49.6,45.5
			L49.6,45.5z"/>
		<path class="st1" d="M53.5,53.3H60c0.4,0,0.6-0.3,0.6-0.6S60.3,52,60,52h-6.5c-0.4,0-0.6,0.3-0.6,0.6S53.2,53.3,53.5,53.3
			L53.5,53.3z"/>
		<path class="st1" d="M57.4,59.8c-0.4,0-0.6,0.3-0.6,0.6s0.3,0.6,0.6,0.6h1.3c0.4,0,0.6-0.3,0.6-0.6s-0.3-0.6-0.6-0.6H57.4z"/>
		<path class="st1" d="M54.8,55.9h-5.2c-0.4,0-0.6,0.3-0.6,0.6s0.3,0.6,0.6,0.6h5.2c0.4,0,0.6-0.3,0.6-0.6S55.1,55.9,54.8,55.9
			L54.8,55.9z"/>
		<g>
			<g>
				<g>
					<g>
						<g>
							<defs>
								<rect id="SVGID_1_" x="33.9" y="32.4" width="36.6" height="39.1"/>
							</defs>
							<clipPath id="SVGID_2_">
								<use xlink:href="#SVGID_1_"  style="overflow:visible;"/>
							</clipPath>
							<path class="st2" d="M54.1,59.8h-5.2c-0.4,0-0.6,0.3-0.6,0.6s0.3,0.6,0.6,0.6h5.2c0.4,0,0.6-0.3,0.6-0.6
								C54.8,60.1,54.5,59.8,54.1,59.8L54.1,59.8z"/>
						</g>
					</g>
				</g>
			</g>
			<g>
				<g>
					<g>
						<g>
							<defs>
								<rect id="SVGID_3_" x="33.9" y="32.4" width="36.6" height="39.1"/>
							</defs>
							<clipPath id="SVGID_4_">
								<use xlink:href="#SVGID_3_"  style="overflow:visible;"/>
							</clipPath>
							<path class="st3" d="M69.7,59.3L68.4,58c-1-1-2.6-1-3.5,0l-8.6,8.4c-0.1,0.1-0.2,0.3-0.2,0.5v3.9c0,0.4,0.3,0.6,0.6,0.6h3.9
								c0.2,0,0.4-0.1,0.5-0.2l8.5-8.5C70.7,61.8,70.7,60.3,69.7,59.3L69.7,59.3z M63.9,60.7l1,1l-5.7,5.7l-0.9-1.1L63.9,60.7z
								 M57.4,70.2v-3l3,3H57.4z M61.3,69.3l-1-1l5.7-5.7l1,1L61.3,69.3z M68.8,61.9l-0.8,0.8l-3-3l0.8-0.8c0.5-0.5,1.2-0.5,1.7,0
								l1.3,1.3C69.2,60.7,69.2,61.3,68.8,61.9L68.8,61.9z"/>
						</g>
					</g>
				</g>
			</g>
		</g>
		<path class="st1" d="M54.8,70.2H37.9c-1.1,0-1.9-0.8-1.9-1.9V35.7c0-1.1,0.8-1.9,1.9-1.9h20.5l6.3,6.3c0.3,0.3,0.6,0.3,0.9,0
			c0.3-0.3,0.3-0.6,0-0.9l-6.5-6.5c-0.1-0.1-0.3-0.2-0.5-0.2H37.8c-1.7,0-3.3,1.5-3.3,3.3v32.5c0,1.7,1.5,3.3,3.3,3.3h16.9
			c0.4,0,0.6-0.3,0.6-0.6C55.5,70.5,55.1,70.2,54.8,70.2L54.8,70.2z"/>
		<path class="st1" d="M46.3,44.9c0-0.4-0.3-0.6-0.6-0.6h-3.9c-0.4,0-0.6,0.3-0.6,0.6v3.9c0,0.4,0.3,0.6,0.6,0.6h3.9
			c0.4,0,0.6-0.3,0.6-0.6V44.9z M45,48.1h-2.6v-2.6H45V48.1z"/>
		<path class="st1" d="M41.8,65h3.9c0.4,0,0.6-0.3,0.6-0.6v-3.9c0-0.4-0.3-0.6-0.6-0.6h-3.9c-0.4,0-0.6,0.3-0.6,0.6v3.9
			C41.1,64.7,41.4,65,41.8,65L41.8,65z M42.4,61.2H45v2.6h-2.6V61.2z"/>
		<path class="st1" d="M42.7,57c0.1,0.1,0.3,0.2,0.5,0.2l0,0c0.2,0,0.4-0.1,0.5-0.3l2.6-3.9c0.2-0.3,0.1-0.7-0.2-0.9
			c-0.3-0.2-0.7-0.1-0.9,0.2l-2.2,3.3l-0.7-0.7c-0.3-0.3-0.6-0.3-0.9,0c-0.3,0.3-0.3,0.6,0,0.9L42.7,57z"/>
	</g>
</g>
<path class="st1" d="M38.4,160.5c0.4,0.5,0.8,1.1,1.2,1.6c0,0.1,0.1,0.2,0.1,0.2c2.4,3.6,2.6,4.4,2.9,6.5c0.1,0.5,0.2,0.9,0.3,1.4
	c0.2,0.9,0.7,1.6,1.4,2.1c-0.2,0.4-0.5,0.8-0.5,1.2c0,0.8,0.5,1.5,1,1.8c-0.2,0.3-0.3,0.6-0.3,1c0,0.8,0.5,1.5,1,1.8
	c-0.2,0.3-0.3,0.6-0.3,1c0,1.2,0.9,2.2,2.2,2.2h5.8c1.2,0,2.2-0.9,2.2-2.2c0-0.5-0.1-0.7-0.3-1c0.5-0.4,1-1,1-1.8
	c0-0.5-0.1-0.7-0.3-1c0.5-0.4,1-1,1-1.8c0-0.5-0.2-0.9-0.5-1.2c0.7-0.5,1.2-1.2,1.4-2.1c0.1-0.5,0.2-0.9,0.3-1.4
	c0.5-2.2,0.5-2.9,2.9-6.5c0.1-0.1,0.1-0.2,0.1-0.2c0.5-0.5,0.9-1,1.2-1.6l0.9-1.5c1-2,1.6-4.2,1.6-6.5c0-8.1-6.5-14.6-14.5-14.6
	s-14.6,6.5-14.6,14.6c0,2.3,0.5,4.5,1.6,6.5h-0.1 M54.8,172.8c0.5,0,0.7,0.3,0.7,0.7s-0.3,0.7-0.7,0.7H54h-7.2h-0.7
	c-0.5,0-0.7-0.3-0.7-0.7s0.3-0.7,0.7-0.7H54.8z M54.8,176.5c0,0.5-0.3,0.7-0.7,0.7h-0.6h-5.8h-0.7c-0.5,0-0.7-0.3-0.7-0.7
	c0-0.5,0.3-0.7,0.7-0.7h7.2C54.5,175.7,54.8,176,54.8,176.5z M53.4,180.1h-5.9c-0.5,0-0.7-0.3-0.7-0.7c0-0.5,0.3-0.7,0.7-0.7h5.9
	c0.5,0,0.7,0.3,0.7,0.7C54.1,179.8,53.8,180.1,53.4,180.1z M60,161.5c-0.2,0.2-0.2,0.3-0.2,0.5c-2.3,3.5-2.6,4.5-2.9,6.7
	c-0.1,0.5-0.2,0.8-0.3,1.4c-0.2,0.9-0.9,1.5-1.7,1.5h-0.1h-1.3l1.9-10.9h0.7c1.2,0,2.2-0.9,2.2-2.2v-2.9h2.2c0.5,0,0.7-0.3,0.7-0.7
	V151c0-1.2-0.9-2.2-2.2-2.2v-2.2c0-1.2-0.9-2.2-2.2-2.2h-0.7c0-1.2-0.9-2.2-2.2-2.2h-2.2c-0.5,0-0.7,0.3-0.7,0.7v16.7
	c0,0.5,0.3,0.7,0.7,0.7h2l-1.7,11h-3.2L47,160.5h2c0.5,0,0.7-0.3,0.7-0.7v-16.6c0-0.5-0.3-0.7-0.7-0.7h-2.2c-1.2,0-2.2,0.9-2.2,2.2
	h-0.7c-1.2,0-2.2,0.9-2.2,2.2v2.2c-1.2,0-2.2,0.9-2.2,2.2v5c0,0.5,0.3,0.7,0.7,0.7h2.2v1.5c0,1.2,0.9,2.2,2.2,2.2h0.9l1.9,10.9h-1.4
	l0,0c-0.8,0-1.6-0.5-1.7-1.5c-0.1-0.5-0.2-0.9-0.3-1.3c-0.5-2.3-0.5-3.1-2.9-6.7c0-0.2-0.1-0.3-0.2-0.5c-2.3-2.4-3.6-5.6-3.6-8.9
	c0-7.1,5.9-13.1,13.1-13.1s13.1,5.9,13.1,13.1C63.6,155.9,62.4,159,60,161.5z M52.7,148.8h1.5v1.5h1.4v-2.2c0-0.5-0.3-0.7-0.7-0.7
	h-2.2v-3.7H54c0.5,0,0.7,0.3,0.7,0.7v0.7c0,0.5,0.3,0.7,0.7,0.7H57c0.5,0,0.7,0.3,0.7,0.7v2.9c0,0.5,0.3,0.7,0.7,0.7h0.7
	c0.5,0,0.7,0.3,0.7,0.7v2.9h-2.2h-2.9c-0.5,0-0.7,0.3-0.7,0.7v1.5h1.5v-0.8H57v2.9c0,0.5-0.3,0.7-0.7,0.7h-3.7L52.7,148.8
	L52.7,148.8z M44,156.1v-2.2h1.5v-1.5h-2.2c-0.5,0-0.7,0.3-0.7,0.7v2.2H41v-4.4c0-0.5,0.3-0.7,0.7-0.7h0.7c0.5,0,0.7-0.3,0.7-0.7
	v-2.8c0-0.5,0.3-0.7,0.7-0.7h0.7v1.5h1.5v-2.2v-0.7c0-0.5,0.3-0.7,0.7-0.7h1.5V159h-3.7c-0.5,0-0.7-0.3-0.7-0.7
	C44,158.3,44,156.1,44,156.1z"/>
<g>
	<path class="st1" d="M67.1,278v-5.4l-2.3,0.9l0,0l-0.1-0.1c-0.9-1.4-2.3-2.3-3.8-2.6l-5.5-1v-0.5c2-1.2,3.5-3.2,4-5.6
		c1.6-0.4,2.7-1.6,2.7-3.2v-8.2c0-2.3-1.6-4.3-3.8-4.9l-0.5-0.5c-1.9-1.9-4.5-3-7.2-3c-5.7,0-10.3,4.6-10.3,10.3v6.4
		c0,1.6,1.2,2.9,2.7,3.2c0.5,2.4,2,4.4,4,5.6v0.5l-5.5,1c-1.6,0.3-2.9,1.2-3.8,2.6l-0.1,0.1l-2.3-0.9v5.4c-1.4,0-2.6,1.1-2.6,2.6
		v3.4c0,1.4,1.1,2.6,2.6,2.6v3.1l15.7,6.1l15.7-6.1v-3.1c1.4,0,2.6-1.1,2.6-2.6v-3.4C69.6,279.1,68.5,278,67.1,278L67.1,278z
		 M57,271.7l3.7,0.6c1,0.2,2,0.8,2.7,1.7l-8.1,3.1L57,271.7z M48.9,270.1c0.7,0.2,1.6,0.4,2.4,0.4s1.6-0.1,2.4-0.4l-2.4,1.8
		L48.9,270.1z M50,273.1l-1.7,1.7l-1.1-3.3l0.5-0.1L50,273.1z M54.8,271.3l0.5,0.1l-1.1,3.3l-1.7-1.7L54.8,271.3z M59.6,261.9v-2.8
		c0.5,0.3,0.8,0.8,0.8,1.5C60.4,261.1,60.2,261.6,59.6,261.9L59.6,261.9z M42.9,261.9c-0.5-0.3-0.8-0.8-0.8-1.5
		c0-0.6,0.4-1.2,0.8-1.5V261.9z M42.9,256.3v0.9c-0.3,0.1-0.5,0.2-0.8,0.4v-3.5c0-4.7,3.8-8.5,8.5-8.5c2.3,0,4.4,0.9,6,2.6l0.7,0.7
		l0.2,0.1c1.6,0.4,2.7,1.8,2.7,3.5v5.4c-0.3-0.2-0.5-0.3-0.8-0.4v-0.9h-2.6c-2.3,0-4.4-1.1-5.8-2.8l-0.6-0.9l-1.6,1.6
		c-1.4,1.4-3.2,2.1-5.1,2.1L42.9,256.3L42.9,256.3z M44.7,262.2V258c2-0.2,3.9-1.1,5.4-2.6l0.4-0.4c1.6,1.8,4,2.9,6.6,2.9h1v4.1
		c0,3.7-2.9,6.6-6.6,6.6C47.8,268.7,44.7,265.9,44.7,262.2L44.7,262.2z M41.9,272.4l3.7-0.6l1.8,5.5l-8.1-3.1
		C39.9,273.3,40.9,272.6,41.9,272.4L41.9,272.4z M34.7,283.8v-3.4c0-0.5,0.4-0.8,0.8-0.8c1.4,0,2.6,1.1,2.6,2.6
		c0,1.4-1.1,2.6-2.6,2.6C35,284.6,34.7,284.3,34.7,283.8L34.7,283.8z M50.5,293.4l-13.3-5.1V286c1.5-0.6,2.6-2.1,2.6-3.8
		c0-1.6-1-3.2-2.6-3.8v-3.4l13.3,5.1V293.4z M48,277.5l3.3-3.3l3.3,3.3l-3.3,1.3L48,277.5z M65.5,288.2l-13.3,5.1v-13.2l13.3-5.1
		v3.3c-1.5,0.6-2.6,2.1-2.6,3.8c0,1.6,1,3.2,2.6,3.8V288.2z M67.9,283.8c0,0.5-0.4,0.8-0.8,0.8c-1.4,0-2.6-1.1-2.6-2.6
		c0-1.4,1.1-2.6,2.6-2.6c0.5,0,0.8,0.4,0.8,0.8V283.8z"/>
</g>
<g>
	<path class="st1" d="M51.1,373.9c-0.3-0.3-0.7-0.3-1,0s-0.3,0.7,0,1s0.7,0.3,1,0C51.4,374.6,51.4,374.1,51.1,373.9L51.1,373.9z"/>
	<g>
		<path class="st1" d="M60.2,364.8c-1.4-1.4-3.7-1.4-5,0c-1.4,1.4-1.4,3.7,0,5c1.4,1.4,3.7,1.4,5,0
			C61.6,368.5,61.6,366.2,60.2,364.8L60.2,364.8z M59.2,368.8c-0.8,0.8-2.2,0.8-3,0s-0.8-2.2,0-3s2.2-0.8,3,0S60,367.9,59.2,368.8
			L59.2,368.8z"/>
		<path class="st1" d="M68.3,356.7c-0.2-0.2-0.4-0.3-0.5-0.2c-0.2,0-4,0.2-8.6,1.7c-3.7,1.3-6.7,3.1-9.1,5.5c-0.5,0.5-1,1.1-1.6,1.6
			c-2.3-1.4-4.2-0.9-5.4-0.4c-2.7,1.5-4.4,5.4-4.4,8.2c0,0.3,0.2,0.5,0.5,0.6c0.1,0.1,0.2,0.1,0.3,0.1c0.2,0,0.4-0.1,0.5-0.2
			c1.5-1.5,3.2-1.4,3.8-1.3l0.3,0.3c-0.5,1.2-0.9,2.3-1.2,3.5c-0.1,0.5-0.1,0.8,0.1,1.3c-0.6,0.4-1.4,0.7-1.9,1.4
			c-1.8,1.8-2.2,6.3-2.2,6.5s0.1,0.5,0.2,0.5c0.2,0.2,0.4,0.2,0.5,0.2h0.1c0.2,0,4.7-0.4,6.5-2.2c0.5-0.5,1-1.3,1.4-1.9
			c0.5,0.2,0.8,0.2,1.3,0.1c1.1-0.3,2.3-0.6,3.5-1.2l0.3,0.3c0.1,0.5,0.2,2.3-1.3,3.8c-0.2,0.2-0.3,0.5-0.2,0.7
			c0.1,0.3,0.4,0.5,0.6,0.5c2.8,0,6.8-1.6,8.2-4.4c0.6-1.2,1-3-0.4-5.4c0.5-0.5,1.1-1,1.6-1.6c2.4-2.4,4.2-5.4,5.5-9.1
			c1.6-4.6,1.7-8.4,1.7-8.6C68.5,357,68.4,356.8,68.3,356.7L68.3,356.7z M40.4,371.9c0.5-2.1,1.7-4.5,3.5-5.4
			c1.2-0.6,2.5-0.5,3.8,0.2c-1.1,1.6-2.1,3.1-3,4.9c0,0-0.2-0.2-0.4-0.3C44.2,371.2,42.4,370.8,40.4,371.9L40.4,371.9z M45.1,382.9
			c-1,1-3.3,1.5-4.8,1.7c0.2-1.5,0.7-3.8,1.7-4.8c0.5-0.5,1.2-0.9,1.8-1.2l2.4,2.4C46,381.7,45.7,382.4,45.1,382.9L45.1,382.9z
			 M48.3,380.7c-0.2,0.1-0.5-0.1-0.6-0.2c-0.9-0.9-1.3-1.3-1.4-1.4c-0.2-0.2-0.7-0.7-1.8-1.8c-0.2-0.2-0.3-0.5-0.2-0.6
			c0.3-0.9,0.5-1.8,0.9-2.7l5.9,5.9C50.1,380.2,49.2,380.5,48.3,380.7L48.3,380.7z M58.7,381.1c-0.9,1.7-3.3,3-5.4,3.5
			c0.6-1.3,0.8-2.9,0.5-3.9c-0.1-0.3-0.2-0.4-0.3-0.4c1.7-0.8,3.4-1.8,4.9-3C59.2,378.6,59.2,379.9,58.7,381.1L58.7,381.1z
			 M60.2,373.9c-0.6,0.6-1.4,1.3-2,1.8c-1.7,1.4-3.7,2.6-5.7,3.5l-6.7-6.7c0.9-2,2.1-3.9,3.5-5.7c0.5-0.7,1.2-1.5,1.8-2
			c2.1-2.1,4.9-3.8,8.1-5l6,6C64,369,62.3,371.8,60.2,373.9L60.2,373.9z M65.8,364.3l-5-5c2.7-0.8,5.1-1.1,6.3-1.3
			C66.9,359.1,66.5,361.5,65.8,364.3L65.8,364.3z"/>
	</g>
	<path class="st1" d="M49.1,386c-0.3-0.3-0.7-0.3-1,0l-2,2c-0.3,0.3-0.3,0.7,0,1c0.3,0.3,0.7,0.3,1,0l2-2
		C49.4,386.7,49.4,386.2,49.1,386L49.1,386z"/>
	<g>
		<path class="st1" d="M39,375.9c-0.3-0.3-0.7-0.3-1,0l-2,2c-0.3,0.3-0.3,0.7,0,1c0.3,0.3,0.7,0.3,1,0l2-2
			C39.3,376.6,39.3,376.2,39,375.9L39,375.9z"/>
		<path class="st1" d="M44.1,387c-0.3-0.3-0.7-0.3-1,0l-4.9,4.9c-0.3,0.3-0.3,0.7,0,1c0.3,0.3,0.7,0.3,1,0l4.9-4.9
			C44.4,387.7,44.4,387.2,44.1,387L44.1,387z"/>
		<path class="st1" d="M38.3,387c-0.3-0.3-0.7-0.3-1,0l-4.9,4.9c-0.3,0.3-0.3,0.7,0,1c0.3,0.3,0.7,0.3,1,0l4.9-4.9
			C38.6,387.7,38.6,387.2,38.3,387L38.3,387z"/>
		<path class="st1" d="M38.1,380.9c-0.3-0.3-0.7-0.3-1,0l-4.9,4.9c-0.3,0.3-0.3,0.7,0,1c0.3,0.3,0.7,0.3,1,0l4.9-4.9
			C38.3,381.7,38.3,381.2,38.1,380.9L38.1,380.9z"/>
	</g>
	<path class="st1" d="M54.2,370.8c-0.3-0.3-0.7-0.3-1,0l-1,1c-0.3,0.3-0.3,0.7,0,1c0.3,0.3,0.7,0.3,1,0l1-1
		C54.4,371.5,54.4,371.1,54.2,370.8L54.2,370.8z"/>
</g>
<circle class="st1" cx="21.8" cy="348.8" r="11"/>
<g>
	<path class="st0" d="M26.8,349.8v1.2c0,0.5-0.2,0.7-0.7,0.7h-0.9v1.7c0,0.5-0.2,0.7-0.7,0.7h-1.8c-0.5,0-0.7-0.2-0.7-0.7v-1.7h-5.2
		c-0.5,0-0.7-0.2-0.7-0.7v-1.1c0-0.6,0-0.8,0.4-1.2l5.2-6.2c0.3-0.4,0.5-0.5,1.1-0.5h1.7c0.5,0,0.7,0.2,0.7,0.7v6.4h0.9
		C26.6,349.1,26.8,349.3,26.8,349.8z M22,346.2l-2.4,2.9H22V346.2z"/>
</g>
<circle class="st1" cx="21.8" cy="242.3" r="11"/>
<circle class="st1" cx="21.8" cy="131.6" r="11"/>
<circle class="st1" cx="21.8" cy="25.8" r="11"/>
<g>
	<path class="st0" d="M25.3,241.7c1.2,0.7,1.8,1.7,1.8,3c0,2.5-1.6,4-4.9,4c-2.9,0-4.6-1.1-5.3-3.2c-0.2-0.5-0.1-0.8,0.5-1l1.8-0.6
		c0.5-0.2,0.8-0.1,1,0.5c0.3,0.8,0.8,1.2,1.8,1.2c0.9,0,1.4-0.3,1.4-1.1c0-0.8-0.4-1.1-1.2-1.1H21c-0.6,0-0.8-0.2-0.8-0.8v-1.5
		c0-0.6,0.2-0.8,0.8-0.8h0.8c0.7,0,1.2-0.3,1.2-1c0-0.7-0.4-1-1.2-1c-1,0-1.4,0.4-1.7,1.2c-0.2,0.6-0.4,0.7-1,0.5l-1.8-0.6
		c-0.5-0.2-0.7-0.5-0.5-1c0.8-2,2.4-3.2,5.3-3.2c2.9,0,4.5,1.5,4.5,3.8C26.7,240.1,26.2,241.1,25.3,241.7z"/>
</g>
<g>
	<path class="st0" d="M22,124.5c3,0,4.8,1.9,4.8,4.2c0,2.8-1.3,3.8-4.1,4.8c-1,0.3-2.1,0.5-2.1,0.9v0.1h5.2c0.6,0,0.8,0.2,0.8,0.8
		v1.5c0,0.6-0.2,0.8-0.8,0.8h-8.2c-0.6,0-0.8-0.2-0.8-0.8v-1.5c0-2.5,1.8-3.3,3.5-4c1.5-0.6,2.8-1.1,2.8-2.5c0-0.7-0.5-1.2-1.2-1.2
		c-0.8,0-1.2,0.3-1.6,1.2c-0.3,0.6-0.4,0.7-1,0.5l-1.9-0.7c-0.5-0.2-0.7-0.5-0.5-1C17.7,125.7,19.2,124.5,22,124.5z"/>
</g>
<g>
	<path class="st0" d="M24.3,19.3v11.3c0,0.6-0.2,0.8-0.8,0.8h-2c-0.6,0-0.8-0.2-0.8-0.8v-7.6l-1.2,0.7c-0.6,0.3-0.9,0.2-1.2-0.3
		l-0.9-1.5c-0.3-0.5-0.1-0.7,0.4-1.1l3.5-2c0.4-0.3,0.6-0.3,1.1-0.3h1.1C24.1,18.5,24.3,18.7,24.3,19.3z"/>
</g>
</svg>
