<svg version="1" id="Logo" xmlns="http://www.w3.org/2000/svg" viewBox="0 0 512 512">
  <style>
    .st1{fill:#fff}
  </style>
  <circle cx="256" cy="256" r="256" fill="#02acc4"/>
  <path class="st1" d="M256 107.1c48.5 0 54.2.2 73.4 1.1 17.7.8 27.3 3.8 33.7 6.3 8.5 3.3 14.5 7.2 20.9 13.6 6.4 6.4 10.3 12.4 13.6 20.9 2.5 6.4 5.4 16 6.3 33.7.9 19.2 1.1 24.9 1.1 73.4s-.2 54.2-1.1 73.4c-.8 17.7-3.8 27.3-6.3 33.7-3.3 8.5-7.2 14.5-13.6 20.9-6.4 6.4-12.4 10.3-20.9 13.6-6.4 2.5-16 5.4-33.7 6.3-19.1.9-24.9 1.1-73.4 1.1s-54.2-.2-73.4-1.1c-17.7-.8-27.3-3.8-33.7-6.3-8.5-3.3-14.5-7.2-20.9-13.6-6.4-6.4-10.3-12.4-13.6-20.9-2.5-6.4-5.4-16-6.3-33.7-.9-19.2-1.1-24.9-1.1-73.4s.2-54.2 1.1-73.4c.8-17.7 3.8-27.3 6.3-33.7 3.3-8.5 7.2-14.5 13.6-20.9 6.4-6.4 12.4-10.3 20.9-13.6 6.4-2.5 16-5.4 33.7-6.3 19.2-.9 24.9-1.1 73.4-1.1m0-32.7c-49.3 0-55.5.2-74.9 1.1-19.3.9-32.5 4-44.1 8.4-11.9 4.6-22.1 10.9-32.2 20.9-10 10.2-16.2 20.3-20.9 32.2-4.5 11.6-7.6 24.8-8.4 44.1-.9 19.4-1.1 25.6-1.1 74.9 0 49.3.2 55.5 1.1 74.9.9 19.3 4 32.5 8.4 44.1 4.6 11.9 10.9 22.1 20.9 32.2 10.1 10.1 20.2 16.3 32.2 20.9 11.6 4.5 24.8 7.6 44.1 8.4 19.4.9 25.6 1.1 74.9 1.1s55.5-.2 74.9-1.1c19.3-.9 32.5-4 44.1-8.4 11.9-4.6 22.1-10.9 32.2-20.9 10.1-10.1 16.3-20.2 20.9-32.2 4.5-11.6 7.6-24.8 8.4-44.1.9-19.4 1.1-25.6 1.1-74.9s-.2-55.5-1.1-74.9c-.9-19.3-4-32.5-8.4-44.1-4.6-11.9-10.9-22.1-20.9-32.2-10.2-10-20.3-16.2-32.2-20.9-11.6-4.5-24.8-7.6-44.1-8.4-19.4-.9-25.6-1.1-74.9-1.1z"/>
  <path class="st1" d="M256 162.7c-51.5 0-93.3 41.8-93.3 93.3s41.8 93.3 93.3 93.3 93.3-41.8 93.3-93.3-41.8-93.3-93.3-93.3zm0 153.8c-33.4 0-60.5-27.1-60.5-60.5s27.1-60.5 60.5-60.5 60.5 27.1 60.5 60.5-27.1 60.5-60.5 60.5z"/>
  <circle class="st1" cx="352.9" cy="159.1" r="21.8"/>
</svg>
