<?xml version="1.0" encoding="utf-8"?>
<!-- Generator: Adobe Illustrator 22.1.0, SVG Export Plug-In . SVG Version: 6.00 Build 0)  -->
<svg version="1.2" baseProfile="tiny" id="Layer_1" xmlns="http://www.w3.org/2000/svg" xmlns:xlink="http://www.w3.org/1999/xlink"
	 x="0px" y="0px" viewBox="0 0 3027.3 702.1" xml:space="preserve">
<g>
	<g id="XMLID_35_">
		<path id="XMLID_38_" fill="#5FA7C3" d="M222.4,21.9c-46.3,0-89.3,13.7-109,26.6c0,0-16.3,10.7-2.5,24.5l161.7,161.7
			c4.7,4.7,7.1,10.9,7.1,17.2c0,6.2-2.4,12.5-7.1,17.2L111.4,430.1c0,0-13.8,13.8,2.6,24.4c19.6,12.7,62.4,26.3,108.5,26.3
			c126.8,0,229.5-102.8,229.5-229.5S349.2,21.9,222.4,21.9z"/>
		<path id="XMLID_37_" fill="#599BB5" d="M279.4,249.2c0.1,0.9,0.2,1.7,0.2,2.6c0,6.2-2.4,12.5-7.1,17.2L111.4,430.1
			c0,0-13.8,13.8,2.6,24.4c2.9,1.9,6.3,3.8,10.2,5.6c-1.3-0.9-10.7-7.6-6.1-15.2c4.9-8.1,150.6-151.3,150.6-151.3s6.2-4.6,10.9-15.8
			C284.2,266.8,279.5,249.1,279.4,249.2L279.4,249.2z"/>
		<path id="XMLID_36_" fill="#599BB5" d="M201.2,238.2L71.6,105.6c0,0-0.6-0.6-1.5-1.4c-1.6-1.4-8-6.6-12.7-6.6
			c-4.9,0-10.3,5.8-12.2,8c-0.9,1.1-1.8,2.3-2.7,3.5c-0.7,1-2.6,3.5-7.2,9.6c-0.3,0.4-0.5,0.7-0.7,1.1c-6.5,8.8-3.5,17-1.6,20.5
			c1.5,2.4,3.4,4.9,6.2,7.8l88.2,90.3c0,0,5.6,5.8,6,13.6c-0.4,7.8-6,13.6-6,13.6l-88.2,90.3c-2.8,2.9-4.8,5.5-6.2,7.8
			c-1.9,3.5-4.9,11.6,1.6,20.5c0.2,0.4,0.5,0.7,0.7,1.1c4.6,6.1,6.5,8.6,7.2,9.6c0.9,1.2,1.8,2.4,2.7,3.5c1.8,2.2,7.3,8,12.2,8
			c4.7,0,11.1-5.3,12.7-6.6c0.9-0.8,1.5-1.4,1.5-1.4l129.6-132.6c4.6-4.7,6.1-9.4,6-13.6C207.3,247.7,205.8,243,201.2,238.2z"/>
	</g>
	<g id="XMLID_169_">
		<g id="XMLID_182_">
			<path id="XMLID_188_" fill="#5FA7C3" d="M2153.3,98.5H2357V131h-171.3v106h125v32.4h-125v106H2357v32.4h-203.8V98.5z"/>
			<path id="XMLID_185_" fill="#5FA7C3" d="M2581,110.6c18.8,8.1,35.2,19.1,49.2,33.1c14,14,25.1,30.4,33.2,49.1
				c8.1,18.8,12.1,38.8,12.1,60.1c0,21.3-4,41.5-12.1,60.3c-8.1,18.9-19.1,35.3-33.2,49.3c-14,14-30.4,25-49.2,33.1
				c-18.8,8.1-38.9,12.1-60.2,12.1h-98.8V98.5h98.8C2542.1,98.5,2562.2,102.6,2581,110.6z M2568.1,365.7c15-6.5,28-15.2,38.9-26.3
				c11-11.1,19.7-24,26.2-38.8c6.5-14.8,9.7-30.7,9.7-47.6c0-16.7-3.2-32.5-9.7-47.4c-6.5-14.9-15.2-27.9-26.2-38.8
				c-11-10.9-23.9-19.6-38.9-26.1c-15-6.5-30.9-9.7-47.6-9.7h-66.2v244.4h66.2C2537.3,375.4,2553.1,372.1,2568.1,365.7z"/>
			<path id="XMLID_183_" fill="#5FA7C3" d="M2951.8,98.5h32.4v187.8c0,16.7-3.2,32.4-9.5,47.2c-6.4,14.7-15.1,27.6-26.2,38.7
				c-11.1,11.1-24.1,19.8-38.8,26.2c-14.7,6.3-30.5,9.5-47.2,9.5c-15.9,0-30.8-2.8-44.9-8.4c-14-5.6-26.4-13.3-37.3-23.1
				c-10.8-9.8-19.7-21.4-26.7-34.8c-6.9-13.4-11.3-27.8-13-43h-0.4v-12.1V98.5h32.4v188.8c0,12.1,2.4,23.5,7.1,34.3
				c4.8,10.8,11.2,20.2,19.3,28.1c8.1,7.9,17.6,14.2,28.6,18.8c11,4.6,22.5,6.9,34.6,6.9c12.1,0,23.6-2.3,34.4-6.9
				c10.8-4.6,20.3-10.9,28.6-18.8c8.2-7.9,14.7-17.2,19.5-27.9c4.8-10.7,7.1-22,7.1-34.1V286V98.5z"/>
		</g>
		<g id="XMLID_180_">
			<rect id="XMLID_181_" x="2014.5" y="61.2" fill="#599BB5" width="9.1" height="384"/>
		</g>
		<g id="XMLID_170_">
			<path id="XMLID_178_" d="M942.2,98.5v309.3h-32.4V184.6L804.6,407.8h-23.8L677,185v222.8h-32.4V98.5h27.7L793,356.8L914.1,98.5
				H942.2z"/>
			<path id="XMLID_176_" d="M1576.8,98.5h34.2l-124.6,309.3h-24.2L1335.8,98.5h34.2l104.3,254.4L1576.8,98.5z"/>
			<path id="XMLID_174_" d="M1681.2,98.5h203.8V131h-171.3v106h125v32.4h-125v106h171.3v32.4h-203.8V98.5z"/>
			<path id="XMLID_171_" d="M1161.8,98.5c-85.4,0-154.7,69.2-154.7,154.7s69.2,154.7,154.7,154.7s154.7-69.2,154.7-154.7
				S1247.2,98.5,1161.8,98.5z M1161.8,375.4c-67.5,0-122.2-54.7-122.2-122.2c0-67.5,54.7-122.2,122.2-122.2
				c67.5,0,122.2,54.7,122.2,122.2C1284,320.7,1229.3,375.4,1161.8,375.4z"/>
		</g>
	</g>
	<g id="XMLID_62_">
		<path id="XMLID_116_" d="M1101.8,655.2v-82.7h10.5v82.7H1101.8z"/>
		<path id="XMLID_118_" d="M1171.7,592v63.2h-10.5v-82.8h8.2l51.3,64.5v-64.4h10.5v82.7h-8.9L1171.7,592z"/>
		<path id="XMLID_120_" d="M1314,655.8c-5.8,0-11.1-1.2-15.9-3.6s-8.9-5.5-12.3-9.4c-3.4-3.9-6.1-8.4-7.9-13.5s-2.8-10.2-2.8-15.5
			c0-5.5,1-10.8,3-15.9c2-5.1,4.7-9.5,8.2-13.4c3.5-3.9,7.6-7,12.4-9.3c4.8-2.3,10-3.4,15.6-3.4c5.8,0,11.1,1.2,15.9,3.7
			s8.8,5.7,12.2,9.6c3.4,4,6.1,8.4,7.9,13.5c1.9,5,2.8,10.1,2.8,15.3c0,5.5-1,10.8-3,15.9c-2,5.1-4.7,9.5-8.2,13.3
			c-3.5,3.9-7.6,6.9-12.4,9.2S1319.6,655.8,1314,655.8z M1285.6,613.8c0,4.2,0.7,8.3,2,12.2c1.4,3.9,3.3,7.4,5.8,10.4
			c2.5,3,5.5,5.4,9,7.2c3.5,1.8,7.4,2.7,11.7,2.7c4.4,0,8.4-1,11.9-2.9c3.5-1.9,6.5-4.4,8.9-7.5c2.4-3.1,4.3-6.5,5.6-10.4
			c1.3-3.9,1.9-7.8,1.9-11.8c0-4.2-0.7-8.3-2-12.2c-1.4-3.9-3.3-7.4-5.8-10.4c-2.5-3-5.5-5.4-9-7.2c-3.5-1.8-7.3-2.7-11.5-2.7
			c-4.4,0-8.4,0.9-11.9,2.8c-3.5,1.9-6.5,4.3-8.9,7.3c-2.4,3-4.3,6.5-5.6,10.4C1286.3,605.8,1285.6,609.8,1285.6,613.8z"/>
		<path id="XMLID_123_" d="M1396,572.4l27.4,69.6l27.3-69.6h11.1l-33.8,82.8h-9.1l-33.9-82.8H1396z"/>
		<path id="XMLID_125_" d="M1486.9,655.2l34.1-82.8h8.6l33.9,82.8h-11.2l-9.8-24.2h-34.7l-9.7,24.2H1486.9z M1525.3,584.6
			l-15.4,38.2h30.3L1525.3,584.6z"/>
		<path id="XMLID_128_" d="M1628.4,669.9c1,0.5,2.5,1.1,4.4,1.5c1.9,0.5,3.9,0.7,5.9,0.7c2.1,0,3.7-0.3,4.9-0.9
			c1.2-0.6,1.8-1.7,1.8-3.1c0-1.6-0.6-2.6-1.6-3.2c-1.1-0.6-2.5-0.9-4.3-0.9c-1.6,0-3.3,0.2-5.1,0.5c-1.8,0.3-3.2,0.7-4.2,1l5.1-9.7
			c-5.4-0.3-10.3-1.8-14.8-4.3c-4.5-2.6-8.4-5.8-11.6-9.8c-3.2-4-5.7-8.4-7.5-13.4c-1.8-5-2.7-10-2.7-15c0-5,0.9-9.9,2.6-14.9
			c1.8-4.9,4.3-9.4,7.7-13.3c3.4-3.9,7.5-7.1,12.4-9.5c4.9-2.4,10.5-3.6,16.7-3.6c7.4,0,13.7,1.7,19,5c5.3,3.3,9.2,7.7,11.8,13.1
			l-8.3,5.4c-1.2-2.6-2.7-4.9-4.5-6.6c-1.8-1.8-3.7-3.2-5.7-4.3c-2.1-1.1-4.2-1.9-6.4-2.3c-2.2-0.5-4.3-0.7-6.4-0.7
			c-4.6,0-8.6,1-12.2,2.9c-3.5,1.9-6.5,4.4-8.9,7.5c-2.4,3.1-4.2,6.5-5.4,10.4c-1.2,3.9-1.8,7.7-1.8,11.6c0,4.4,0.7,8.5,2.2,12.4
			c1.4,3.9,3.4,7.4,6,10.4c2.6,3,5.6,5.4,9.1,7.2c3.5,1.8,7.3,2.7,11.4,2.7c2.2,0,4.4-0.3,6.7-0.8c2.3-0.6,4.5-1.4,6.6-2.6
			c2.1-1.2,4.1-2.7,5.9-4.5c1.8-1.8,3.3-4,4.5-6.6l8.7,4.8c-1.2,2.9-2.9,5.4-5.1,7.7c-2.1,2.2-4.5,4.2-7.2,5.8
			c-2.7,1.6-5.5,2.9-8.5,3.8c-3,0.9-6,1.5-9,1.8l-3.2,5c0.6-0.2,1.3-0.4,2.1-0.5c0.8-0.1,1.5-0.1,2.1-0.1c2.7,0,4.9,0.6,6.6,1.9
			c1.7,1.2,2.6,3.1,2.6,5.6c0,2.7-1.1,4.9-3.3,6.4c-2.2,1.5-5.4,2.3-9.6,2.3c-2.3,0-4.5-0.2-6.5-0.6c-2-0.4-3.8-0.9-5.3-1.6
			L1628.4,669.9z"/>
		<path id="XMLID_130_" d="M1704,655.2l34.1-82.8h8.6l33.9,82.8h-11.2l-9.8-24.2h-34.7l-9.7,24.2H1704z M1749.6,560.4
			c-1.8,0-3.3-0.3-4.6-0.8c-1.3-0.5-2.5-1.1-3.6-1.7c-1.1-0.6-2.2-1.2-3.3-1.7c-1.1-0.5-2.3-0.8-3.5-0.8c-1.3,0-2.3,0.3-3.1,0.8
			c-0.7,0.6-1.3,1.2-1.7,1.8c-0.4,0.7-0.7,1.3-0.8,1.9c-0.1,0.6-0.2,1-0.2,1h-6.1c0-0.5,0.2-1.4,0.5-2.7c0.4-1.3,1-2.7,1.8-4.1
			c0.9-1.4,2-2.6,3.5-3.7c1.5-1.1,3.4-1.6,5.7-1.6c1.6,0,3.1,0.2,4.3,0.8c1.2,0.5,2.4,1.1,3.5,1.8c1.1,0.7,2.3,1.2,3.4,1.8
			c1.1,0.5,2.4,0.8,3.8,0.8c1.5,0,2.6-0.3,3.5-0.8c0.9-0.5,1.5-1.2,2-1.9c0.5-0.7,0.8-1.3,0.9-1.9c0.1-0.6,0.2-1,0.2-1.1h6.1
			c0,0.5-0.2,1.3-0.5,2.6c-0.3,1.3-1,2.6-1.9,4c-0.9,1.4-2.2,2.7-3.8,3.7C1754.1,559.9,1752.1,560.4,1749.6,560.4z M1742.3,584.6
			l-15.4,38.2h30.3L1742.3,584.6z"/>
		<path id="XMLID_134_" d="M1854.6,655.8c-5.8,0-11.1-1.2-15.9-3.6c-4.8-2.4-8.9-5.5-12.3-9.4c-3.4-3.9-6.1-8.4-7.9-13.5
			c-1.9-5.1-2.8-10.2-2.8-15.5c0-5.5,1-10.8,3-15.9c2-5.1,4.7-9.5,8.2-13.4c3.5-3.9,7.6-7,12.4-9.3c4.8-2.3,10-3.4,15.6-3.4
			c5.8,0,11.1,1.2,15.9,3.7c4.7,2.4,8.8,5.7,12.2,9.6c3.4,4,6.1,8.4,7.9,13.5c1.9,5,2.8,10.1,2.8,15.3c0,5.5-1,10.8-3,15.9
			c-2,5.1-4.7,9.5-8.2,13.3c-3.5,3.9-7.6,6.9-12.4,9.2S1860.2,655.8,1854.6,655.8z M1826.3,613.8c0,4.2,0.7,8.3,2,12.2
			c1.4,3.9,3.3,7.4,5.8,10.4c2.5,3,5.5,5.4,9,7.2c3.5,1.8,7.4,2.7,11.7,2.7c4.4,0,8.4-1,11.9-2.9c3.5-1.9,6.5-4.4,8.9-7.5
			c2.4-3.1,4.3-6.5,5.6-10.4c1.3-3.9,1.9-7.8,1.9-11.8c0-4.2-0.7-8.3-2-12.2c-1.4-3.9-3.3-7.4-5.8-10.4c-2.5-3-5.5-5.4-9-7.2
			c-3.5-1.8-7.3-2.7-11.5-2.7c-4.4,0-8.4,0.9-11.9,2.8c-3.5,1.9-6.5,4.3-8.9,7.3c-2.4,3-4.3,6.5-5.6,10.4
			C1826.9,605.8,1826.3,609.8,1826.3,613.8z"/>
		<path id="XMLID_137_" d="M2052.1,645.9v9.3h-56.2v-82.8h55.2v9.3h-44.7v26.8h38.8v8.7h-38.8v28.6H2052.1z"/>
		<path id="XMLID_139_" d="M2209.4,641.1v14.1h-57.5v-82.8h56.4v14.1H2168v19.9h34.9v13.1H2168v21.6H2209.4z"/>
		<path id="XMLID_141_" d="M2251.5,655.2v-82.8h30.1c6.8,0,12.7,1.1,17.8,3.3c5.1,2.2,9.3,5.1,12.8,8.9c3.4,3.7,6,8.1,7.7,13.1
			c1.7,5,2.6,10.4,2.6,16c0,6.3-1,12-2.9,17.1c-1.9,5.1-4.6,9.4-8.2,13.1c-3.6,3.6-7.9,6.4-12.9,8.4c-5,2-10.6,3-16.8,3H2251.5z
			 M2306.2,613.7c0-4-0.5-7.6-1.6-11c-1.1-3.3-2.7-6.2-4.8-8.6c-2.1-2.4-4.7-4.3-7.7-5.6c-3.1-1.3-6.5-2-10.4-2h-14v54.6h14
			c4,0,7.5-0.7,10.5-2.1c3.1-1.4,5.6-3.3,7.7-5.8c2.1-2.4,3.6-5.3,4.7-8.7C2305.7,621.2,2306.2,617.6,2306.2,613.7z"/>
		<path id="XMLID_144_" d="M2399.2,641.6c3.8,0,7-0.8,9.6-2.3c2.6-1.6,4.7-3.6,6.3-6.1c1.6-2.5,2.7-5.3,3.4-8.6c0.7-3.2,1-6.5,1-10
			v-42.2h16v42.2c0,5.7-0.7,11-2,16c-1.4,5-3.5,9.3-6.4,13.1c-2.9,3.7-6.7,6.7-11.2,8.9c-4.6,2.2-10.1,3.3-16.4,3.3
			c-6.6,0-12.2-1.1-16.8-3.4c-4.6-2.3-8.4-5.3-11.3-9.1c-2.9-3.8-5-8.1-6.2-13.1c-1.3-5-1.9-10.1-1.9-15.5v-42.2h16.1v42.2
			c0,3.5,0.3,6.9,1,10.1s1.8,6.1,3.4,8.6c1.6,2.5,3.7,4.5,6.2,6C2392.4,640.8,2395.5,641.6,2399.2,641.6z"/>
		<path id="XMLID_146_" d="M2475.8,613.2c0-5.1,0.9-10.1,2.7-15c1.8-4.9,4.4-9.4,7.7-13.2s7.5-7,12.4-9.4c4.9-2.4,10.5-3.6,16.8-3.6
			c7.4,0,13.8,1.7,19.2,5c5.4,3.3,9.4,7.7,11.9,13.1l-12.4,8.5c-0.9-2.3-2.1-4.3-3.6-5.9c-1.5-1.6-3.1-2.9-4.8-3.8
			c-1.8-0.9-3.6-1.6-5.4-2c-1.9-0.4-3.7-0.6-5.4-0.6c-3.8,0-7.1,0.8-10,2.4c-2.9,1.6-5.3,3.8-7.2,6.4c-1.9,2.6-3.3,5.6-4.3,8.9
			c-1,3.3-1.5,6.6-1.5,9.8c0,3.7,0.6,7.2,1.7,10.6c1.1,3.4,2.7,6.3,4.8,8.9c2.1,2.6,4.5,4.6,7.4,6.2c2.9,1.6,6,2.3,9.4,2.3
			c1.8,0,3.6-0.2,5.5-0.7c1.9-0.5,3.7-1.2,5.4-2.2c1.8-1,3.4-2.3,4.8-3.9c1.5-1.6,2.7-3.5,3.6-5.8l13.2,7.6
			c-1.2,3.1-3.1,5.9-5.4,8.2c-2.4,2.4-5.1,4.4-8.1,6c-3,1.6-6.2,2.9-9.6,3.7c-3.3,0.9-6.6,1.3-9.9,1.3c-5.8,0-11-1.2-15.8-3.7
			c-4.8-2.5-8.9-5.7-12.4-9.7c-3.5-4-6.1-8.5-8-13.6C2476.8,623.7,2475.8,618.5,2475.8,613.2z"/>
		<path id="XMLID_148_" d="M2578.5,655.2l32.6-82.8h13.1l32.5,82.8h-17l-7.6-20.6h-29l-7.6,20.6H2578.5z M2617.6,589.8l-11.9,33.5
			h23.4L2617.6,589.8z"/>
		<path id="XMLID_151_" d="M2719.8,670c0.9,0.6,2.4,1.1,4.3,1.5c1.9,0.5,4,0.7,6.1,0.7c2,0,3.6-0.3,4.8-0.9c1.2-0.6,1.8-1.6,1.8-3
			c0-1.4-0.6-2.4-1.7-3c-1.1-0.6-2.6-0.9-4.4-0.9c-1.6,0-3.4,0.2-5.2,0.5c-1.8,0.3-3.2,0.6-4.1,0.9l5.1-10.1
			c-5.4-0.4-10.3-1.9-14.8-4.4c-4.5-2.6-8.4-5.8-11.5-9.8c-3.2-4-5.7-8.4-7.5-13.3c-1.8-4.9-2.7-9.9-2.7-15s0.9-10.1,2.7-15
			c1.8-4.9,4.4-9.4,7.8-13.2s7.5-7,12.4-9.4c4.9-2.4,10.5-3.6,16.8-3.6c7.4,0,13.8,1.7,19.2,5c5.4,3.3,9.4,7.7,11.9,13.1l-12.4,8.5
			c-0.9-2.3-2.1-4.3-3.6-5.9c-1.5-1.6-3.1-2.9-4.8-3.8s-3.6-1.6-5.4-2c-1.9-0.4-3.7-0.6-5.4-0.6c-3.8,0-7.2,0.8-10,2.4
			c-2.9,1.6-5.3,3.8-7.2,6.4c-1.9,2.6-3.3,5.6-4.3,8.9c-1,3.3-1.4,6.6-1.4,9.8c0,3.7,0.6,7.2,1.7,10.6c1.1,3.4,2.7,6.3,4.8,8.9
			c2.1,2.6,4.5,4.6,7.4,6.2c2.9,1.6,6,2.3,9.4,2.3c1.8,0,3.6-0.2,5.5-0.7c1.9-0.5,3.7-1.2,5.4-2.2c1.7-1,3.4-2.3,4.8-3.9
			c1.5-1.6,2.7-3.5,3.6-5.8l13.2,7.6c-1.2,2.8-2.8,5.3-4.8,7.5c-2,2.2-4.3,4.1-6.9,5.7c-2.6,1.6-5.3,2.9-8.3,3.9
			c-3,1-5.9,1.6-8.9,1.9l-2.8,4.4c0.5-0.2,1.1-0.3,1.8-0.3c0.7-0.1,1.3-0.1,1.9-0.1c2.7,0,5.1,0.6,7,1.9c1.9,1.3,2.9,3.4,2.9,6.2
			c0,3-1.2,5.4-3.7,7.3c-2.4,1.9-6.2,2.9-11.3,2.9c-2.6,0-4.9-0.2-7-0.7c-2.1-0.5-3.9-1-5.5-1.6L2719.8,670z"/>
		<path id="XMLID_153_" d="M2793.7,655.2l32.6-82.8h13.1l32.5,82.8h-17l-7.6-20.6h-29l-7.6,20.6H2793.7z M2840.2,563.5
			c-1.8,0-3.3-0.3-4.7-0.8c-1.3-0.5-2.5-1.1-3.7-1.8c-1.1-0.7-2.3-1.3-3.4-1.8c-1.1-0.5-2.3-0.8-3.6-0.8c-1.3,0-2.3,0.3-3.1,0.8
			c-0.7,0.6-1.3,1.2-1.7,1.9c-0.4,0.7-0.6,1.3-0.7,1.9c-0.1,0.6-0.1,0.9-0.1,1h-8.6c0-0.7,0.2-1.9,0.7-3.6c0.5-1.7,1.2-3.3,2.3-5
			c1.1-1.7,2.4-3.2,4.2-4.4c1.8-1.3,3.9-1.9,6.5-1.9c1.8,0,3.3,0.3,4.6,0.9c1.3,0.6,2.5,1.2,3.6,1.9c1.1,0.7,2.3,1.3,3.4,1.9
			c1.1,0.6,2.4,0.9,3.8,0.9c1.4,0,2.5-0.3,3.3-0.8c0.8-0.5,1.4-1.2,1.9-1.9c0.4-0.7,0.7-1.4,0.8-2c0.1-0.6,0.2-1,0.2-1.2h8.6
			c0,0.5-0.2,1.6-0.7,3.3c-0.5,1.6-1.3,3.3-2.4,5c-1.1,1.7-2.6,3.2-4.4,4.6C2845.2,562.8,2842.9,563.5,2840.2,563.5z M2832.9,589.8
			l-11.9,33.5h23.4L2832.9,589.8z"/>
		<path id="XMLID_157_" d="M2944.3,655.8c-5.8,0-11.2-1.2-16-3.6c-4.8-2.4-9-5.5-12.4-9.4c-3.5-3.9-6.1-8.4-8-13.5
			c-1.9-5.1-2.8-10.2-2.8-15.5c0-5.5,1-10.8,3-15.9c2-5.1,4.7-9.5,8.3-13.4c3.5-3.9,7.7-7,12.5-9.3c4.8-2.3,10.1-3.4,15.7-3.4
			c5.8,0,11.2,1.2,16,3.7s8.9,5.7,12.4,9.6c3.4,4,6.1,8.5,7.9,13.5c1.9,5.1,2.8,10.2,2.8,15.4c0,5.5-1,10.8-3,15.8
			c-2,5-4.7,9.4-8.2,13.3c-3.5,3.9-7.7,6.9-12.5,9.2S2950,655.8,2944.3,655.8z M2921.4,613.8c0,3.6,0.5,7,1.6,10.4
			c1,3.3,2.6,6.3,4.5,8.9c2,2.6,4.4,4.6,7.3,6.2c2.9,1.5,6.1,2.3,9.8,2.3c3.7,0,7-0.8,9.8-2.4c2.8-1.6,5.2-3.7,7.2-6.4
			c1.9-2.6,3.4-5.6,4.4-8.9c1-3.3,1.5-6.7,1.5-10.1c0-3.6-0.6-7-1.6-10.4c-1.1-3.3-2.6-6.3-4.6-8.9c-2-2.6-4.4-4.6-7.2-6.1
			c-2.8-1.5-6.1-2.3-9.6-2.3c-3.7,0-7,0.8-9.8,2.4c-2.8,1.6-5.2,3.7-7.2,6.3c-2,2.6-3.5,5.6-4.5,8.9
			C2921.9,607,2921.4,610.4,2921.4,613.8z"/>
	</g>
</g>
</svg>
