<?xml version="1.0" encoding="utf-8"?>
<!-- Generator: Adobe Illustrator 22.1.0, SVG Export Plug-In . SVG Version: 6.00 Build 0)  -->
<svg version="1.0" id="Layer_1" xmlns="http://www.w3.org/2000/svg" xmlns:xlink="http://www.w3.org/1999/xlink" x="0px" y="0px"
	 viewBox="0 0 100 400" enable-background="new 0 0 100 400" xml:space="preserve">
<g>
	<path fill="#02ACC4" d="M72.1,32.7c-1.1,0-1.9,0.3-2.6,1c-0.6,0.6-1,1.8-1,3.3v23.5c0,1.6,0.3,2.7,1,3.3c0.6,0.6,1.5,1,2.6,1
		c1.1,0,1.9-0.3,2.6-1c0.6-0.6,1-1.8,1-3.3V37c0-1.6-0.3-2.7-1-3.3C74.1,33,73.2,32.7,72.1,32.7z"/>
	<path fill="#02ACC4" d="M25.5,48.1c-0.2-0.2-0.4-0.3-0.6-0.4c-0.2-0.1-0.4-0.1-0.7-0.1c-0.4,0-0.8,0.1-1.2,0.3
		c-0.4,0.2-0.7,0.5-1,0.8c-0.3,0.3-0.5,0.7-0.7,1.2c-0.2,0.4-0.3,0.9-0.3,1.3c0,0.3,0,0.6,0.1,0.9c0.1,0.3,0.2,0.5,0.4,0.8
		c0.2,0.2,0.4,0.4,0.6,0.5c0.2,0.1,0.5,0.2,0.8,0.2c0.2,0,0.5,0,0.7-0.1c0.3-0.1,0.5-0.2,0.8-0.4c0.2-0.2,0.5-0.4,0.7-0.6
		c0.2-0.2,0.4-0.5,0.5-0.7l0.5-2.3c0-0.3-0.1-0.5-0.2-0.7C25.8,48.4,25.7,48.2,25.5,48.1z"/>
	<path fill="#02ACC4" d="M34.8,47.6c-0.3-0.2-0.7-0.3-1.1-0.3c-0.4,0-0.8,0.1-1.2,0.2s-0.7,0.3-0.9,0.6c-0.3,0.2-0.5,0.5-0.7,0.8
		c-0.2,0.3-0.3,0.6-0.4,1c0.3,0,0.6,0.1,0.9,0.1c0.3,0,0.5,0,0.8,0c0.6,0,1.1,0,1.5-0.1c0.4-0.1,0.7-0.2,1-0.3
		c0.2-0.1,0.4-0.3,0.5-0.5s0.2-0.4,0.2-0.6C35.2,48.1,35.1,47.8,34.8,47.6z"/>
	<path fill="#02ACC4" d="M50,4.6c-24.9,0-45,20.1-45,45s20.1,45,45,45s45-20.1,45-45S74.9,4.6,50,4.6z M18.7,49.6h-1.8v2h-1.2v-2
		h-1.8v-1.1h1.8v-2h1.2v2h1.8V49.6z M27.1,53.3l-0.2,1.2c-0.1,0-0.2,0-0.3,0c-0.1,0-0.2,0-0.2,0c-0.3,0-0.5-0.1-0.7-0.2
		c-0.1-0.1-0.2-0.3-0.2-0.5c0-0.1,0-0.2,0-0.3c0-0.1,0.1-0.3,0.1-0.5c-0.4,0.5-0.9,0.9-1.4,1.2c-0.6,0.3-1.1,0.4-1.7,0.4
		c-0.4,0-0.8-0.1-1.2-0.3c-0.4-0.2-0.6-0.4-0.9-0.7c-0.2-0.3-0.4-0.7-0.6-1.1c-0.1-0.4-0.2-0.8-0.2-1.3c0-0.6,0.1-1.3,0.4-1.9
		c0.2-0.6,0.6-1.1,1-1.6c0.4-0.5,0.9-0.8,1.4-1.1c0.5-0.3,1.1-0.4,1.7-0.4c0.6,0,1.1,0.2,1.5,0.5c0.4,0.3,0.7,0.7,0.9,1.2l1-4.8h1.3
		l-2,9.5c0,0,0,0.1,0,0.1c0,0,0,0.1,0,0.1C26.8,53.2,26.9,53.3,27.1,53.3z M35.3,50.3C34.6,50.8,33.5,51,32,51c-0.2,0-0.5,0-0.8,0
		c-0.3,0-0.6,0-0.9-0.1c0,0.1,0,0.1,0,0.2s0,0.1,0,0.2c0,0.3,0,0.6,0.1,0.9c0.1,0.3,0.2,0.5,0.4,0.8c0.2,0.2,0.4,0.4,0.6,0.5
		c0.2,0.1,0.5,0.2,0.9,0.2c0.5,0,0.9-0.1,1.4-0.4c0.4-0.2,0.8-0.6,1.1-1l1.1,0.3c-0.2,0.3-0.4,0.6-0.7,0.8c-0.3,0.2-0.6,0.5-0.9,0.6
		c-0.3,0.2-0.7,0.3-1,0.4c-0.4,0.1-0.7,0.2-1.1,0.2c-0.5,0-0.9-0.1-1.3-0.3c-0.4-0.2-0.7-0.4-1-0.7c-0.3-0.3-0.5-0.7-0.6-1.1
		c-0.1-0.4-0.2-0.8-0.2-1.3c0-0.6,0.1-1.3,0.4-1.9c0.2-0.6,0.6-1.1,1-1.6c0.4-0.5,1-0.8,1.5-1.1c0.6-0.3,1.2-0.4,1.9-0.4
		c0.8,0,1.4,0.2,1.9,0.5c0.5,0.4,0.7,0.9,0.7,1.6C36.4,49.3,36.1,49.9,35.3,50.3z M59.3,60.1c0,3.5-0.9,6.2-2.6,8.1
		C55,70.1,52.5,71,49.1,71c-3.4,0-5.9-0.9-7.6-2.8c-1.7-1.9-2.6-4.6-2.6-8.1v-3.6h6.5v4c0,1.6,0.3,2.7,1,3.3
		c0.6,0.6,1.5,0.9,2.6,0.9c1.1,0,1.9-0.3,2.6-0.9c0.6-0.6,1-1.7,1-3.3v-9.6c0-1.6-0.3-2.7-1-3.3c-0.6-0.6-1.5-1-2.6-1
		c-1.1,0-1.9,0.3-2.6,1c-0.6,0.6-1,1.8-1,3.3v1.3h-6.5L40.1,27h18.1v6.2H46.3l-0.6,10.4c1.3-2.1,3.3-3.2,6-3.2
		c2.5,0,4.4,0.9,5.7,2.6c1.3,1.7,1.9,4.2,1.9,7.4V60.1z M79.8,68.2c-1.8,1.9-4.4,2.8-7.7,2.8c-3.4,0-5.9-0.9-7.7-2.8
		c-1.8-1.9-2.7-4.6-2.7-8.1V37.4c0-3.5,0.9-6.2,2.7-8.1c1.8-1.9,4.4-2.8,7.7-2.8c3.4,0,5.9,0.9,7.7,2.8c1.8,1.9,2.7,4.6,2.7,8.1
		v22.7C82.5,63.6,81.6,66.3,79.8,68.2z"/>
</g>
<g>
	<path fill="#02ACC4" d="M60.8,135.8c-0.8,0-1.5,0.2-2,0.7c-0.5,0.5-0.7,1.4-0.7,2.6v18.2c0,1.2,0.2,2.1,0.7,2.6
		c0.5,0.5,1.2,0.7,2,0.7c0.8,0,1.5-0.2,2-0.7c0.5-0.5,0.7-1.4,0.7-2.6v-18.2c0-1.2-0.2-2.1-0.7-2.6
		C62.3,136.1,61.6,135.8,60.8,135.8z"/>
	<path fill="#02ACC4" d="M78.7,135.8c-0.8,0-1.5,0.2-2,0.7c-0.5,0.5-0.7,1.4-0.7,2.6v18.2c0,1.2,0.2,2.1,0.7,2.6
		c0.5,0.5,1.2,0.7,2,0.7c0.8,0,1.5-0.2,2-0.7c0.5-0.5,0.7-1.4,0.7-2.6v-18.2c0-1.2-0.3-2.1-0.7-2.6
		C80.2,136.1,79.5,135.8,78.7,135.8z"/>
	<path fill="#02ACC4" d="M50,103.6c-24.9,0-45,20.1-45,45c0,24.9,20.1,45,45,45c24.9,0,45-20.1,45-45C95,123.8,74.9,103.6,50,103.6z
		 M22.3,165.2H17v-25.8h-4.1v-3.8c1,0,1.9-0.1,2.5-0.3c0.7-0.2,1.2-0.5,1.6-0.9c0.4-0.4,0.8-0.8,1-1.4c0.3-0.5,0.5-1.1,0.7-1.6h3.6
		V165.2z M32.6,165.2h-5.1v-5.1h5.1V165.2z M40.6,160.3h10v4.8H35.3V161c0-1.6,0.3-3.1,0.8-4.3c0.5-1.3,1.2-2.4,2-3.5
		c0.8-1,1.6-2,2.5-2.9c0.9-0.9,1.7-1.9,2.5-2.9c0.8-1,1.4-2.2,2-3.4c0.5-1.2,0.8-2.7,0.8-4.3c0-1.5-0.2-2.5-0.7-3.1
		c-0.5-0.5-1.2-0.8-2-0.8c-0.8,0-1.5,0.2-2,0.7c-0.5,0.5-0.7,1.4-0.7,2.6v3.6h-5v-3.3c0-2.7,0.7-4.8,2-6.3c1.3-1.5,3.3-2.2,5.9-2.2
		s4.6,0.7,5.9,2.2c1.3,1.5,2,3.6,2,6.3c0,1.8-0.3,3.4-0.8,4.8c-0.5,1.4-1.2,2.7-2,3.9c-0.8,1.2-1.6,2.3-2.6,3.3
		c-0.9,1-1.8,1.9-2.6,2.8c-0.8,0.9-1.4,1.8-2,2.6c-0.5,0.9-0.8,1.7-0.8,2.7C40.5,159.9,40.5,160.2,40.6,160.3z M68.9,157.1
		c0,2.7-0.7,4.8-2.1,6.3c-1.4,1.5-3.4,2.2-6,2.2c-2.6,0-4.6-0.7-6-2.2c-1.4-1.5-2.1-3.6-2.1-6.3v-17.6c0-2.7,0.7-4.8,2.1-6.3
		c1.4-1.5,3.4-2.2,6-2.2c2.6,0,4.6,0.7,6,2.2c1.4,1.5,2.1,3.6,2.1,6.3V157.1z M84.7,163.4c-1.4,1.5-3.4,2.2-6,2.2
		c-2.6,0-4.6-0.7-6-2.2c-1.4-1.5-2.1-3.6-2.1-6.3v-17.6c0-2.7,0.7-4.8,2.1-6.3c1.4-1.5,3.4-2.2,6-2.2c2.6,0,4.6,0.7,6,2.2
		c1.4,1.5,2.1,3.6,2.1,6.3v17.6C86.8,159.8,86.1,161.9,84.7,163.4z"/>
</g>
<g>
	<path fill="#02ACC4" d="M51.5,255.8c0.8,0,1.5-0.2,2-0.7c0.5-0.5,0.7-1.4,0.7-2.6v-18.2c0-1.2-0.3-2.1-0.7-2.6
		c-0.5-0.5-1.2-0.7-2-0.7c-0.8,0-1.5,0.2-2,0.7c-0.5,0.5-0.7,1.4-0.7,2.6v18.2c0,1.2,0.2,2.1,0.7,2.6
		C50,255.6,50.7,255.8,51.5,255.8z"/>
	<path fill="#02ACC4" d="M69.4,230.9c-0.8,0-1.5,0.2-2,0.7c-0.5,0.5-0.7,1.4-0.7,2.6v18.2c0,1.2,0.2,2.1,0.7,2.6
		c0.5,0.5,1.2,0.7,2,0.7c0.8,0,1.5-0.2,2-0.7c0.5-0.5,0.7-1.4,0.7-2.6v-18.2c0-1.2-0.3-2.1-0.7-2.6C71,231.2,70.3,230.9,69.4,230.9z
		"/>
	<path fill="#02ACC4" d="M50,205c-24.9,0-45,20.1-45,45c0,24.9,20.1,45,45,45c24.9,0,45-20.1,45-45C95,225.1,74.9,205,50,205z
		 M43.5,234.6c0-2.7,0.7-4.8,2.1-6.3c1.4-1.5,3.4-2.2,6-2.2c2.6,0,4.6,0.7,6,2.2c1.4,1.5,2.1,3.6,2.1,6.3v17.6
		c0,2.7-0.7,4.8-2.1,6.3c-1.4,1.5-3.4,2.2-6,2.2c-2.6,0-4.6-0.7-6-2.2c-1.4-1.5-2.1-3.6-2.1-6.3V234.6z M33.7,260.6
		c-2.6,0-4.6-0.7-5.9-2.2c-1.3-1.5-2-3.6-2-6.3v-2.8h5v3.1c0,1.2,0.2,2.1,0.7,2.6c0.5,0.5,1.2,0.7,2,0.7c0.8,0,1.5-0.2,2-0.7
		c0.5-0.5,0.7-1.3,0.7-2.6v-7.4c0-1.2-0.3-2.1-0.7-2.6c-0.5-0.5-1.2-0.7-2-0.7c-0.8,0-1.5,0.3-2,0.7c-0.5,0.5-0.7,1.4-0.7,2.6v1h-5
		l1-19.6h14v4.8h-9.2l-0.4,8.1c1-1.6,2.5-2.5,4.6-2.5c2,0,3.4,0.7,4.4,2c1,1.3,1.5,3.2,1.5,5.7v7.5c0,2.7-0.7,4.8-2,6.3
		C38.3,259.9,36.3,260.6,33.7,260.6z M52.5,269.7l-1,4.8h-1.3L51,270c0.1-0.4,0.1-0.8,0.1-1.1c0-0.9-0.4-1.3-1.1-1.3
		c-0.3,0-0.5,0.1-0.8,0.2c-0.3,0.1-0.5,0.2-0.7,0.4c-0.2,0.2-0.5,0.4-0.7,0.7c-0.2,0.3-0.4,0.5-0.5,0.8l-1,4.8H45L46,270
		c0.1-0.4,0.1-0.8,0.1-1.1c0-0.9-0.4-1.3-1.1-1.3c-0.5,0-1,0.2-1.5,0.6c-0.5,0.4-0.9,0.9-1.2,1.5l-1,4.8H40l1.7-8h1.2l-0.4,1.7
		c0.4-0.6,0.9-1,1.5-1.4c0.6-0.3,1.2-0.5,1.7-0.5c0.6,0,1,0.2,1.4,0.5c0.3,0.3,0.5,0.8,0.5,1.4c0.5-0.6,1-1.1,1.5-1.5
		c0.6-0.3,1.1-0.5,1.7-0.5c0.7,0,1.1,0.2,1.4,0.5c0.3,0.4,0.4,0.8,0.4,1.4C52.6,268.7,52.6,269.2,52.5,269.7z M54.8,274.5h-1.3
		l1.7-8h1.3L54.8,274.5z M56.8,265h-1.3l0.4-1.7h1.3L56.8,265z M59.4,273.4c0.1,0,0.2,0,0.4-0.1c0.2,0,0.3-0.1,0.4-0.1l0,1.1
		c-0.2,0.1-0.5,0.2-0.8,0.2c-0.3,0.1-0.6,0.1-0.8,0.1c-0.4,0-0.8-0.1-1-0.3c-0.2-0.2-0.3-0.5-0.3-0.9c0-0.1,0-0.2,0-0.2
		c0-0.1,0-0.2,0-0.2l2-9.6h1.3l-1.9,9.1c0,0.1,0,0.1,0,0.1c0,0,0,0.1,0,0.1C58.7,273.2,58.9,273.4,59.4,273.4z M77.5,252.1
		c0,2.7-0.7,4.8-2.1,6.3c-1.4,1.5-3.4,2.2-6,2.2c-2.6,0-4.6-0.7-6-2.2c-1.4-1.5-2.1-3.6-2.1-6.3v-17.6c0-2.7,0.7-4.8,2.1-6.3
		c1.4-1.5,3.4-2.2,6-2.2c2.6,0,4.6,0.7,6,2.2c1.4,1.5,2.1,3.6,2.1,6.3V252.1z"/>
</g>
<g>
	<path fill="#02ACC4" d="M50,305c-24.9,0-45,20.1-45,45c0,24.9,20.1,45,45,45s45-20.1,45-45C95,325.1,74.9,305,50,305z M18.5,348.8
		h-1.8v2h-1.2v-2h-1.8v-1.1h1.8v-2h1.2v2h1.8V348.8z M26.9,352.5l-0.2,1.2c-0.1,0-0.2,0-0.3,0c-0.1,0-0.2,0-0.2,0
		c-0.3,0-0.5-0.1-0.6-0.2c-0.1-0.1-0.2-0.3-0.2-0.5c0-0.1,0-0.2,0-0.3c0-0.1,0.1-0.3,0.1-0.5c-0.4,0.5-0.9,0.9-1.4,1.2
		c-0.6,0.3-1.1,0.4-1.7,0.4c-0.4,0-0.8-0.1-1.2-0.3s-0.6-0.4-0.9-0.7c-0.2-0.3-0.4-0.7-0.6-1.1c-0.1-0.4-0.2-0.8-0.2-1.3
		c0-0.6,0.1-1.3,0.4-1.9c0.2-0.6,0.6-1.1,1-1.6c0.4-0.5,0.9-0.8,1.4-1.1c0.5-0.3,1.1-0.4,1.7-0.4c0.6,0,1.1,0.2,1.5,0.5
		c0.4,0.3,0.7,0.7,0.9,1.2l1-4.8h1.3l-2,9.5c0,0,0,0.1,0,0.1c0,0,0,0.1,0,0.1C26.6,352.4,26.7,352.5,26.9,352.5z M30.2,351.4
		c0.1,0.3,0.2,0.5,0.4,0.8c0.2,0.2,0.4,0.4,0.6,0.5c0.2,0.1,0.5,0.2,0.9,0.2c0.5,0,0.9-0.1,1.4-0.4s0.8-0.6,1.1-1l1.1,0.3
		c-0.2,0.3-0.4,0.6-0.7,0.8c-0.3,0.2-0.6,0.5-0.9,0.6c-0.3,0.2-0.7,0.3-1,0.4c-0.4,0.1-0.7,0.2-1.1,0.2c-0.5,0-0.9-0.1-1.3-0.3
		c-0.4-0.2-0.7-0.4-1-0.7c-0.3-0.3-0.5-0.7-0.6-1.1c-0.1-0.4-0.2-0.8-0.2-1.3c0-0.6,0.1-1.3,0.4-1.9c0.2-0.6,0.6-1.1,1-1.6
		c0.4-0.5,1-0.8,1.5-1.1c0.6-0.3,1.2-0.4,1.9-0.4c0.8,0,1.4,0.2,1.9,0.5c0.5,0.4,0.7,0.9,0.7,1.6c0,0.8-0.4,1.4-1.1,1.8
		c-0.7,0.4-1.8,0.6-3.3,0.6c-0.2,0-0.5,0-0.8,0c-0.3,0-0.6,0-0.9-0.1c0,0.1,0,0.1,0,0.2s0,0.1,0,0.2
		C30.1,350.8,30.2,351.1,30.2,351.4z M56.3,338.9c0,4.6-1.6,7.6-4.8,9c1.7,0.7,3,1.9,3.7,3.5c0.7,1.6,1.1,3.5,1.1,5.7v3.4
		c0,3.5-0.9,6.2-2.6,8.1c-1.7,1.9-4.3,2.8-7.6,2.8c-3.4,0-5.9-0.9-7.6-2.8c-1.7-1.9-2.6-4.6-2.6-8.1v-3.6h6.5v4c0,1.6,0.3,2.7,1,3.3
		c0.6,0.6,1.5,1,2.6,1c1.1,0,1.9-0.3,2.6-1c0.6-0.7,1-2,1-3.9v-3.4c0-2-0.4-3.5-1.1-4.3c-0.7-0.8-1.8-1.2-3.4-1.2h-2.3v-6.2h2.7
		c1.3,0,2.3-0.3,3-1c0.7-0.7,1.1-1.9,1.1-3.6V338c0-2-0.3-3.3-1-4c-0.6-0.7-1.5-1-2.6-1c-1.1,0-1.9,0.3-2.6,1c-0.6,0.6-1,1.8-1,3.3
		v2.8h-6.5v-2.4c0-3.5,0.9-6.2,2.6-8.1c1.7-1.9,4.3-2.8,7.6-2.8c3.4,0,5.9,0.9,7.6,2.8c1.7,1.9,2.6,4.6,2.6,8.1V338.9z M79.6,360.4
		c0,3.5-0.9,6.2-2.7,8.1c-1.8,1.9-4.4,2.8-7.7,2.8c-3.4,0-5.9-0.9-7.7-2.8c-1.8-1.9-2.7-4.6-2.7-8.1v-22.7c0-3.5,0.9-6.2,2.7-8.1
		c1.8-1.9,4.4-2.8,7.7-2.8c3.4,0,5.9,0.9,7.7,2.8c1.8,1.9,2.7,4.6,2.7,8.1V360.4z"/>
	<path fill="#02ACC4" d="M31.9,349.3c0.6,0,1.1,0,1.5-0.1c0.4-0.1,0.7-0.2,1-0.3c0.2-0.1,0.4-0.3,0.5-0.5c0.1-0.2,0.2-0.4,0.2-0.6
		c0-0.4-0.1-0.7-0.4-0.9c-0.3-0.2-0.7-0.3-1.1-0.3c-0.4,0-0.8,0.1-1.2,0.2c-0.4,0.1-0.7,0.3-0.9,0.6c-0.3,0.2-0.5,0.5-0.7,0.8
		c-0.2,0.3-0.3,0.6-0.4,1c0.3,0,0.6,0.1,0.9,0.1C31.4,349.3,31.7,349.3,31.9,349.3z"/>
	<path fill="#02ACC4" d="M25.3,347.3c-0.2-0.2-0.4-0.3-0.6-0.4c-0.2-0.1-0.4-0.1-0.7-0.1c-0.4,0-0.8,0.1-1.2,0.3
		c-0.4,0.2-0.7,0.5-1,0.8c-0.3,0.3-0.5,0.7-0.7,1.2c-0.2,0.4-0.3,0.9-0.3,1.3c0,0.3,0,0.6,0.1,0.9c0.1,0.3,0.2,0.5,0.4,0.8
		c0.2,0.2,0.4,0.4,0.6,0.5c0.2,0.1,0.5,0.2,0.8,0.2c0.2,0,0.5,0,0.7-0.1c0.3-0.1,0.5-0.2,0.8-0.4c0.2-0.2,0.5-0.4,0.7-0.6
		c0.2-0.2,0.4-0.5,0.5-0.7l0.5-2.3c0-0.3-0.1-0.5-0.2-0.7C25.6,347.7,25.5,347.5,25.3,347.3z"/>
	<path fill="#02ACC4" d="M69.2,333c-1.1,0-1.9,0.3-2.6,1c-0.6,0.6-1,1.8-1,3.3v23.5c0,1.6,0.3,2.7,1,3.3c0.6,0.6,1.5,1,2.6,1
		c1.1,0,1.9-0.3,2.6-1c0.6-0.6,1-1.8,1-3.3v-23.5c0-1.6-0.3-2.7-1-3.3C71.1,333.4,70.2,333,69.2,333z"/>
</g>
</svg>
