<?xml version="1.0" encoding="utf-8"?>
<!-- Generator: Adobe Illustrator 23.0.3, SVG Export Plug-In . SVG Version: 6.00 Build 0)  -->
<svg version="1.0" id="Logo" xmlns="http://www.w3.org/2000/svg" xmlns:xlink="http://www.w3.org/1999/xlink" x="0px" y="0px"
	 viewBox="0 0 512 512" style="enable-background:new 0 0 512 512;" xml:space="preserve">
<style type="text/css">
	.st0{fill:#02ACC4;}
	.st1{fill:#FFFFFF;}
</style>
<circle class="st0" cx="256" cy="256" r="256"/>
<g>
	<path class="st1" d="M256,107.1c48.5,0,54.2,0.2,73.4,1.1c17.7,0.8,27.3,3.8,33.7,6.3c8.5,3.3,14.5,7.2,20.9,13.6
		c6.4,6.4,10.3,12.4,13.6,20.9c2.5,6.4,5.4,16,6.3,33.7c0.9,19.2,1.1,24.9,1.1,73.4s-0.2,54.2-1.1,73.4c-0.8,17.7-3.8,27.3-6.3,33.7
		c-3.3,8.5-7.2,14.5-13.6,20.9c-6.4,6.4-12.4,10.3-20.9,13.6c-6.4,2.5-16,5.4-33.7,6.3c-19.1,0.9-24.9,1.1-73.4,1.1
		s-54.2-0.2-73.4-1.1c-17.7-0.8-27.3-3.8-33.7-6.3c-8.5-3.3-14.5-7.2-20.9-13.6c-6.4-6.4-10.3-12.4-13.6-20.9
		c-2.5-6.4-5.4-16-6.3-33.7c-0.9-19.2-1.1-24.9-1.1-73.4s0.2-54.2,1.1-73.4c0.8-17.7,3.8-27.3,6.3-33.7c3.3-8.5,7.2-14.5,13.6-20.9
		c6.4-6.4,12.4-10.3,20.9-13.6c6.4-2.5,16-5.4,33.7-6.3C201.8,107.3,207.5,107.1,256,107.1 M256,74.4c-49.3,0-55.5,0.2-74.9,1.1
		c-19.3,0.9-32.5,4-44.1,8.4c-11.9,4.6-22.1,10.9-32.2,20.9C94.8,115,88.6,125.1,83.9,137c-4.5,11.6-7.6,24.8-8.4,44.1
		c-0.9,19.4-1.1,25.6-1.1,74.9c0,49.3,0.2,55.5,1.1,74.9c0.9,19.3,4,32.5,8.4,44.1c4.6,11.9,10.9,22.1,20.9,32.2
		c10.1,10.1,20.2,16.3,32.2,20.9c11.6,4.5,24.8,7.6,44.1,8.4c19.4,0.9,25.6,1.1,74.9,1.1s55.5-0.2,74.9-1.1
		c19.3-0.9,32.5-4,44.1-8.4c11.9-4.6,22.1-10.9,32.2-20.9c10.1-10.1,16.3-20.2,20.9-32.2c4.5-11.6,7.6-24.8,8.4-44.1
		c0.9-19.4,1.1-25.6,1.1-74.9s-0.2-55.5-1.1-74.9c-0.9-19.3-4-32.5-8.4-44.1c-4.6-11.9-10.9-22.1-20.9-32.2
		C397,94.8,386.9,88.6,375,83.9c-11.6-4.5-24.8-7.6-44.1-8.4C311.5,74.6,305.3,74.4,256,74.4L256,74.4z"/>
	<path class="st1" d="M256,162.7c-51.5,0-93.3,41.8-93.3,93.3s41.8,93.3,93.3,93.3s93.3-41.8,93.3-93.3S307.5,162.7,256,162.7z
		 M256,316.5c-33.4,0-60.5-27.1-60.5-60.5c0-33.4,27.1-60.5,60.5-60.5c33.4,0,60.5,27.1,60.5,60.5
		C316.5,289.4,289.4,316.5,256,316.5z"/>
	<circle class="st1" cx="352.9" cy="159.1" r="21.8"/>
</g>
</svg>
