<svg version="1" xmlns="http://www.w3.org/2000/svg" viewBox="0 0 100 401">
  <g fill="#00ADC5">
    <path d="M72.1 33.7c-1.1 0-1.9.3-2.6 1-.6.6-1 1.8-1 3.3v23.5c0 1.6.3 2.7 1 3.3.6.6 1.5 1 2.6 1s1.9-.3 2.6-1c.6-.6 1-1.8 1-3.3V38c0-1.6-.3-2.7-1-3.3-.6-.7-1.5-1-2.6-1zM25.5 49.1c-.2-.2-.4-.3-.6-.4-.2-.1-.4-.1-.7-.1-.4 0-.8.1-1.2.3-.4.2-.7.5-1 .8-.3.3-.5.7-.7 1.2-.2.4-.3.9-.3 1.3 0 .3 0 .6.1.9.1.3.2.5.4.8.2.2.4.4.6.5.2.1.5.2.8.2.2 0 .5 0 .7-.1.3-.1.5-.2.8-.4.2-.2.5-.4.7-.6.2-.2.4-.5.5-.7l.5-2.3c0-.3-.1-.5-.2-.7-.1-.4-.2-.6-.4-.7zm9.3-.5c-.3-.2-.7-.3-1.1-.3-.4 0-.8.1-1.2.2s-.7.3-.9.6c-.3.2-.5.5-.7.8-.2.3-.3.6-.4 1 .3 0 .6.1.9.1h.8c.6 0 1.1 0 1.5-.1.4-.1.7-.2 1-.3.2-.1.4-.3.5-.5s.2-.4.2-.6c-.2-.4-.3-.7-.6-.9z"/>
    <path d="M50 5.6c-24.9 0-45 20.1-45 45s20.1 45 45 45 45-20.1 45-45-20.1-45-45-45zm-31.3 45h-1.8v2h-1.2v-2h-1.8v-1.1h1.8v-2h1.2v2h1.8v1.1zm8.4 3.7l-.2 1.2h-.5c-.3 0-.5-.1-.7-.2-.1-.1-.2-.3-.2-.5v-.3c0-.1.1-.3.1-.5-.4.5-.9.9-1.4 1.2-.6.3-1.1.4-1.7.4-.4 0-.8-.1-1.2-.3-.4-.2-.6-.4-.9-.7-.2-.3-.4-.7-.6-1.1-.1-.4-.2-.8-.2-1.3 0-.6.1-1.3.4-1.9.2-.6.6-1.1 1-1.6s.9-.8 1.4-1.1c.5-.3 1.1-.4 1.7-.4.6 0 1.1.2 1.5.5.4.3.7.7.9 1.2l1-4.8h1.3l-2 9.5v.2c0 .4.1.5.3.5zm8.2-3c-.7.5-1.8.7-3.3.7h-.8c-.3 0-.6 0-.9-.1v.4c0 .3 0 .6.1.9.1.3.2.5.4.8.2.2.4.4.6.5.2.1.5.2.9.2.5 0 .9-.1 1.4-.4.4-.2.8-.6 1.1-1l1.1.3c-.2.3-.4.6-.7.8-.3.2-.6.5-.9.6-.3.2-.7.3-1 .4-.4.1-.7.2-1.1.2-.5 0-.9-.1-1.3-.3-.4-.2-.7-.4-1-.7-.3-.3-.5-.7-.6-1.1-.1-.4-.2-.8-.2-1.3 0-.6.1-1.3.4-1.9.2-.6.6-1.1 1-1.6s1-.8 1.5-1.1c.6-.3 1.2-.4 1.9-.4.8 0 1.4.2 1.9.5.5.4.7.9.7 1.6-.1 1-.4 1.6-1.2 2zm24 9.8c0 3.5-.9 6.2-2.6 8.1-1.7 1.9-4.2 2.8-7.6 2.8-3.4 0-5.9-.9-7.6-2.8-1.7-1.9-2.6-4.6-2.6-8.1v-3.6h6.5v4c0 1.6.3 2.7 1 3.3.6.6 1.5.9 2.6.9s1.9-.3 2.6-.9c.6-.6 1-1.7 1-3.3v-9.6c0-1.6-.3-2.7-1-3.3-.6-.6-1.5-1-2.6-1s-1.9.3-2.6 1c-.6.6-1 1.8-1 3.3v1.3h-6.5L40.1 28h18.1v6.2H46.3l-.6 10.4c1.3-2.1 3.3-3.2 6-3.2 2.5 0 4.4.9 5.7 2.6 1.3 1.7 1.9 4.2 1.9 7.4v9.7zm20.5 8.1C78 71.1 75.4 72 72.1 72c-3.4 0-5.9-.9-7.7-2.8-1.8-1.9-2.7-4.6-2.7-8.1V38.4c0-3.5.9-6.2 2.7-8.1 1.8-1.9 4.4-2.8 7.7-2.8 3.4 0 5.9.9 7.7 2.8 1.8 1.9 2.7 4.6 2.7 8.1v22.7c0 3.5-.9 6.2-2.7 8.1z"/>
  </g>
  <g fill="#00ADC5">
    <path d="M60.8 136.8c-.8 0-1.5.2-2 .7-.5.5-.7 1.4-.7 2.6v18.2c0 1.2.2 2.1.7 2.6.5.5 1.2.7 2 .7s1.5-.2 2-.7c.5-.5.7-1.4.7-2.6v-18.2c0-1.2-.2-2.1-.7-2.6-.5-.4-1.2-.7-2-.7zm17.9 0c-.8 0-1.5.2-2 .7-.5.5-.7 1.4-.7 2.6v18.2c0 1.2.2 2.1.7 2.6.5.5 1.2.7 2 .7s1.5-.2 2-.7c.5-.5.7-1.4.7-2.6v-18.2c0-1.2-.3-2.1-.7-2.6-.5-.4-1.2-.7-2-.7z"/>
    <path d="M50 104.6c-24.9 0-45 20.1-45 45s20.1 45 45 45 45-20.1 45-45c0-24.8-20.1-45-45-45zm-27.7 61.6H17v-25.8h-4.1v-3.8c1 0 1.9-.1 2.5-.3.7-.2 1.2-.5 1.6-.9.4-.4.8-.8 1-1.4.3-.5.5-1.1.7-1.6h3.6v33.8zm10.3 0h-5.1v-5.1h5.1v5.1zm8-4.9h10v4.8H35.3V162c0-1.6.3-3.1.8-4.3.5-1.3 1.2-2.4 2-3.5.8-1 1.6-2 2.5-2.9.9-.9 1.7-1.9 2.5-2.9s1.4-2.2 2-3.4c.5-1.2.8-2.7.8-4.3 0-1.5-.2-2.5-.7-3.1-.5-.5-1.2-.8-2-.8s-1.5.2-2 .7c-.5.5-.7 1.4-.7 2.6v3.6h-5v-3.3c0-2.7.7-4.8 2-6.3s3.3-2.2 5.9-2.2 4.6.7 5.9 2.2c1.3 1.5 2 3.6 2 6.3 0 1.8-.3 3.4-.8 4.8s-1.2 2.7-2 3.9c-.8 1.2-1.6 2.3-2.6 3.3-.9 1-1.8 1.9-2.6 2.8-.8.9-1.4 1.8-2 2.6-.5.9-.8 1.7-.8 2.7 0 .4 0 .7.1.8zm28.3-3.2c0 2.7-.7 4.8-2.1 6.3-1.4 1.5-3.4 2.2-6 2.2s-4.6-.7-6-2.2c-1.4-1.5-2.1-3.6-2.1-6.3v-17.6c0-2.7.7-4.8 2.1-6.3 1.4-1.5 3.4-2.2 6-2.2s4.6.7 6 2.2c1.4 1.5 2.1 3.6 2.1 6.3v17.6zm15.8 6.3c-1.4 1.5-3.4 2.2-6 2.2s-4.6-.7-6-2.2c-1.4-1.5-2.1-3.6-2.1-6.3v-17.6c0-2.7.7-4.8 2.1-6.3 1.4-1.5 3.4-2.2 6-2.2s4.6.7 6 2.2c1.4 1.5 2.1 3.6 2.1 6.3v17.6c0 2.7-.7 4.8-2.1 6.3z"/>
  </g>
  <g fill="#00ADC5">
    <path d="M51.5 256.8c.8 0 1.5-.2 2-.7.5-.5.7-1.4.7-2.6v-18.2c0-1.2-.3-2.1-.7-2.6-.5-.5-1.2-.7-2-.7s-1.5.2-2 .7c-.5.5-.7 1.4-.7 2.6v18.2c0 1.2.2 2.1.7 2.6.5.5 1.2.7 2 .7zm17.9-24.9c-.8 0-1.5.2-2 .7-.5.5-.7 1.4-.7 2.6v18.2c0 1.2.2 2.1.7 2.6.5.5 1.2.7 2 .7s1.5-.2 2-.7c.5-.5.7-1.4.7-2.6v-18.2c0-1.2-.3-2.1-.7-2.6-.4-.4-1.1-.7-2-.7z"/>
    <path d="M50 206c-24.9 0-45 20.1-45 45s20.1 45 45 45 45-20.1 45-45-20.1-45-45-45zm-6.5 29.6c0-2.7.7-4.8 2.1-6.3 1.4-1.5 3.4-2.2 6-2.2s4.6.7 6 2.2c1.4 1.5 2.1 3.6 2.1 6.3v17.6c0 2.7-.7 4.8-2.1 6.3-1.4 1.5-3.4 2.2-6 2.2s-4.6-.7-6-2.2c-1.4-1.5-2.1-3.6-2.1-6.3v-17.6zm-9.8 26c-2.6 0-4.6-.7-5.9-2.2-1.3-1.5-2-3.6-2-6.3v-2.8h5v3.1c0 1.2.2 2.1.7 2.6.5.5 1.2.7 2 .7s1.5-.2 2-.7c.5-.5.7-1.3.7-2.6V246c0-1.2-.3-2.1-.7-2.6-.5-.5-1.2-.7-2-.7s-1.5.3-2 .7c-.5.5-.7 1.4-.7 2.6v1h-5l1-19.6h14v4.8h-9.2l-.4 8.1c1-1.6 2.5-2.5 4.6-2.5 2 0 3.4.7 4.4 2 1 1.3 1.5 3.2 1.5 5.7v7.5c0 2.7-.7 4.8-2 6.3-1.4 1.6-3.4 2.3-6 2.3zm18.8 9.1l-1 4.8h-1.3l.8-4.5c.1-.4.1-.8.1-1.1 0-.9-.4-1.3-1.1-1.3-.3 0-.5.1-.8.2-.3.1-.5.2-.7.4-.2.2-.5.4-.7.7-.2.3-.4.5-.5.8l-1 4.8H45l1-4.5c.1-.4.1-.8.1-1.1 0-.9-.4-1.3-1.1-1.3-.5 0-1 .2-1.5.6-.5.4-.9.9-1.2 1.5l-1 4.8H40l1.7-8h1.2l-.4 1.7c.4-.6.9-1 1.5-1.4.6-.3 1.2-.5 1.7-.5.6 0 1 .2 1.4.5.3.3.5.8.5 1.4.5-.6 1-1.1 1.5-1.5.6-.3 1.1-.5 1.7-.5.7 0 1.1.2 1.4.5.3.4.4.8.4 1.4 0 .6 0 1.1-.1 1.6zm2.3 4.8h-1.3l1.7-8h1.3l-1.7 8zm2-9.5h-1.3l.4-1.7h1.3l-.4 1.7zm2.6 8.4c.1 0 .2 0 .4-.1.2 0 .3-.1.4-.1v1.1c-.2.1-.5.2-.8.2-.3.1-.6.1-.8.1-.4 0-.8-.1-1-.3-.2-.2-.3-.5-.3-.9v-.4l2-9.6h1.3l-1.9 9.1v.2c0 .5.2.7.7.7zm18.1-21.3c0 2.7-.7 4.8-2.1 6.3-1.4 1.5-3.4 2.2-6 2.2s-4.6-.7-6-2.2c-1.4-1.5-2.1-3.6-2.1-6.3v-17.6c0-2.7.7-4.8 2.1-6.3 1.4-1.5 3.4-2.2 6-2.2s4.6.7 6 2.2c1.4 1.5 2.1 3.6 2.1 6.3v17.6z"/>
  </g>
  <g fill="#00ADC5">
    <path d="M50 306c-24.9 0-45 20.1-45 45s20.1 45 45 45 45-20.1 45-45-20.1-45-45-45zm-31.5 43.8h-1.8v2h-1.2v-2h-1.8v-1.1h1.8v-2h1.2v2h1.8v1.1zm8.4 3.7l-.2 1.2h-.5c-.3 0-.5-.1-.6-.2-.1-.1-.2-.3-.2-.5v-.3c0-.1.1-.3.1-.5-.4.5-.9.9-1.4 1.2-.6.3-1.1.4-1.7.4-.4 0-.8-.1-1.2-.3s-.6-.4-.9-.7c-.2-.3-.4-.7-.6-1.1-.1-.4-.2-.8-.2-1.3 0-.6.1-1.3.4-1.9.2-.6.6-1.1 1-1.6s.9-.8 1.4-1.1c.5-.3 1.1-.4 1.7-.4.6 0 1.1.2 1.5.5.4.3.7.7.9 1.2l1-4.8h1.3l-2 9.5v.2c-.1.4 0 .5.2.5zm3.3-1.1c.1.3.2.5.4.8.2.2.4.4.6.5.2.1.5.2.9.2.5 0 .9-.1 1.4-.4s.8-.6 1.1-1l1.1.3c-.2.3-.4.6-.7.8-.3.2-.6.5-.9.6-.3.2-.7.3-1 .4-.4.1-.7.2-1.1.2-.5 0-.9-.1-1.3-.3-.4-.2-.7-.4-1-.7-.3-.3-.5-.7-.6-1.1-.1-.4-.2-.8-.2-1.3 0-.6.1-1.3.4-1.9.2-.6.6-1.1 1-1.6s1-.8 1.5-1.1c.6-.3 1.2-.4 1.9-.4.8 0 1.4.2 1.9.5.5.4.7.9.7 1.6 0 .8-.4 1.4-1.1 1.8-.7.4-1.8.6-3.3.6h-.8c-.3 0-.6 0-.9-.1v.4c-.1.6 0 .9 0 1.2zm26.1-12.5c0 4.6-1.6 7.6-4.8 9 1.7.7 3 1.9 3.7 3.5.7 1.6 1.1 3.5 1.1 5.7v3.4c0 3.5-.9 6.2-2.6 8.1-1.7 1.9-4.3 2.8-7.6 2.8-3.4 0-5.9-.9-7.6-2.8-1.7-1.9-2.6-4.6-2.6-8.1v-3.6h6.5v4c0 1.6.3 2.7 1 3.3.6.6 1.5 1 2.6 1s1.9-.3 2.6-1c.6-.7 1-2 1-3.9v-3.4c0-2-.4-3.5-1.1-4.3-.7-.8-1.8-1.2-3.4-1.2h-2.3v-6.2h2.7c1.3 0 2.3-.3 3-1 .7-.7 1.1-1.9 1.1-3.6V339c0-2-.3-3.3-1-4-.6-.7-1.5-1-2.6-1s-1.9.3-2.6 1c-.6.6-1 1.8-1 3.3v2.8h-6.5v-2.4c0-3.5.9-6.2 2.6-8.1 1.7-1.9 4.3-2.8 7.6-2.8 3.4 0 5.9.9 7.6 2.8 1.7 1.9 2.6 4.6 2.6 8.1v1.2zm23.3 21.5c0 3.5-.9 6.2-2.7 8.1-1.8 1.9-4.4 2.8-7.7 2.8-3.4 0-5.9-.9-7.7-2.8-1.8-1.9-2.7-4.6-2.7-8.1v-22.7c0-3.5.9-6.2 2.7-8.1 1.8-1.9 4.4-2.8 7.7-2.8 3.4 0 5.9.9 7.7 2.8 1.8 1.9 2.7 4.6 2.7 8.1v22.7z"/>
    <path d="M31.9 350.3c.6 0 1.1 0 1.5-.1.4-.1.7-.2 1-.3.2-.1.4-.3.5-.5.1-.2.2-.4.2-.6 0-.4-.1-.7-.4-.9-.3-.2-.7-.3-1.1-.3-.4 0-.8.1-1.2.2-.4.1-.7.3-.9.6-.3.2-.5.5-.7.8-.2.3-.3.6-.4 1 .3 0 .6.1.9.1h.6zm-6.6-2c-.2-.2-.4-.3-.6-.4-.2-.1-.4-.1-.7-.1-.4 0-.8.1-1.2.3-.4.2-.7.5-1 .8-.3.3-.5.7-.7 1.2-.2.4-.3.9-.3 1.3 0 .3 0 .6.1.9.1.3.2.5.4.8.2.2.4.4.6.5.2.1.5.2.8.2.2 0 .5 0 .7-.1.3-.1.5-.2.8-.4.2-.2.5-.4.7-.6.2-.2.4-.5.5-.7l.5-2.3c0-.3-.1-.5-.2-.7-.1-.3-.2-.5-.4-.7zM69.2 334c-1.1 0-1.9.3-2.6 1-.6.6-1 1.8-1 3.3v23.5c0 1.6.3 2.7 1 3.3.6.6 1.5 1 2.6 1s1.9-.3 2.6-1c.6-.6 1-1.8 1-3.3v-23.5c0-1.6-.3-2.7-1-3.3-.7-.6-1.6-1-2.6-1z"/>
  </g>
</svg>
