<svg id="Layer_1" xmlns="http://www.w3.org/2000/svg" viewBox="0 0 100 700">
  <style>
    .st0{fill:#fff}.st3{fill:#545150}.st4{fill:#08090c}.st10{fill:#f6f30d}.st11{fill:#bd0026}.st12{fill:#b4b3b2}.st13{fill:#8ec3ee}.st13,.st14,.st15,.st18{fill-rule:evenodd;clip-rule:evenodd}.st14{fill:#fff}.st15{fill:#484241}.st18{fill:#fff;stroke:#fff;stroke-width:.1522;stroke-linecap:round;stroke-linejoin:round}.st19{fill:#383c42}.st19,.st20,.st22,.st23,.st24{fill-rule:evenodd;clip-rule:evenodd}.st20{fill:#c54d40}.st22{fill:#88b2e1}.st23{fill:#e7f1fb}.st24{fill:#d1e6f8}.st29{fill:#a90035}.st30{fill:#06080b}.st31,.st32{fill-rule:evenodd;clip-rule:evenodd;fill:#363e74}.st32{fill:#c2303a}
  </style>
  <path class="st0" d="M-.3 299.7h100v100H-.3zm0 100h100v100H-.3zm0 100.1h100v100H-.3zM-.3-.4h100v100H-.3zm0 100h100v100H-.3zm0 100.1h100v100H-.3z"/>
  <path d="M28.1 341.2c-6.4 0-11.6 5.2-11.6 11.6s5.2 11.6 11.6 11.6 11.6-5.2 11.6-11.6c-.1-6.5-5.2-11.6-11.6-11.6m-.4 8.9c.1 1.2 1.3 1.6 2.7 1.9 2.4.6 4.8 1.2 5.4 2.9.6 1.8-.3 3.2-1 3.9-1.6 1.7-3.8 2.8-6.3 2.8-1.3 0-2.5-.3-3.6-.8 1.6.5 2.9 0 2.9-1.3s-1.3-1.5-2.4-2c-9.5-3.3-5-13.9 3.2-13.5 3.5.2 6 2 7.4 4.7l-1.8 1.9c-2.7-2.7-6.6-2.6-6.5-.5" fill="#80b942"/>
  <path d="M45.3 353.1c1.9 2.1 4.7 2.2 4.7.6 0-.9-.9-1.2-1.9-1.5-2.5-.8-4.2-1.5-4.2-4 0-2.3 2.1-3.9 4.5-3.9 2.2 0 3.4.5 5.1 1.5l-1.7 2.7c-2.5-1.8-4.1-1.6-4.3-.3-.1.9 1.2 1.1 2.7 1.6 1.8.5 3.5 1.7 3.5 3.9 0 2-2.1 4-4.7 4-2.3 0-4.5-.7-6-2.3l2.3-2.3zm24.5-2c0 3.7-3.1 6.7-7 6.7s-7-3-7-6.7 3.1-6.7 7-6.7 7 3 7 6.7m-3.7 0c0-.9-.3-1.8-.9-2.4-.6-.7-1.4-1-2.4-1-.9 0-1.7.4-2.3 1-.7.6-1 1.5-1 2.4s.3 1.8 1 2.5c.6.6 1.4 1 2.3 1 .9 0 1.7-.4 2.4-1 .6-.7.9-1.6.9-2.5m8.4 2c1.9 2.1 4.7 2.2 4.7.6 0-.9-.9-1.2-1.9-1.5-2.5-.8-4.2-1.5-4.2-4 0-2.3 2.1-3.9 4.5-3.9 2.2 0 3.4.5 5.1 1.5l-1.7 2.7c-2.5-1.8-4.1-1.6-4.3-.3-.1.9 1.2 1.1 2.7 1.6 1.8.5 3.5 1.7 3.5 3.9 0 2-2.1 4-4.7 4-2.3 0-4.5-.7-6-2.3l2.3-2.3zm-18.4 3.3c0 .5-.4 1-1 1-.5 0-1-.4-1-1 0-.5.4-1 1-1 .5 0 1 .5 1 1m15.1 0c0 .5-.4 1-1 1-.5 0-1-.4-1-1 0-.5.4-1 1-1 .5 0 1 .5 1 1" fill="#7fb83d"/>
  <path class="st3" d="M43.9 363c.1 0 .2 0 .2-.1l.1.2c-.1.1-.2.1-.3.1-.3 0-.5-.2-.5-.6V361H43v-.2h.4v-.7h.2v.7h.6v.2h-.6v1.6c0 .2.1.4.3.4m1.2-.1c.1 0 .2.1.4.1.3 0 .5-.1.7-.3l.1.2c-.3.2-.5.3-.8.3s-.6-.1-.7-.3c-.2-.2-.3-.5-.3-.9s.1-.7.3-.9c.2-.2.4-.4.8-.4.5 0 .7.3.8.7 0 .1.1.3.1.5v.1h-1.7c-.2.4-.1.8.3.9m-.4-1.5c0 .1-.1.2-.1.4h1.5c0-.4-.1-.7-.4-.8-.1 0-.2-.1-.3-.1-.4 0-.6.2-.7.5m3 1.8c-.6 0-.9-.3-1-.7-.1-.2-.1-.3-.1-.5 0-.6.3-1 .7-1.2.1-.1.3-.1.5-.1.3 0 .5.1.6.2l-.1.2c-.1-.1-.3-.2-.5-.2-.5 0-.7.3-.8.6 0 .1-.1.3-.1.4 0 .5.2.8.5 1 .1 0 .2.1.4.1s.4-.1.6-.2l.1.2c-.3.1-.6.2-.8.2m2.6-.1h-.2v-1.4c0-.5-.2-.8-.6-.8-.3 0-.5.2-.7.5v1.7h-.2v-2.4h.2v.4c.1-.2.2-.3.3-.3.1-.1.3-.1.4-.1.2 0 .4.1.5.2.1.2.3.4.3.7v1.5zm.5-.6c-.1-.2-.1-.3-.1-.5 0-.6.3-1 .7-1.2.1-.1.3-.1.5-.1.6 0 .9.3 1 .7.1.2.1.3.1.5 0 .6-.3 1-.7 1.1-.1.1-.3.1-.5.1-.5.1-.9-.2-1-.6m1-1.6c-.5 0-.7.3-.9.6 0 .1-.1.3-.1.4 0 .5.2.8.5 1 .1 0 .2.1.4.1.5 0 .7-.2.8-.6 0-.1.1-.3.1-.4.1-.7-.2-1.1-.8-1.1m1.4-1.3h.2v3.5h-.2zm.6 2.9c-.1-.2-.1-.3-.1-.5 0-.6.3-1 .7-1.2.1-.1.3-.1.5-.1.6 0 .9.3 1 .7.1.2.1.3.1.5 0 .6-.3 1-.7 1.1-.1.1-.3.1-.5.1-.5.1-.8-.2-1-.6m1.1-1.6c-.5 0-.7.3-.9.6 0 .1-.1.3-.1.4 0 .5.2.8.5 1 .1 0 .2.1.4.1.5 0 .7-.2.8-.6 0-.1.1-.3.1-.4 0-.7-.2-1.1-.8-1.1m2.7 3.3c-.2.1-.3.1-.5.1s-.5-.1-.7-.2l.1-.2c.2.1.3.2.6.2.7 0 1-.3 1-1v-.3c-.2.3-.5.5-.9.5-.3 0-.6-.1-.7-.3-.2-.2-.3-.5-.3-.9 0-.6.2-1 .6-1.2.1-.1.3-.1.4-.1.3 0 .6.1.8.4v-.4h.2v2.2c0 .6-.2 1-.6 1.2m-1-3c-.1.2-.2.4-.2.8 0 .5.2.8.5 1 .1 0 .2.1.3.1.4 0 .6-.2.8-.5v-1.1c-.2-.3-.5-.5-.8-.5-.2-.1-.4 0-.6.2m2.2-1c-.2 0-.2-.2-.1-.3h.1c.1 0 .2.1.2.2 0 0-.1.1-.2.1m-.1.6h.2v2.4h-.2v-2.4zm2.4.8v1.5h-.2v-.4l-.3.3c-.1.1-.3.1-.5.1-.3 0-.6-.2-.7-.4 0-.1-.1-.2-.1-.3 0-.5.4-.7.9-.8h.6v-.2c0-.5-.2-.7-.6-.7-.3 0-.5.1-.7.3l-.1-.1c.2-.2.5-.3.9-.3.6.1.8.5.8 1m-1.2 1.4h.2c.2 0 .4-.1.6-.2.1-.1.2-.2.2-.3v-.5c-.2 0-.6-.1-.8 0-.2 0-.3.1-.4.3 0 .1-.1.2-.1.3 0 .2.1.3.3.4m3.1-.1c.1 0 .2.1.4.1.3 0 .5-.1.7-.3l.1.2c-.3.2-.5.3-.8.3s-.6-.1-.7-.3c-.2-.2-.3-.5-.3-.9s.1-.7.3-.9c.2-.2.4-.4.8-.4.5 0 .7.3.8.7 0 .1.1.3.1.5v.1h-1.7c-.2.4-.1.8.3.9m-.4-1.5c0 .1-.1.2-.1.4H64c0-.4-.1-.7-.4-.8-.1 0-.2-.1-.3-.1-.4 0-.6.2-.7.5m3.9 1.5c.1 0 .2.1.4.1.3 0 .5-.1.7-.3l.1.2c-.3.2-.5.3-.8.3s-.6-.1-.7-.3c-.2-.2-.3-.5-.3-.9s.1-.7.3-.9c.2-.2.4-.4.8-.4.5 0 .7.3.9.7 0 .1.1.3.1.5v.1h-2c0 .4.1.8.5.9m-.4-1.5c0 .1-.1.2-.1.4h1.5c0-.4-.1-.7-.4-.8-.1 0-.2-.1-.3-.1-.4 0-.6.2-.7.5"/>
  <path class="st3" d="M68.1 362.9c-.2-.2-.3-.5-.3-.9s.1-.7.3-.9c.2-.2.4-.4.8-.3.3 0 .4.1.6.2.1.1.2.2.2.3v-1.6h.2v3.5h-.2v-.4c-.2.3-.4.5-.8.5-.3-.1-.6-.2-.8-.4m.8-2c-.3 0-.5.1-.6.3-.2.2-.3.4-.3.7 0 .5.2.8.5 1 .2.1.4.1.6 0 .3-.1.4-.3.5-.4v-1.1c-.1-.2-.3-.5-.7-.5m2.2 2.1c.3 0 .5-.2.7-.5v-1.7h.2v2.4h-.2v-.4c-.2.3-.5.5-.7.5-.6 0-.9-.4-.9-1.1v-1.4h.2v1.3c0 .5.2.9.7.9m2.3.2c-.6 0-.9-.3-1-.7-.1-.2-.1-.3-.1-.5 0-.6.2-1 .7-1.2.1-.1.3-.1.5-.1.3 0 .5.1.6.2l-.1.2c-.1-.1-.3-.2-.5-.2-.5 0-.7.3-.9.6 0 .1-.1.3-.1.4 0 .5.2.8.5 1 .1 0 .2.1.4.1s.4-.1.6-.2l.1.2c-.2.1-.4.2-.7.2m2.7-1.6v1.5h-.2v-.4l-.3.3c-.1.1-.3.1-.5.1-.3 0-.6-.2-.7-.4 0-.1-.1-.2-.1-.3 0-.5.4-.7.9-.8h.6v-.2c0-.5-.2-.7-.6-.7-.3 0-.5.1-.7.3l-.1-.1c.2-.2.5-.3.9-.3.6.1.8.5.8 1m-1.2 1.4h.2c.2 0 .4-.1.6-.2.1-.1.2-.2.2-.3v-.5c-.2 0-.6-.1-.8 0-.2 0-.3.1-.4.3 0 .1-.1.2-.1.3 0 .2.1.3.3.4m2.6.2c-.6 0-.9-.3-1-.7-.1-.2-.1-.3-.1-.5 0-.6.3-1 .7-1.2.1-.1.3-.1.5-.1.3 0 .5.1.6.2l-.1.2c-.1-.1-.3-.2-.5-.2-.5 0-.7.3-.8.6 0 .1-.1.3-.1.4 0 .5.2.8.5 1 .1 0 .2.1.4.1s.4-.1.6-.2l.1.2c-.3.1-.5.2-.8.2m-.3.9v-.1h.2c.2 0 .4-.1.4-.2s-.1-.2-.3-.2h-.2v-.4h.2v.3c.3 0 .5.1.5.3 0 .3-.2.4-.6.4-.1-.1-.2-.1-.2-.1m3-2.5v1.5H80v-.4l-.3.3c-.1.1-.3.1-.5.1-.3 0-.6-.2-.7-.4 0-.1-.1-.2-.1-.3 0-.5.4-.7.9-.8h.6v-.2c0-.5-.2-.7-.6-.7-.3 0-.5.1-.7.3l-.1-.1c.2-.2.5-.3.9-.3.6.1.8.5.8 1M79 363h.2c.2 0 .4-.1.6-.2.1-.1.2-.2.2-.3v-.5c-.2 0-.6-.1-.8 0-.2 0-.3.1-.4.3 0 .1-.1.2-.1.3 0 .2.1.3.3.4m1.1-3.1h.2c0 .3-.1.5-.4.5-.1 0-.2-.1-.3-.2-.1-.1-.2-.1-.3-.1-.2 0-.2.1-.2.3h-.2c0-.2.1-.4.2-.5h.2c.1 0 .2.1.4.2.1 0 .1.1.1.1h.1c.1 0 .2-.2.2-.3m.5 2.6c-.1-.2-.1-.3-.1-.5 0-.6.3-1 .7-1.2.1-.1.3-.1.5-.1.6 0 .9.3 1 .7.1.2.1.3.1.5 0 .6-.2 1-.7 1.1-.1.1-.3.1-.5.1-.6.1-.9-.2-1-.6m1-1.6c-.5 0-.7.3-.9.6 0 .1-.1.3-.1.4 0 .5.2.8.5 1 .1 0 .2.1.4.1.5 0 .7-.2.8-.6 0-.1.1-.3.1-.4.1-.7-.2-1.1-.8-1.1"/>
  <path class="st4" d="M19.5 464.6h-.3v-.4h1.3c.5 0 .9.4.9.9 0 .6-.4.9-.9.9H20v1h-.5v-2.4zm1 1c.3 0 .5-.2.5-.5s-.2-.5-.5-.5h-.4v1h.4zm1.7-1h-.3v-.4h1.3c.5 0 .9.3.9.9 0 .5-.4.7-.5.8 0 0 .1 0 .1.1l.3.6c0 .1.1.1.2.1h.1v.4H24c-.2 0-.3 0-.4-.2l-.4-.7c-.1-.1-.1-.1-.3-.1h-.3v1.1h-.5l.1-2.6zm.9.9c.3 0 .4-.2.4-.5s-.2-.4-.4-.4h-.4v.9h.4zm3-1.4c.8 0 1.5.6 1.5 1.5 0 .8-.6 1.5-1.5 1.5-.8 0-1.5-.7-1.5-1.5 0-.9.7-1.5 1.5-1.5zm0 2.4c.5 0 .9-.4.9-1 0-.5-.4-1-.9-1s-.9.4-.9 1 .4 1 .9 1zm3.4-2.4c.7 0 1 .4 1 .4l-.3.4s-.3-.3-.7-.3c-.5 0-.9.4-.9 1s.4 1 .9 1 .7-.3.7-.3v-.3c0-.1 0-.1-.1-.1H30v-.4h.5c.2 0 .3.1.3.3v1.2h-.5v-.2s-.3.3-.8.3c-.7 0-1.4-.6-1.4-1.5-.1-.9.6-1.5 1.4-1.5zm2 .5h-.3v-.4h1.3c.5 0 .9.3.9.9 0 .5-.4.7-.5.8 0 0 .1 0 .1.1l.3.6c0 .1.1.1.2.1h.1v.4h-.3c-.2 0-.3 0-.4-.2l-.4-.7c-.1-.1-.1-.1-.3-.1H32v1.1h-.5v-2.6zm.9.9c.3 0 .4-.2.4-.5s-.2-.4-.4-.4H32v.9h.4zm1.5 1c.1 0 .2 0 .2-.1l.8-2.3h.6l.8 2.3c0 .1.1.1.1.1h.1v.4h-.3c-.2 0-.3-.1-.3-.2l-.2-.5h-1l-.2.5c-.1.2-.1.2-.3.2h-.3v-.4zm1.7-.7l-.2-.7c-.1-.2-.1-.4-.1-.4s-.1.3-.1.4l-.2.7h.6zm1.2.7h.2c.1 0 .1 0 .1-.1l.2-2.3h.5l.6 1.4c.1.2.1.4.1.4s.1-.2.1-.4l.6-1.4h.5l.2 2.3c0 .1 0 .1.1.1h.1v.4h-.5c-.2 0-.3-.1-.3-.3l-.1-1.3v-.4s-.1.3-.2.4l-.5 1.1h-.4l-.5-1.1-.2-.4v.4l-.1 1.3c0 .2-.1.3-.3.3h-.5v-.4h.3zm3.7 0c.1 0 .2 0 .2-.1l.8-2.3h.6l.8 2.3c0 .1.1.1.1.1h.1v.4h-.3c-.2 0-.3-.1-.3-.2l-.2-.5h-1l-.2.5c-.1.2-.1.2-.3.2h-.3v-.4zm1.7-.7l-.2-.7c-.1-.2-.1-.4-.1-.4s-.1.3-.1.4l-.2.7h.6zm1.6.4s.3.3.7.3c.2 0 .4-.1.4-.3 0-.5-1.3-.4-1.3-1.3 0-.5.4-.8 1-.8.3 0 .8.2.8.6v.3h-.5v-.1c0-.1-.2-.2-.4-.2s-.4.1-.4.3c0 .5 1.3.4 1.3 1.3 0 .5-.4.8-1 .8s-1-.4-1-.4l.4-.5zm3.7-1.6h-.3v-.4h1.7c.2 0 .3.1.3.3v.4h-.5v-.2c0-.1 0-.1-.1-.1H48v.7h.9v.4H48v.7c0 .1 0 .1.1.1h.7c.1 0 .1 0 .1-.1v-.2h.5v.4c0 .2-.1.3-.3.3h-1.3c-.2 0-.3-.1-.3-.3v-2zm2.5 0h-.3v-.4h1.2c.9 0 1.5.5 1.5 1.4s-.6 1.4-1.5 1.4h-.6c-.2 0-.3-.1-.3-.3v-2.1zm.6 1.9h.3c.6 0 .9-.3.9-1 0-.6-.4-1-.9-1h-.3v2c-.1 0 0 0 0 0zm2.4-1.8c0-.1 0-.1 0 0l-.3-.1v-.4h.5c.2 0 .3.1.3.3v1.6c0 .4.2.6.6.6.4 0 .6-.2.6-.6v-1.5c0-.2.1-.3.3-.3h.5v.4h-.2c-.1 0-.1 0-.1.1v1.3c0 .6-.4 1.1-1.1 1.1-.7 0-1.1-.4-1.1-1.1v-1.4zm4.4-.6c.4 0 1.1.2 1.1.6v.3H58v-.2c0-.2-.3-.3-.6-.3-.5 0-.9.4-.9 1s.4 1 .9 1 .9-.4.9-.4l.3.4s-.4.5-1.2.5c-.9 0-1.5-.7-1.5-1.5.1-.8.7-1.4 1.5-1.4zm1.6 2.4c.1 0 .2 0 .2-.1l.8-2.3h.6l.8 2.3c0 .1.1.1.1.1h.1v.4h-.3c-.2 0-.3-.1-.3-.2l-.2-.5h-1l-.2.5c-.1.2-.1.2-.3.2H59v-.4zm1.6-.7l-.2-.7c-.1-.2-.1-.4-.1-.4s-.1.3-.1.4l-.2.7h.6zm2.7-1.7c.4 0 1.1.2 1.1.6v.3H64v-.2c0-.2-.3-.3-.6-.3-.5 0-.9.4-.9 1s.4 1 .9 1 .9-.4.9-.4l.3.4s-.4.5-1.2.5c-.9 0-1.5-.7-1.5-1.5s.6-1.4 1.4-1.4zm1.7 2.4h.3v-2H65v-.4h1.1v.4h-.3v2h.3v.4H65v-.4zm3-2.4c.8 0 1.5.6 1.5 1.5 0 .8-.6 1.5-1.5 1.5s-1.5-.7-1.5-1.5c0-.9.7-1.5 1.5-1.5zm0 2.4c.5 0 .9-.4.9-1 0-.5-.4-1-.9-1s-.9.4-.9 1 .4 1 .9 1zm1.9 0h.2c.1 0 .1 0 .1-.1v-2.3h.5l1.1 1.6.2.4v-1.7c0-.2.1-.3.3-.3h.5v.4h-.2c-.1 0-.1 0-.1.1v2.3H72l-1.1-1.6-.2-.4v1.7c0 .2-.1.3-.3.3h-.5v-.4zm3.3 0c.1 0 .2 0 .2-.1l.8-2.3h.6l.8 2.3c0 .1.1.1.1.1h.1v.4h-.3c-.2 0-.3-.1-.3-.2l-.2-.5h-1l-.2.5c-.1.2-.1.2-.3.2h-.3v-.4zm1.6-.7l-.2-.7c-.1-.2-.1-.4-.1-.4s-.1.3-.1.4l-.2.7h.6zm1.4.7h.3v-2h-.3v-.4h1.1v.4H77v2h.3v.4h-1.1v-.4zm1.8-.3s.3.3.7.3c.2 0 .4-.1.4-.3 0-.5-1.3-.4-1.3-1.3 0-.5.4-.8 1-.8.3 0 .8.2.8.6v.3h-.5v-.1c0-.1-.2-.2-.4-.2s-.4.1-.4.3c0 .5 1.3.4 1.3 1.3 0 .5-.4.8-1 .8s-1-.4-1-.4l.4-.5z"/>
  <path class="st0" d="M54.6 454c-.1-.2-.3-.4-.5-.6.5-.5.8-1.2.8-1.9 0-.8-.3-1.5-.9-2-.4-.4-.9-.7-1.4-.9h-.1c.3-.1.5-.3.7-.5.4-.4.6-1 .6-1.6v-3.1c0-.5-.1-1-.1-1.5-.1-.6-.3-1.1-.6-1.5-.3-.5-.8-.8-1.3-1s-1-.3-1.6-.3c-.7 0-1.5.1-2.2.4-.7.3-1.3.6-1.9 1.1-.2.2-.4.3-.5.5-.1-.2-.3-.5-.5-.7-.3-.4-.7-.7-1.1-.9-.5-.3-1.1-.4-1.6-.4-.8 0-1.4.2-2 .4-.2.1-.4.2-.6.4.1-.3.1-.5.1-.8v-.2c-.1-.7-.4-1.3-.9-1.7-.4-.4-1-.5-1.5-.6h-.1c-1 0-1.5.5-1.8.8s-.5.8-.6 1.5v.1c-.2-.1-.4-.1-.6-.1-.2 0-.4 0-.5-.1h-.5c-.5 0-1 .1-1.4.2-.6.2-1.1.5-1.6.9l-.2.2c-.2-.2-.5-.5-.8-.6-.5-.3-1.1-.4-1.6-.4-.8 0-1.4.2-2 .4-.4.2-.8.5-1.1.9l-.2-.2c-.3-.3-.7-.5-1.1-.7s-.8-.3-1.2-.3h-.5c-.7 0-1.4.2-2 .5-.7.4-1.2 1-1.7 1.8-.2.5-.4 1-.5 1.6 0 .4-.1.8 0 1.2.1.6.2 1.2.4 1.7s.5.9.9 1.4c.3.4.7.7 1.2.9-.6.1-1.2.4-1.6.8-.6.6-1 1.4-1 2.3v7.5c0 .7.3 1.3.9 1.6.4.2.8.3 1.2.3h2.4c.4 0 .9-.1 1.2-.3 0 0 .1 0 .1-.1l.1.1c.4.2.8.3 1.2.3H27c.4 0 .9-.1 1.2-.3.2-.1.3-.2.4-.3.3.3.6.5 1 .6s.8.2 1.2.2c.4 0 .8-.1 1.2-.2.4-.1.7-.4 1-.6.2-.2.4-.4.5-.6.4.4.9.6 1.3.9.8.4 1.6.5 2.5.5.4 0 .8 0 1.2-.1.1 0 .1 0 .2-.1.2.1.4.1.7.1h2.2c.3 0 .5 0 .8-.1.2.1.5.1.7.1h2.1c.5 0 .9-.2 1.3-.4l.1-.1c.2.1.4.2.6.2.8.3 1.6.4 2.4.4.6 0 1.2-.1 1.7-.2.6-.2 1.2-.4 1.7-.8s1-.9 1.3-1.4c.4-.6.6-1.3.6-2.2.2-1.1 0-1.8-.3-2.4z"/>
  <path d="M47.5 445.4c.2.1.6.2 1 .2.2 0 .4 0 .6-.1.2-.1.5-.2.7-.3.2-.1.4-.3.6-.5.2-.2.3-.4.3-.6s0-.3.1-.6c0-.2.1-.4 0-.6 0-.2-.1-.4-.2-.6-.1-.2-.3-.2-.6-.3-.4-.1-.8 0-1.2.1-.3.1-.6.3-.9.5-.3.2-.4.5-.6.9-.1.4-.2.8-.2 1.2 0 .4.2.6.4.7zm-26.7-1.6c.2 0 .4-.1.7-.2.2-.1.4-.3.6-.5s.3-.5.3-.8v-.1c-.1-.2-.2-.4-.4-.4-.2-.1-.3-.1-.5 0-.2 0-.4.1-.5.3-.2.1-.3.3-.4.5s-.2.4-.2.5c0 .2 0 .4.1.5-.1.1.1.2.3.2z" fill="none"/>
  <path d="M31.5 450.5c-.3-.3-.7-.5-1.2-.7-.4-.2-.9-.2-1.4-.2s-1 .1-1.4.2c-.4.2-.8.4-1.2.7-.3-.3-.7-.5-1.1-.7s-.9-.2-1.4-.2c-.3 0-.7 0-1 .1s-.6.2-.9.4c-.1-.2-.3-.3-.5-.4s-.4-.1-.7-.1c-.5 0-1 .1-1.3.4s-.5.7-.5 1.2v7.5c0 .1 0 .2.2.2.1.1.2.1.4.1h2.4c.1 0 .3 0 .4-.1s.2-.1.2-.2v-5.3c0-.3.1-.5.2-.7.2-.2.4-.3.6-.3s.4.1.6.3c.2.2.2.4.2.7v5.3c0 .1 0 .2.2.2.1.1.2.1.4.1H27c.1 0 .3 0 .4-.1s.2-.1.2-.2v-5.3c0-.3.1-.5.2-.7s.3-.3.6-.3c.2 0 .4.1.5.3.2.2.2.4.2.7v4.2c0 .2.1.4.1.6.1.2.2.4.4.5.2.1.4.3.6.3.2.1.4.1.7.1.2 0 .5 0 .7-.1s.4-.2.5-.3c.2-.1.3-.3.4-.5.1-.2.1-.4.1-.6V453c0-.5-.1-1-.3-1.4-.2-.5-.5-.8-.8-1.1z" fill="#a3ca37"/>
  <path d="M41 449.6h-.3c-.2 0-.4 0-.6.1-.2 0-.4.1-.6.3-.1.1-.2.1-.3.2s-.1.1-.2.1c-.2-.1-.3-.2-.5-.2-.1-.1-.3-.1-.4-.1h-1.2c-.3 0-.6 0-.9.1-.5.1-.9.3-1.3.6s-.7.6-.9 1c-.3.4-.5.8-.6 1.3s-.2.9-.2 1.4c0 .6.1 1.2.3 1.8.2.6.5 1.1.9 1.5s.8.8 1.4 1c.5.3 1.1.4 1.8.4.3 0 .6 0 .9-.1.3-.1.5-.2.8-.3 0 .1.1.2.2.2.1.1.2.1.3.1h2.2c.1 0 .3 0 .4-.1.1-.1.2-.2.2-.3V451c0-.4-.1-.7-.3-1-.4-.2-.7-.4-1.1-.4zm-2.1 5c0 .2-.1.3-.2.4-.1.1-.2.2-.4.3-.2.1-.4.1-.6.1-.2 0-.4 0-.6-.1-.2-.1-.3-.2-.4-.3-.1-.1-.2-.3-.2-.4 0-.2-.1-.3-.1-.4s0-.3.1-.4c.1-.2.1-.3.3-.4.1-.1.2-.2.4-.3.2-.1.4-.1.6-.1.2 0 .4 0 .6.1.2.1.3.2.4.3.1.1.2.2.2.4.1.2.1.3.1.4-.1.1-.1.3-.2.4z" fill="#efde19"/>
  <path d="M45.4 451.7c-.1-.1-.3-.3-.5-.4s-.4-.1-.6-.1c-.4 0-.8.2-1.1.5s-.4.7-.4 1.2v5.7c0 .1 0 .2.1.3.1.1.2.1.3.1h2.1c.1 0 .2 0 .3-.1s.1-.2.1-.3v-5.7c0-.2 0-.4-.1-.6 0-.2-.1-.4-.2-.6zm-1.1-1c.4 0 .6-.1.9-.4.3-.3.4-.6.4-.9 0-.4-.1-.7-.4-.9-.3-.3-.6-.4-.9-.4-.4 0-.7.1-.9.4s-.4.6-.4.9c0 .4.1.7.4.9.3.3.6.4.9.4z" fill="#c00077"/>
  <path d="M53.2 454.8c-.2-.3-.4-.6-.7-.9-.3-.2-.6-.4-1-.6s-.7-.3-1-.4-.5-.2-.7-.3c-.2-.1-.3-.2-.3-.3v-.2c.1-.1.2-.1.3-.1.2 0 .4 0 .5.1.2.1.4.1.5.2.2.1.4.1.5.2.2.1.4.1.5.1.4 0 .7-.1.9-.4.3-.3.4-.5.4-.9s-.1-.7-.4-.9l-.9-.6c-.4-.1-.7-.2-1.1-.3-.4-.1-.7-.1-.9-.1-.4 0-.8.1-1.3.2-.4.1-.8.3-1.2.5s-.7.5-.9.9-.3.8-.3 1.3c0 .4.1.8.3 1.1.2.3.4.6.7.8.3.2.6.4.9.5.3.1.7.3 1 .4s.6.2.8.3c.2.1.3.2.3.4s-.1.3-.2.3c-.1.1-.2.1-.3.1-.2 0-.3 0-.5-.1s-.4-.1-.6-.2l-.6-.3c-.2-.1-.4-.2-.5-.3H47c-.1 0-.2.1-.3.2l-.7 1.8v.2c0 .1.1.1.2.2.5.3 1 .6 1.6.8.6.2 1.2.3 1.8.3.4 0 .9-.1 1.3-.2.5-.1.9-.3 1.2-.5.4-.3.7-.6.9-.9.2-.4.3-.8.3-1.3.2-.4.1-.8-.1-1.1z" fill="#7dbdec"/>
  <path class="st4" d="M19.2 445.1c.2.4.4.7.6.9.3.3.5.5.9.6.3.2.7.3 1.1.3H23c.2 0 .4-.1.5-.2s.2-.3.3-.5c0-.2 0-.4-.1-.5s-.2-.2-.4-.2H22c-.2 0-.4 0-.6-.1s-.3-.2-.4-.4l.9-.3c.3-.1.6-.3.9-.5s.5-.5.7-.7c.2-.3.3-.6.3-1 0-.3 0-.5-.1-.7s-.2-.4-.4-.6c-.2-.2-.4-.3-.6-.4s-.5-.2-.7-.2c-.6-.1-1.2 0-1.6.3-.4.2-.8.6-1 1.2-.2.4-.3.7-.3 1.1v1c-.1.2 0 .6.1.9zm1.1-2.1c0-.2.1-.4.2-.5.1-.2.3-.3.4-.5.2-.1.4-.2.5-.3h.5c.2.1.3.2.4.4v.1c0 .3-.1.5-.3.8-.2.2-.4.4-.6.5s-.5.2-.7.2-.4-.1-.4-.3c0 0-.1-.2 0-.4zm4.5 3.2v.3c.1.2.1.3.2.4 0 .1.2.1.4.1.3 0 .5-.1.6-.4s.2-.6.2-1 0-.8.1-1.2c0-.4 0-.8.1-1.2.1-.4.2-.7.4-.9.2-.3.4-.4.8-.4.3 0 .5.1.6.4.1.2.2.5.2.9v2.4c0 .4.1.7.2.9.1.2.3.4.5.4.1 0 .3 0 .4-.1.1 0 .2-.1.3-.3.1-.1.1-.3.1-.5v-2.7c0-.3 0-.5-.1-.6 0-.2-.1-.5-.3-.8-.1-.3-.3-.5-.5-.8-.2-.2-.4-.4-.7-.6-.3-.1-.5-.2-.8-.2-.5 0-.9.1-1.3.3-.3.2-.6.4-.8.7-.2.3-.4.6-.5 1s-.2.8-.2 1.1c0 .4-.1.8-.1 1.2v1.2c.2.3.2.3.2.4zm6.7-2.3c.2.1.5.2.8.2s.5.1.8.1c.2 0 .4.1.6.2.2.1.2.2.2.3 0 .3-.1.4-.2.6-.1.1-.2.2-.4.3-.2.1-.4.1-.6.1h-.6c-.2 0-.3 0-.5-.1h-.3c-.2 0-.4.1-.4.2-.1.1-.1.2-.1.3 0 .2 0 .4.2.6.1.1.3.3.5.4 0 0 .1 0 .2.1h.7c.3 0 .7 0 1-.1s.7-.2.9-.4c.3-.2.5-.4.7-.7.2-.3.3-.7.3-1.1 0-.3 0-.6-.1-.9-.1-.2-.3-.4-.4-.6-.2-.1-.4-.3-.6-.3-.2-.1-.4-.1-.6-.2-.2 0-.4-.1-.6-.1-.2 0-.3 0-.4-.1-.2-.1-.3-.1-.3-.2v-.3c0-.1.1-.2.2-.3l.6-.3h.6c.2 0 .4.1.5.1h.4c.2 0 .3-.1.3-.3.1-.1.1-.2.1-.4s0-.3-.1-.4-.2-.2-.3-.2-.3-.1-.4-.1h-.5c-.5 0-1 0-1.4.1-.4.1-.7.3-.9.5-.2.2-.4.5-.5.8s-.2.7-.2 1 .1.6.2.7c.2.3.4.4.6.5zm5.2-4.5c.1.1.2.2.3.2.1.1.2.1.4.1.1 0 .3 0 .4-.1.1-.1.2-.1.3-.2s.1-.2.1-.3c0-.1.1-.2.1-.3 0-.3-.1-.5-.3-.6s-.3-.2-.5-.2c-.3 0-.5.1-.6.2s-.2.3-.2.6v.3c-.1.1 0 .2 0 .3zm-.1 6.4c.1.4.1.7.3.9.1.2.3.4.4.4h.4c.1 0 .2-.1.3-.2s.1-.2.1-.4v-4.1c0-.4 0-.9-.1-1.3 0-.1-.1-.3-.2-.4-.1-.1-.3-.2-.5-.2s-.3 0-.4.1l-.3.3c-.1.1-.1.3-.1.4v3.4c0 .4 0 .8.1 1.1zm2.7.4v.3c.1.2.1.3.2.4.1.1.2.1.4.1.3 0 .5-.1.6-.4s.2-.6.2-1 0-.8.1-1.2c0-.4 0-.8.1-1.2.1-.4.2-.7.4-.9.2-.3.4-.4.8-.4.3 0 .5.1.6.4.1.2.2.6.2.9v2.4c0 .4.1.7.2.9.1.2.3.4.5.4.1 0 .3 0 .4-.1.1 0 .2-.1.3-.3.1-.1.1-.3.1-.5v-2.7c0-.3 0-.5-.1-.6 0-.2-.1-.5-.3-.8-.1-.3-.3-.5-.5-.8-.2-.2-.4-.4-.7-.6-.3-.1-.5-.2-.8-.2-.5 0-.9.1-1.3.3-.3.2-.6.4-.8.7-.2.3-.4.6-.5 1s-.2.8-.2 1.1c0 .4-.1.8-.1 1.2v1.2c.2.3.2.3.2.4zm6.6 0c.1.2.3.4.5.5s.4.3.7.3h.9c.3 0 .5 0 .7-.1s.5-.2.7-.3c.2-.1.4-.2.6-.2.2-.1.4-.1.6-.1.1 0 .1 0 .2.1l.2.2c.1.1.1.2.2.2.1.1.2.1.3.1s.3-.1.4-.2c.1-.1.2-.3.2-.4v-3.2c0-.5 0-.9-.1-1.3s-.2-.6-.3-.9c-.2-.2-.4-.4-.6-.5-.3-.1-.6-.2-1-.2-.6 0-1.1.1-1.7.3-.5.2-1 .5-1.5.8-.4.4-.8.8-1 1.3-.3.5-.4 1.1-.4 1.7 0 .3 0 .5.1.8.1.6.2.8.3 1.1zm1.4-2.6c.1-.4.3-.7.6-.9.2-.2.5-.4.9-.5.3-.1.7-.1 1.2-.1.3 0 .5.1.6.3.1.2.2.3.2.6v.6c0 .2-.1.4-.1.6s-.1.4-.3.6-.3.3-.6.5c-.2.1-.4.2-.7.3-.2.1-.4.1-.6.1-.4 0-.7-.1-1-.2-.2-.1-.4-.3-.4-.7 0-.5.1-.9.2-1.2z"/>
  <path class="st0" d="M74.6 459.5c.7-.7 1.1-1.4 1-2.1 0-.6-.4-1-.7-1.3-1.6.6-3.3.9-5.1.9-3.2 0-6.2-1-8.5-2.9s-3.5-4.4-3.5-7.2c0-2.7 1.3-5.2 3.5-7.2 2.3-1.9 5.3-2.9 8.5-2.9s6.2 1 8.5 2.9 3.5 4.4 3.5 7.2c0 2.4-1 4.7-2.8 6.5.1 2.3-1.1 3.9-2.1 4.8-1.1 1-2.2 1.5-2.3 1.5l-.7.3.7-.5z"/>
  <path d="M69.9 437c6.6 0 11.9 4.5 11.9 10 0 2.4-1.1 4.7-2.8 6.4.3 4.4-4.2 6.2-4.2 6.2 1.6-1.6 1.2-2.9.3-3.7-1.5.6-3.3 1-5.1 1-6.6 0-11.9-4.5-11.9-10-.1-5.4 5.2-9.9 11.8-9.9m0-.3c-1.6 0-3.2.3-4.7.8-1.4.5-2.7 1.2-3.9 2.2-1.1.9-2 2-2.6 3.3s-1 2.6-1 4 .3 2.7 1 4c.6 1.2 1.5 2.3 2.6 3.3 1.1.9 2.4 1.7 3.9 2.2s3.1.8 4.7.8c1.8 0 3.4-.3 5-.9.3.3.6.6.6 1.1 0 .6-.3 1.3-1 1.9l-1 1 1.4-.6s1.2-.5 2.3-1.5c.7-.6 1.2-1.3 1.5-2 .4-.9.6-1.8.6-2.8.9-.9 1.5-1.9 2-2.9.5-1.1.8-2.4.8-3.6 0-1.4-.3-2.7-1-4-.6-1.2-1.5-2.3-2.6-3.3-1.1-.9-2.4-1.7-3.9-2.2-1.5-.5-3.1-.8-4.7-.8z"/>
  <path class="st10" d="M76.8 450.6c-.4 0-.8-.2-1-.4-.1.1-.6.4-1.2.4-.5 0-1.1-.3-1.3-.4v.3H72v.1h-1.7s0-.1-.1-.1l-.1-.1s0 .1-.1.2v.1h-1.8v-.3c-.1.1-.5.3-1.1.3-.5 0-1-.2-1.1-.3v.2h-1.6l-.2-.2v.2s-1.3 0-1.5.1l-.1-.1-.1-.1v.2h-1.8v-.7c0-1.4-.1-4.2-.1-4.5.3 0 1.1-.1 1.5-.1h.2v.3c.2-.1.5-.2.7-.2.3 0 .6.1.8.3.4-.3.7-.4 1.1-.4h.1c.4 0 .9.3 1.2.8.2-.2.6-.6 1.2-.6s1.1.4 1.3.8l1.7-.2v.1c.3-.2.6-.3.9-.3.2 0 .4 0 .5.1.2-.2.6-.5 1.1-.5.6 0 1 .5 1.1.6.3-.2.7-.3 1.2-.3.4 0 .7.1 1 .2v.3c.3-.3.8-.5 1.2-.5.2 0 .4.1.6.2v-.2c.1 0 .5 0 1 .1.4 0 .8 0 .9.1v4.6c-.3 0-1.4.1-1.8.1v-.2c-.5-.1-.9 0-1.3 0zm-1.3-6.4l-.6-.2h.1s.1 0 .1-.1c.3-.2.4-.7.3-1 .1-.2.2-.4.2-.5v-.1h.9s.1 0 .1.1c.1.3.3 1.2.5 1.7v.1c-.1.1-.4.1-.6.1h-.1v-.3h-.6l-.3.2c.1 0 .1 0 0 0zm.3-.9l.5-.1-.2-.5c-.1.1-.1.3-.3.6z"/>
  <path class="st10" d="M73.9 444.1h-.5s-.1 0-.1-.1c-.1-.5-.2-1.1-.1-1.8 0 0 0-.1.1-.1h.6c.2 0 .4 0 .5.1.4.1.7.3.8.6v.3c0 .2-.1.5-.3.6-.1.1-.2.1-.3.2-.1.2-.4.2-.7.2zm.1-1.2v.7c.3 0 .4-.1.5-.2s.1-.1.1-.2c0 0 0-.1-.1-.1 0-.2-.2-.2-.5-.2zm-11.3 1.2s-.1 0 0 0l-.1-.2v-.9H62v-.7s0-.1.1-.1l1.9-.1c.1 0 .1 0 .1.1v.6s0 .1-.1.1h-.5v1s0 .1-.1.1l-.7.1z"/>
  <path class="st10" d="M64.6 444.3c-.2 0-.5-.1-.6-.3-.2-.2-.2-.7-.1-1h.3v-.4h.5v.7s.1.3.2.3.2-.1.3-.5c0-.2 0-.4-.1-.6v-.1c.1 0 .3-.1.5-.1 0 0 .1 0 .1.1s.1.3.1.4v.6c0 .3-.1.5-.2.6s-.3.2-.4.3c-.3-.1-.5 0-.6 0z"/>
  <path class="st10" d="M67.2 444.4c-.1 0-.1 0 0 0-.1 0-.7-.6-.8-.7v.3s0 .1-.1.1h-.6s-.1 0-.1-.1v-.2c.1-.2.2-.4.2-.6s0-.4-.1-.6c0-.1.1-.3.1-.5 0 0 0-.1.1-.1h.8c.3 0 .5.1.6.3.1.1.2.2.2.3 0 .4-.3.6-.4.7 0 0 .1.1.4.3l.1.1v.2l-.4.5zm-.9-1.7v.6c.3 0 .4-.1.4-.2 0 0 .1-.1 0-.2 0-.1-.2-.2-.4-.2z"/>
  <path class="st10" d="M69.1 444.2l-.1-.6-.3.5h-.2l-.3-.4v.4s0 .1-.1.1h-.6l.1-.1v-.2l-.1-.1c.1-.4.3-1.2.3-1.5 0 0 0-.1.1-.1h.4s.1 0 .1.1l.1.7h.1c0-.1.3-.8.3-.8h.6s.1 0 .1.1l.1 1.7s0 .1-.1.1l-.5.1zm1.7 0c-.1 0-.1-.1 0 0v-.4h-.5v.4h-.4l-.1-.8.4-1h.1c.1 0 .6-.1.6-.1.1 0 .1 0 .1.1l.4 1.7v.1c-.1-.1-.4 0-.6 0zm-.4-.9h.4l-.2-.5-.2.5z"/>
  <path class="st11" d="M66.1 446.4c0-.5.4-.7.8-.7s.8.3.8.6v.1h-.1c-.2-.1-.5-.2-.7-.2-.2.1-.5.1-.8.2.1 0 .1 0 0 0zm6.4.2c-.2 0-.3-.1-.5-.2-.1-.1-.1-.2-.1-.3 0-.1 0-.2.1-.3.1-.1.3-.2.5-.2s.3.1.5.2c.1.1.1.2.1.3-.1.3-.3.5-.6.5zm1.9 3.4c-.4 0-.9-.2-1.2-.5-.2-.2-.4-.6-.4-1 0-1.2.4-1.7 1-2 .3-.2.7-.2.9-.2.2 0 .4 0 .6.1v.1l-.2.9s0 .1-.1.1-.3-.1-.4-.1c-.2 0-.3 0-.4.1-.2.1-.3.3-.3.5s0 .4.1.6.3.3.6.4h.1c.2 0 .4-.1.7-.2h.1l.1.1c-.1-.5 0-1 .2-1.5.3-.6 1-.9 1.4-.9.3 0 .7.1.9.2v-.4h1s.1 0 .1.1v3.7h-.9s-.1 0-.1-.1v-.3c-.3.3-.7.4-1.1.4-.5 0-.8-.3-1.1-.5-.4.1-.9.4-1.6.4zm2.8-2.5c-.3 0-.6.3-.6.8 0 .2.1.5.2.6s.3.2.4.2.3-.1.4-.2c.2-.2.2-.4.2-.6s-.1-.5-.2-.6c-.1-.2-.3-.2-.4-.2z"/>
  <path class="st11" d="M71.8 449.9c-.1 0-.1 0 0 0l.2-2.7s0-.1.1-.1h.3c.1 0 .3 0 .4-.1 0 0 .1 0 .1.1v2.8h-1.1z"/>
  <path class="st11" d="M60.8 450.1c-.1 0-.1 0 0 0-.1-.1-.2-3.8-.2-4.2 0 0 0-.1.1-.1l.9-.1s.1 0 .1.1v.4c.3-.3.6-.4.9-.4.3 0 .5.2.8.5.5-.5.8-.5 1-.5 0 0 .9 0 1.1.9 0 .2.1.4.1.8.4-.3.9-.5 1.4-.5.6 0 1.1.2 1.5.6.1.1.2.2.3.4v-1.3s0-.1.1-.1c.2 0 .7-.1.9-.1 0 0 .1 0 .1.1v.3c.2-.2.6-.4.9-.4s.8.2.9.7c.1.4.2 1.7.2 3v.1h-1.2v-1.8c0-.3-.1-.5-.2-.7-.1-.1-.2-.1-.3-.1-.3 0-.5.3-.5.8v1.8h-1s-.1 0-.1-.1v-.9c-.1.2-.2.4-.4.5-.4.3-.9.5-1.4.5-.6 0-1-.2-1.4-.5v.5h-1.1v-2c0-.4 0-.9-.2-1.1-.1-.1-.1-.1-.2-.1-.4 0-.4.6-.4.9v2.3s0 .1-.1.1h-1v-2.2c0-.4 0-.8-.2-1-.1-.1-.1-.1-.2-.1-.5 0-.5.8-.5 1v2.3h-.1l-.6-.3zm6.1-2.3c-.5 0-.8.3-.8.6 0 .1.1.3.2.4.2.2.4.2.7.2.3 0 .5-.1.7-.2.1-.1.2-.2.2-.4 0-.1-.1-.3-.2-.4-.3-.1-.6-.2-.8-.2z"/>
  <path class="st12" d="M76.8 450.7c-.4 0-.8-.1-1-.4-.2.1-.7.3-1.2.3s-1.1-.3-1.2-.3v.2s0 .1-.1.1H72v.1s0 .1-.1.1h-1.8s-.1-.1-.1-.2l-.1.2H68s-.1 0-.1-.1v-.2c-.2.1-.6.3-1.1.3-.4 0-.8-.2-1.1-.3v.2H64s-.1-.1-.1-.2v.2h-.1l-1.5.1h-.1s0-.1-.1-.1v.1s0 .1-.1.1h-1.9s-.1 0-.1-.1v-1.4c0-1.6-.1-3.9-.1-4 0 0 0-.1.1-.1.3 0 1-.1 1.5-.1h.4v.3c.2-.1.4-.2.6-.2.3 0 .6.1.8.3.2-.2.6-.4 1-.4h.1c.5 0 .9.4 1.2.7.2-.2.6-.6 1.2-.6s1.1.5 1.3.8c0 0 1.6-.2 1.7-.2 0 0 .1 0 .1.1v.1c.3-.2.6-.3.9-.3.2 0 .3 0 .5.1.2-.2.5-.5 1.1-.5s.9.4 1.1.6c.3-.2.7-.3 1.2-.3.4 0 .8.1 1.1.3v.3c.3-.2.7-.4 1.1-.4.2 0 .4 0 .5.1v-.1c.1 0 .5 0 1 .1h.1c.4 0 .8 0 .9.1 0 0 .1 0 .1.1v4.8h-1.9s-.1 0-.1-.1v-.1c0-.2-.3-.1-.7-.1zm-1-.5c.2.3.6.4 1 .4s.8-.2.9-.3v.2c.4 0 1.4-.1 1.8-.1v-4.6c-.1 0-.5 0-.9-.1-.4 0-.9-.1-1-.1v.2c-.2-.1-.4-.2-.6-.2-.4 0-.8.2-1.1.5h-.1v-.4c-.3-.1-.6-.2-1-.2-.5 0-1 .2-1.3.4-.1-.2-.5-.6-1.1-.6-.5 0-.9.3-1.1.5-.1 0-.3-.1-.5-.1-.3 0-.6.1-.9.3h-.1v-.1l-1.7.2c-.2-.3-.7-.8-1.3-.8-.6 0-1.1.5-1.2.7-.3-.4-.7-.7-1.2-.8h-.1c-.3 0-.7.1-1.1.4-.2-.2-.5-.3-.8-.3-.2 0-.5.1-.7.2v-.3h-.2c-.4 0-1.2.1-1.5.1 0 .3.1 3.1.1 4.5v.7h1.8v-.2s0-.1.1-.1c0 0 0 .1.1.1l.1.1c.1 0 1.5-.1 1.5-.1v-.2h.1l.2.2h1.7v-.3h.1c.1.1.6.3 1.1.3.6 0 1-.2 1.1-.3v.4h1.8v-.1c0-.1.1-.1.1-.2h.1s0 .1.1.1l.1.1h1.7v-.1s0-.1.1-.1h1.3v-.3c.2.1.8.4 1.3.4.6.4 1.1.1 1.2 0z"/>
  <path class="st12" d="M77.2 449.1c-.1 0-.3-.1-.4-.2-.2-.2-.2-.4-.2-.6 0-.6.3-.8.6-.8.1 0 .3.1.4.2.2.2.3.4.3.7 0 .3-.1.5-.3.7-.1-.1-.2 0-.4 0zm0-1.5c-.2 0-.5.2-.5.7 0 .4.3.6.5.6.3 0 .5-.3.5-.7 0-.3-.2-.6-.5-.6zm-10.3 1.5c-.3 0-.5-.1-.7-.3-.1-.1-.2-.2-.2-.4 0-.4.4-.6.8-.6.3 0 .5.1.7.3.1.1.2.2.2.4s-.1.3-.2.4c-.1.1-.4.2-.6.2zm0-1.1c-.2 0-.4.1-.6.2-.1.1-.1.1-.1.3 0 .1.1.2.1.3.1.1.3.2.6.2.4 0 .7-.2.7-.5 0-.1-.1-.2-.1-.3-.2-.1-.4-.2-.6-.2z"/>
  <path class="st12" d="M60.7 450.3c-.1 0-.1-.1 0 0l-.1-.1v-.8c0-1.2-.1-3.4-.1-3.6 0-.1 0-.1.1-.1h1.2v.3c.3-.2.5-.3.8-.3.3 0 .5.1.8.4.4-.4.7-.5 1-.5.1 0 .4 0 .7.2.3.2.5.5.5.8 0 .1 0 .3.1.5.4-.3.8-.4 1.2-.4.6 0 1.2.2 1.6.6v-1h.1c.2 0 1-.1 1.1-.1h.1v.3c.2-.2.5-.3.8-.3s.9.2 1 .8c0 .2.1.6.1 1.1l.1-1s0-.1.1-.1.2.1.3.1c.2 0 .3 0 .5-.1 0 0 .1 0 .1.1.2-.4.5-.6.8-.7.3-.2.7-.2 1-.2.4 0 .6.1.7.1h.1v.1s-.3 1.1-.3 1.2 0 .1-.1.1h-.1c-.2-.1-.3-.1-.4-.1s-.3 0-.4.1-.2.2-.3.4c0 .2 0 .4.1.5s.2.3.5.3h.1c.2 0 .4-.1.7-.3 0-.4.1-.8.2-1.2.3-.7 1.1-1 1.5-1 .2 0 .5.1.7.2v-.3l.1-.1h1c.1 0 .1.1.1.1v3.9c0 .1-.1.1-.1.1h-1.1v-.2c-.3.2-.6.3-1 .3-.5 0-.9-.2-1.1-.4-.3.2-.8.4-1.4.4-.4 0-.9-.2-1.3-.6-.1-.1-.1-.1-.1-.2v.7h-1.2c0 .1 0 .1-.1.1h-1.2v-1.9c0-.3-.1-.5-.2-.6 0 0-.1-.1-.2-.1-.2 0-.3.2-.4.6v1.9c0 .1-.1.1-.1.1h-1.1c-.1 0-.1 0-.1-.1v-.5l-.1.1c-.4.4-1 .6-1.6.6-.5 0-.9-.1-1.2-.4v.3H64s-.1 0-.1-.1v-1.9c0-.3 0-.9-.2-1l-.1-.1c-.1 0-.1 0-.2.1s-.1.5-.1.7v2.5H62v-2.3c0-.2 0-.7-.2-.9l-.1-.1c-.1 0-.1 0-.2.1s-.2.4-.2.8v2.3c0 .1-.1.1-.1.1h-.5c.3-.4.1-.3 0-.3zm-.1-4.4c0 .5.1 4.1.1 4.2h.9v-2.2c0-.3 0-1 .5-1 .1 0 .2 0 .2.1.2.2.2.6.2 1v2.1h.9v-2.3c0-.3 0-.9.5-.9.1 0 .2 0 .3.1.2.2.2.7.2 1.1v1.9h.9v-2.7c0-.3 0-.5-.1-.6-.2-.9-1-.9-1-.9-.3 0-.5 0-1 .6-.2-.3-.5-.5-.8-.5-.3 0-.6.1-.9.4v-.4h-.9zm6.2 1c-.5 0-.9.2-1.2.4v2.4c.3.3.8.4 1.2.4.5 0 1-.2 1.4-.5l.3-.3c.1-.1.1-.2.2-.4s.1-.3.1-.5 0-.3-.1-.5c0-.1-.1-.2-.2-.3 0-.1-.1-.1-.1-.2-.4-.3-1-.5-1.6-.5zm7.9-.6c-.2 0-.6 0-.9.2-.5.3-.7.6-.9 1v1.6c.1.1.2.3.3.4.3.3.8.5 1.2.5.6 0 1-.2 1.3-.4.1 0 .1-.1.2-.1v-.1l-.5-.7c-.2.2-.4.2-.7.2h-.1c-.3 0-.5-.2-.6-.4-.1-.2-.1-.4-.1-.6.1-.2.2-.4.4-.5.1-.1.3-.1.5-.1.1 0 .2 0 .4.1l.2-.9c-.3-.2-.4-.2-.7-.2zm-5.1.1c-.2 0-.7.1-.9.1v1c.2.3.3.6.3.9s-.1.6-.3.9v.6h.9v-1.7c0-.5.2-.8.5-.8.1 0 .2 0 .3.1.1.1.2.4.2.7v1.7h1v-.6c0-1-.1-2-.2-2.4s-.6-.7-.8-.7c-.3 0-.7.2-.9.5l-.1-.3c.1 0 0 0 0 0zm7.5 0c-.4 0-1.1.3-1.3.9-.2.4-.3.9-.2 1.3l.6.8s.1.1 0 .1l-.1.1c.3.2.6.4.9.4.4 0 .9-.2 1.2-.5v.4h.8v-3.6h-.9v.3c-.3 0-.7-.2-1-.2zm-5.1.8l-.3 2.6h1v-2.7c-.1.1-.3.1-.4.1H72z"/>
  <path class="st12" d="M72.5 446.8c-.4 0-.7-.3-.7-.6s.3-.6.7-.6c.4 0 .7.3.7.6s-.3.6-.7.6zm0-1c-.2 0-.3.1-.4.2s-.1.2-.1.3c0 .1 0 .2.1.3.1.1.3.2.4.2.3 0 .5-.2.5-.4 0-.1 0-.2-.1-.3-.1-.3-.3-.3-.4-.3zm-4.7.8c-.3-.1-.6-.2-.9-.2s-.6.1-.9.2l-.2.1c.1-1 .8-1.1 1-1.1.6 0 1 .4 1 1.1v-.1zm-.9-.9c-.4 0-.7.3-.8.6.3-.1.5-.2.8-.2.2 0 .5.1.7.2.1-.3-.3-.6-.7-.6zm3.5-2.3s0-.1 0 0l.2-.6.2.5c-.3.1-.4.1-.4.1zm.1-.1h.2l-.1-.3-.1.3zm-4.2 0s-.1 0 0 0c0-.1-.1-.4 0-.6h.1c.2 0 .4.1.5.2 0 .1 0 .2-.1.2-.1.1-.3.2-.5.2zm.1-.5v.3c.1 0 .2 0 .3-.1v-.1s-.2-.1-.3-.1z"/>
  <path class="st12" d="M67.1 444.5l-.7-.5v.3h-1v-.2c-.1.1-.2.1-.4.2s-.4.1-.5.1c-.3 0-.5-.1-.7-.3-.2-.2-.2-.7-.2-1h-.2v1.1h-1.1v-1.1h-.6v-.1c0-.1.1-.8.1-.8s0-.1.1-.1c0 0 1.5-.1 1.9-.1h.2v.4h.6v.1c0 .3-.1.5 0 .6 0 .2.1.2.1.2.1 0 .2-.1.2-.4 0-.1 0-.3-.1-.5v-.3c.1 0 .4-.1.7-.1 0 0 .1 0 .1.1v.1-.2s0-.1.1-.1h.9c.3 0 .5.1.7.3.1.1.2.3.2.4 0 .4-.3.6-.4.7l.3.2c.1-.5.3-1.1.3-1.4l.1-.1h.5s.1 0 .1.1l.1.6.3-.6.1-.1h.7c.1 0 .1 0 .1.1l.1.7.3-.7s0-.1.1-.1l.8-.1s.1 0 .1.1c0 .2.5 1.8.5 1.8s0 .1-.1.1c-.2.1-.6.2-.9.2h-.1v-.5h-.3v.3c0 .1 0 .1-.1.1l-.4-.1c-.1 0-.7.1-.8.1-.1 0-.1 0-.1-.1v-.3s-.2.3-.2.4h-.2l-.2-.3v.2c0 .1-.1.1-.1.1h-.7l-.2.2c0 .3 0 .3-.1.3zm-.8-.8s.1 0 0 0c.1.1.8.7.8.7l.3-.3-.1-.1-.4-.3v-.2c.2-.1.4-.3.4-.7 0-.1 0-.2-.1-.3-.1-.1-.4-.2-.6-.2h-.8c0 .2-.1.3-.1.5s.1.4.1.6c0 .3-.1.5-.2.6v.2s0 .1.1.1h.6v-.6zm-2.2-.7h-.2c0 .5 0 .8.1 1 .1.2.3.2.6.2.1 0 .3 0 .5-.1s.3-.2.4-.3c.1-.2.2-.4.2-.6v-.6c0-.1 0-.2-.1-.4-.2 0-.4 0-.5.1 0 .2.1.4.1.6 0 .3-.2.5-.3.5-.2 0-.2-.3-.2-.4v-.6h-.4v.4c-.1.1-.1.2-.2.2zm4.9.6l.1.6.6-.1v-.1l-.1-1.7h-.5s-.3.7-.3.8h-.2l-.1-.7h-.4c-.1.2-.2 1-.3 1.5l.1.1v.2l-.1.1h.5v-.5l.3.4c0-.1.3-.6.4-.6-.1 0-.1 0 0 0zm1.7.1c.1 0 .1 0 0 0 .1 0 .1.1 0 0v.4c.2 0 .4-.1.6-.1v-.1l-.4-1.7s0-.1-.1-.1l-.6.1-.4 1 .1.8h.2v-.3s0-.1.1-.1l.5.1zm-8.1-.7c0 .1 0 .6.1.9v.1h.7v-1.1h.5v-.7l-1.9.1v.6h.2c.3.1.4.1.4.1zm13.2.4c0-.1 0-.1 0 0 .2-.5.2-.6.2-.6l.2.5c.1 0-.4.1-.4.1zm.1-.2h.2l-.1-.3-.1.3zm-1.9.4c-.1-.2-.1-.5 0-.7h.1c.2 0 .5.1.6.2 0 0 .1.1.1.2s0 .2-.1.2c-.2 0-.4.1-.7.1zm.1-.6v.4c.3 0 .4-.1.4-.2s-.1-.2-.4-.2z"/>
  <path class="st12" d="M75.6 444.3l-.8-.2c-.2.1-.5.2-.9.2h-.5c-.1 0-.1-.1-.1-.1-.1-.6-.2-1.2-.1-1.9l.1-.1h.6c.2 0 .4 0 .6.1.4.1.7.3.8.6.1-.2.2-.4.2-.5l.1-.1h1s.1 0 .1.1c0 .2.3 1.2.5 1.8v.1c-.1.1-.5.2-.9.2-.1 0-.1 0-.1-.1v-.3h-.4l-.2.2c.1 0 .1 0 0 0zm.9-2.1h-.7v.1c-.1.1-.1.3-.2.5.1.3 0 .8-.3 1.1 0 0-.1 0-.1.1l.6.1.1-.3h.7s.1 0 .1.1v.2c.3 0 .5-.1.6-.1v-.1c-.1-.5-.4-1.4-.5-1.7-.2.1-.3 0-.3 0zm-2.6 0h-.6c-.1.6 0 1.2.1 1.8h.5c.3 0 .6 0 .8-.1.1 0 .2-.1.3-.2.1-.1.2-.3.3-.6v-.3c-.1-.3-.4-.5-.8-.6h-.6z"/>
  <path d="M80 450.3c0-.2.2-.4.4-.4s.3.2.3.4-.2.4-.3.4c-.3-.1-.4-.2-.4-.4zm.6 0c0-.2-.1-.3-.3-.3-.2 0-.3.1-.3.3 0 .2.1.3.3.3.2 0 .3-.2.3-.3zm-.1 0c0 .1-.1.1-.2.1s-.2-.1-.2-.2.1-.2.2-.2.2 0 .2.1h-.1s0-.1-.1-.1-.1.1-.1.1c0 .1 0 .1.1.1.1.2.1.2.2.1zm-.8.2c0-.5-.1-4.6-.1-4.7 0 0 0-.1-.1-.1s-.5 0-1-.1c-.4 0-.9-.1-1-.1s-.1.1-.1.1v.1c-.5-.2-1.1-.1-1.6.3v-.3c-.3-.2-.7-.3-1.1-.3-.5 0-.9.2-1.2.3-.2-.2-.6-.6-1.1-.6s-.9.3-1.1.5c-.3-.1-.7-.2-1.4.2v-.1s0-.1-.1-.1-1.7.2-1.7.2c-.2-.3-.7-.8-1.3-.8-.6 0-1 .4-1.2.6-.2-.3-.7-.7-1.2-.7s-.9.2-1.2.4c-.4-.3-.9-.4-1.4-.1v-.2s0-.1-.1-.1-1.4.1-1.9.1c0 0-.1 0-.1.1s.1 5.3.1 5.4 0 .1.1.1h1.9s.1 0 .1-.1v-.1c0 .1.1.1.1.1h.1l1.5-.1s.1 0 .1-.1v-.2l.1.2h1.8s.1 0 .1-.1v-.2c.2.1.6.3 1.1.3s.9-.2 1.1-.3v.2s0 .1.1.1h1.8l.1-.1s.1-.1.1-.2c0 .1.1.2.1.2h1.8s.1 0 .1-.1v-.1h1.3s.1 0 .1-.1v-.2c.2.1.7.3 1.2.3s1-.2 1.2-.3c.3.2.6.4 1 .4s.7-.1.8-.2v.1s0 .1.1.1c.1.6 1.7.5 2 .4 0 .1 0 0 0 0zm-1.9.1v-.2c-.2.1-.6.3-.9.3-.4 0-.8-.2-1-.4-.2.1-.7.4-1.2.4s-1.2-.3-1.3-.4v.3h-1.3s-.1 0-.1.1v.1h-1.7l-.1-.2h-.1l-.1.2h-1.7v-.3c0-.1-.1-.1-.1-.1-.1.1-.5.3-1.1.3-.5 0-1-.2-1.1-.3-.1 0-.1 0-.1.1v.2h-1.6l-.2-.2H64v.2s-1.3 0-1.5.1l-.2-.2c0-.1-.1 0-.1 0v.2h-1.8c0-.2-.1-4.8-.1-5.2.4 0 1.6-.1 1.7-.1v.3c.6-.4 1.1-.3 1.5.1.3-.2.7-.4 1.2-.4.4 0 .9.3 1.2.8.2-.2.6-.7 1.2-.7s1.1.4 1.2.8l1.7-.2v.1c0 .1.1 0 .1 0 .6-.4 1.1-.3 1.4-.2.2-.2.6-.5 1.1-.5s.9.4 1.1.6c.3-.2.8-.4 1.3-.4.4 0 .7.1 1 .2v.3c0 .1.1.1.1.1.5-.4 1.2-.6 1.8-.3v-.2c.2 0 1.7.1 1.8.1 0 .3.1 4.1.1 4.6-.6-.1-1.7-.1-2 0z"/>
  <path d="M77.2 447.4c-.3 0-.7.3-.7.9 0 .3.1.5.2.6s.3.2.4.2.3-.1.4-.2c.2-.2.3-.4.3-.7 0-.2-.1-.5-.3-.7 0 0-.2-.1-.3-.1zm0 1.5c-.2 0-.5-.2-.5-.6 0-.5.2-.7.4-.7s.5.3.5.6c.1.4-.1.7-.4.7zm-10.3-1.1c-.5 0-.9.3-.9.7 0 .1.1.3.2.4.2.2.4.3.7.3.3 0 .5-.1.7-.3.1-.1.2-.3.2-.4s-.1-.3-.2-.4c-.2-.2-.5-.3-.7-.3zm0 1.1c-.2 0-.4-.1-.6-.2-.1-.1-.1-.1-.1-.3 0-.1.1-.2.1-.3.1-.1.3-.2.6-.2.2 0 .4.1.6.2.1.1.1.1.1.3-.1.3-.4.5-.7.5z"/>
  <path d="M79.1 446.2c0-.1-.1-.1-.1-.1h-1.1c-.1 0-.1.1-.1.1v.2c-.2-.1-.4-.2-.7-.2-.5 0-1.2.3-1.5 1-.2.4-.3.8-.2 1.2-.3.3-.6.3-.8.3-.2 0-.4-.2-.5-.3-.1-.1-.1-.3-.1-.5s.1-.3.3-.4c.3-.2.6-.1.8 0 .1 0 .1 0 .2-.1 0-.1.3-1.2.3-1.2s0-.1-.1-.1c-.3-.1-1.1-.2-1.7.1-.3.2-.6.4-.8.7 0-.1-.1-.1-.2-.1-.3.2-.7.1-.8.1-.1 0-.1.1-.1.1s0 .4-.1 1c0-.5-.1-.9-.1-1.1-.1-.5-.7-.8-1-.8-.2 0-.6.1-.8.3v-.1s0-.1-.1-.1-.9.1-1.1.1c-.1 0-.1.1-.1.1v.9c-.4-.4-1-.6-1.6-.6-.5 0-.9.1-1.3.4 0-.2 0-.4-.1-.5-.1-.4-.3-.6-.5-.8-.3-.2-.6-.2-.7-.2-.3 0-.6.1-1 .5-.2-.2-.5-.4-.8-.4s-.6.2-.8.3v-.2c0-.1 0-.1-.1-.1h-1.1c-.1 0-.1 0-.1.1 0 .2.1 2.4.1 3.7v.7s0 .1.1.1h1.1s.1 0 .1-.1v-2.3c0-.4.1-.7.2-.8 0 0 .1-.1.2-.1 0 0 .1 0 .1.1.2.2.2.7.2.9v2.2l.1.1h1.1c.1 0 .1 0 .1-.1v-2.4c0-.2 0-.5.1-.7 0 0 .1-.1.2-.1s.1 0 .1.1c.2.2.2.7.2 1v1.9c0 .1.1.1.1.1h1.1s.1 0 .1-.1v-.2c.3.2.8.4 1.2.4.6 0 1.2-.2 1.6-.6l.1-.1v.5c0 .1 0 .1.1.1h1.1c.1 0 .1 0 .1-.1v-1.9c0-.4.2-.6.4-.6.1 0 .1 0 .2.1s.2.3.2.6v1.8l.1.1h1.2c.1 0 .1 0 .1-.1h1.1c.1 0 .1-.1.1-.1v-.6c0 .1.1.1.1.2.4.4.9.6 1.3.6.6 0 1.1-.2 1.4-.4.2.2.6.4 1.1.4.4 0 .7-.1 1-.3v.1c0 .1.1.1.1.1h1c.1 0 .1 0 .1-.1-.3 0-.4-3.6-.4-3.7zM65.4 450h-.9v-1.9c0-.4 0-.9-.2-1.1-.1-.1-.2-.1-.3-.1-.5 0-.5.6-.5.9v2.3h-.9V448c0-.4 0-.8-.2-1-.1-.1-.1-.1-.2-.1-.5 0-.5.8-.5 1v2.2h-.9s-.1-3.7-.1-4.1l.9-.1v.4c.3-.3.6-.5.9-.5.3 0 .5.2.8.5.5-.5.8-.6 1-.6 0 0 .9 0 1 .9 0 .2.1.4.1.6v2.8zm3.1-.7l-.3.3c-.4.3-.9.5-1.4.5s-.9-.1-1.2-.4v-2.4c.3-.3.8-.4 1.2-.4.6 0 1.1.2 1.5.6.1.1.1.1.1.2.1.1.1.2.2.3.1.1.1.3.1.5s0 .3-.1.5c0 .1 0 .2-.1.3zm2.1.7v-1.8c0-.3-.1-.6-.2-.7s-.2-.1-.3-.1c-.3 0-.5.3-.5.8v1.7h-.9v-.6c.2-.3.3-.6.3-.9s-.1-.6-.3-.9v-1c.2 0 .7-.1.9-.1v.4c.2-.2.6-.5.9-.5s.7.2.8.6c.1.3.2 1.3.2 2.4v.6h-.9v.1zm2.2-.1h-1v-.5l.2-2.1c.2 0 .4.1.7-.1h.1v2.7zm2.9-.3c-.3.2-.7.4-1.3.4-.4 0-.8-.2-1.2-.5-.1-.1-.2-.2-.3-.4v-1.6c.2-.5.5-.8.8-1 .4-.3 1-.2 1.4-.2l-.2.9c-.3-.1-.6-.1-.9.1-.2.1-.3.3-.4.5s0 .5.1.6c.1.2.4.3.6.4.2 0 .5 0 .8-.2h.1l.2.3.3.4v.1c.1.1.1.2 0 .2zm3.2.3h-.8v-.4c-.3.3-.7.5-1.2.5-.4 0-.7-.2-.9-.4l.1-.1c.1-.1 0-.1 0-.1l-.6-.8c0-.4 0-.8.2-1.3.3-.6.9-.9 1.3-.9s.8.2.9.3v-.3h.9l.1 3.5c.1 0 .1 0 0 0z"/>
  <path d="M72.5 446.8c.4 0 .7-.3.7-.6s-.3-.6-.7-.6c-.4 0-.7.3-.7.6-.1.3.3.6.7.6zm-.5-.9c.1-.1.3-.2.4-.2.2 0 .3.1.4.2s.1.2.1.3c0 .2-.2.4-.5.4-.2 0-.3-.1-.4-.2s-.1-.2-.1-.3c0 0 .1-.1.1-.2zm-4.2.7l.2.1c-.1-.8-.6-1.1-1-1.1-.5 0-.9.3-1 1.1l.2-.1c.5-.3 1-.3 1.6 0zm-1.7-.3c.1-.4.4-.6.8-.6s.7.3.8.6c0 0 0 .1-.1 0-.4-.1-.9-.1-1.5 0 0 .1 0 .1 0 0zm4.6-3.5c0-.1 0-.1 0 0-.1-.1-.1-.1 0 0-.1 0-.3.6-.3.6v.1h.4l-.1-.7zm-.2.5l.1-.3.1.3h-.2zm-4.2-.6s-.1 0 0 0c-.1.2 0 .5 0 .6h.1c.2 0 .4-.1.4-.1 0-.1.1-.1.1-.2-.1-.3-.4-.3-.6-.3zm.3.4s-.1.1-.3.1v-.3c.1 0 .3 0 .3.2.1-.1 0-.1 0 0z"/>
  <path d="M71.6 444s-.4-1.6-.5-1.8c0-.1-.1-.1-.1-.1l-.8.1s-.1 0-.1.1l-.3.7-.1-.7c0-.1-.1-.1-.1-.1h-.7s-.1 0-.1.1l-.3.6-.1-.5c0-.1-.1-.1-.1-.1h-.5l-.1.1c-.1.3-.2 1-.3 1.4l-.2-.2c.2-.1.4-.4.4-.7 0-.2-.1-.3-.2-.4-.2-.2-.4-.3-.7-.3h-.9c-.1 0-.1 0-.1.1v.2-.1s0-.1-.1-.1c-.3 0-.7.1-.7.1l-.1.1v.2c0 .2.1.4.1.5 0 .2 0 .4-.2.4 0 0-.1-.1-.1-.2v-.7h-.5v-.3c0-.1 0-.1-.1-.1s-2 .1-2.1.1-.1 0-.1.1-.1.8-.1.8c0 .1 0 .1.1.1h.5v1c0 .1.1.1.1.1h.8c.1 0 .1-.1.1-.1v-1h.2c0 .4 0 .8.2 1 .3.3.7.4 1.2.2.1-.1.3-.1.4-.2v.1c0 .1 0 .1.1.1h.8c.1 0 .1 0 .1-.1v-.2l.6.5h.2l.2-.2h.7c.1 0 .1 0 .1-.1v-.2l.2.3c0 .1.2 0 .2 0l.2-.4v.3c0 .1.1.1.2.1 0 0 .7-.1.8-.1l.4.1c.1 0 .1 0 .1-.1v-.3h.2v.3c0 .1 0 .1.1.1.3 0 .6-.1.9-.2.2-.3.3-.4.2-.4zm-8.2-1.1c-.1.1 0 .9 0 1.1h-.6v-1s0-.1-.1-.1h-.5v-.6l1.9-.1v.6h-.3c-.2.1-.4.1-.4.1zm1.6 1.2c-.4.2-.8.1-1-.2-.1-.2-.2-.6-.1-1h.2c.1 0 .1-.1.1-.1v-.4h.3v.6c0 .1.1.4.2.4s.3-.2.3-.5c0-.2 0-.4-.1-.6.1 0 .3-.1.5-.1 0 .1 0 .3.1.4v.6c0 .2-.1.4-.2.6.1.2-.1.3-.3.3zm2.3.1l-.1.1h-.1s-.7-.6-.8-.7h-.1v.4h-.6v-.2c.1-.2.2-.4.2-.6s0-.4-.1-.6c0-.2.1-.3.1-.5h.8c.2 0 .5.1.6.2s.1.2.1.3c0 .3-.2.6-.4.7v.2s.3.2.4.3c.1 0 .1.1.1.1v.1l-.1.2zm1.8 0l-.1-.5h-.1l-.3.5h-.1l-.3-.4h-.1v.5h-.5l.1-.1v-.1c0-.1 0-.1-.1-.1l-.1-.1c.1-.4.3-1.2.3-1.5h.4l.1.7c0 .1.1 0 .2 0l.3-.8h.5l.1 1v.8h-.3v.1zm2.3-.2c-.2.1-.4.1-.6.1v-.3h-.5s-.1 0-.1.1v.3H70l-.1-.7.4-1c.1 0 .6-.1.6-.1s.1 0 .1.1l.4 1.5c.1 0 .1 0 0 0zm4.7-1.2c0-.1-.1-.1 0 0-.1 0-.3.5-.3.5v.1l.5-.1s.1 0 0-.1l-.2-.4zm-.1.4l.1-.2.1.2H76zm-2-.4c-.1.3-.1.6-.1.7 0 0 0 .1.1.1.3 0 .5-.1.6-.2s.1-.1.1-.3c0-.1 0-.1-.1-.2-.1 0-.3-.1-.6-.1zm.1.6v-.4c.3 0 .4.1.4.2s-.1.2-.4.2z"/>
  <path d="M77.2 444c-.2-.6-.5-1.6-.5-1.8 0 0 0-.1-.1-.1h-.9s-.1 0-.1.1-.1.3-.2.5c-.1-.3-.5-.5-.8-.6-.5-.1-1-.1-1.3 0-.1 0-.1.1-.1.1-.1.8 0 1.4.1 1.9 0 .1.1.1.1.2.6.1 1.1 0 1.4-.1l.8.2c.1 0 .1 0 .2-.1l.1-.3h.4v.3c0 .1.1.1.1.1.4 0 .7-.1.9-.2-.1-.1-.1-.2-.1-.2zm-2.5 0c-.3.1-.8.2-1.3.1-.1-.5-.2-1.1-.1-1.7.3 0 .7-.1 1.1 0s.7.3.8.6v.3c0 .2-.1.4-.3.6 0 0-.1 0-.2.1zm2.3 0c-.1.1-.3.1-.6.1v-.3s0-.1-.1-.1h-.7l-.1.3H75s.1 0 .1-.1c.3-.3.4-.7.3-1.1.1-.2.2-.4.2-.5v-.1h.8c.2.4.5 1.2.6 1.8z"/>
  <ellipse transform="rotate(-80.171 31.77527437 550.74559528)" class="st13" cx="31.8" cy="550.7" rx="16.2" ry="16.2"/>
  <ellipse transform="rotate(-13.952 31.83203575 550.77953154)" class="st14" cx="31.8" cy="550.8" rx="15.7" ry="15.7"/>
  <path class="st13" d="M46.6 550.8c0 8.2-6.7 14.9-14.9 14.9s-14.9-6.7-14.9-14.9 6.7-14.9 14.9-14.9c8.3 0 14.9 6.6 14.9 14.9z"/>
  <path class="st14" d="M22.1 556.8c0 .4-.3.7-.7.7-.4 0-.7-.3-.7-.7s.3-.7.7-.7c.4 0 .7.3.7.7zm20.7 0c0 .4-.3.7-.7.7s-.7-.3-.7-.7.3-.7.7-.7.7.3.7.7z"/>
  <path class="st15" d="M31.8 552.2c.8 0 1.6-.1 2.3-.2h-4.4c.7.2 1.4.2 2.1.2z"/>
  <path class="st14" d="M40.4 550.8c0 4.7-3.8 8.6-8.6 8.6-4.7 0-8.6-3.8-8.6-8.6s3.8-8.6 8.6-8.6c4.7 0 8.6 3.8 8.6 8.6z"/>
  <path d="M39.6 550.8c0 4.3-3.5 7.8-7.8 7.8s-7.8-3.5-7.8-7.8 3.5-7.8 7.8-7.8 7.8 3.5 7.8 7.8z" fill-rule="evenodd" clip-rule="evenodd" fill="#c1dbf5"/>
  <path d="M34.9 548.9c-.5.1-1-.4-1.1-1-.1-.7.2-1.3.7-1.3.5-.1 1 .4 1.1 1s-.2 1.2-.7 1.3zm-3 2.2c1.3 0 2.4-.4 2.4-1.2s-.9-1.7-2.4-1.7c-1.8 0-2.4.9-2.4 1.7 0 .8 1.1 1.2 2.4 1.2zm-3.2-2.2c-.5-.1-.9-.7-.7-1.3.1-.7.6-1.1 1.1-1s.9.7.7 1.3c0 .6-.6 1.1-1.1 1zm8.6-.2c0-2.3-2.5-4.8-5.5-4.8s-5.5 2.5-5.5 4.8c0 1.9 1.4 2.9 3.4 3.3h4.4c1.9-.5 3.2-1.4 3.2-3.3z" fill-rule="evenodd" clip-rule="evenodd" fill="#383c42" stroke="#383c42" stroke-width=".2877"/>
  <path class="st18" d="M29.5 548c-.1.3-.3.5-.6.5s-.4-.3-.4-.6c.1-.3.3-.5.6-.5.2 0 .4.3.4.6zm.4-.1c.1-.7-.2-1.3-.7-1.3-.5-.1-1 .4-1.1 1-.1.7.2 1.3.7 1.3.4.1 1-.4 1.1-1z"/>
  <path class="st19" d="M29.1 547.3c-.3 0-.5.2-.6.5s.1.6.4.6.5-.2.6-.5c0-.2-.2-.5-.4-.6z"/>
  <path class="st18" d="M34.7 548.5c-.3 0-.5-.2-.6-.5s.1-.6.4-.6c.3 0 .5.2.6.5 0 .2-.1.5-.4.6zm-.2-2c-.5.1-.9.7-.7 1.3.1.7.6 1.1 1.1 1s.9-.7.7-1.3c-.1-.6-.6-1.1-1.1-1z"/>
  <path class="st19" d="M34.5 547.3c-.3 0-.4.3-.4.6.1.3.3.5.6.5s.4-.3.4-.6c-.1-.3-.3-.5-.6-.5z"/>
  <path class="st20" d="M31.8 548.2c-1.8 0-2.4.9-2.4 1.7s1.1 1.1 2.4 1.1 2.4-.4 2.4-1.2c0-.7-.9-1.6-2.4-1.6z"/>
  <path class="st19" d="M34.3 551.9h-1l-4-.1c-2.9 1-5.7 4.1-6.3 7.4-.2 1.3-.5 3.2-.6 3.2.5.4 1 .8 1.6 1.1.3-4.3 1.3-6.4 1.3-6.4 1.5-3.2 3.6-4.4 6.4-4.2 4.3.3 6.7 5.2 6.5 11.2 1-.5 1.9-1 2.7-1.7v-1.6c-.1-3.7-3.2-8.2-6.6-8.9z"/>
  <path class="st14" d="M31.2 553.7c-2.6-.2-4.4.9-5.4 3.1 0 0-1.5 2.2-1.7 6.8 2.2 1.3 4.8 2.1 7.6 2.1 2 0 3.8-.4 5.6-1.1.2-5.8-2-10.6-6.1-10.9z"/>
  <path class="st14" d="M33.5 560.9c-.3-.1-.6-.1-.9 0-.1.1-.2.3-.2.5.1.2.2.3.4.4.3.1.6.1.8-.1.1-.1.2-.3.1-.5.1-.1-.1-.2-.2-.3zm.7.2c.1.4 0 .9-.1 1.4-.2.7-.5 1.4-1.1 1.8-.3.2-.8.2-1.2 0-.2-.1-.3-.3-.4-.5 0-.1 0-.3.1-.3h.1c.1 0 .1.2.2.2.2.2.5.3.8.2.6-.2.8-.7 1-1.2 0-.1.1-.2.1-.4-.3.2-.8.2-1.1 0s-.5-.6-.5-1c.1-.4.4-.8.8-.9.3-.1.7 0 .9.2.2.1.3.3.4.5zm-13.8-7.7c-.1-.6-.3-.9-.7-1.1-.2-.1-.3-.1-.4 0-.1 0-.2.1-.3.2-.2.2-.2.6-.1 1 0 .1 0 .1.1.2l1.4-.3zm-2.1 1.3c-.1-.3-.2-.7-.2-1-.1-.9 0-1.5.3-1.9.2-.2.4-.3.6-.4.1 0 .1 0 .2-.1.4-.1.7 0 1.1.1.5.3.8.8.9 1.7l1.1-.2.2 1.1-4.2.7zm3.4-5.1v1.1l-2.8-.1-.1-.8 2.9-.2zm-3.3.2c.1.1.1.2.2.4 0 .2 0 .3-.1.4-.1.1-.2.2-.3.2-.1 0-.3 0-.4-.1s-.2-.2-.2-.4c0-.3.1-.6.4-.7.1.1.3.1.4.2zm4.2-3.5l-.2.9-1.4-.5c-.7-.2-1.1-.2-1.2 0-.1.3 0 .5.2.7.1.1.3.2.5.3.3.1.8.2 1.4.3l-.2.9-3-.8.2-.8h.2c-.1-.3-.1-.6 0-.9.1-.4.4-.7.8-.9.3-.1.6-.1.8 0l1.9.8zm-1.4-3.3c-.2.5-.2.8 0 1s.4.1.6-.1c.1-.1.2-.3.2-.6l-.8-.3zm2.6.4c.1.1.2.1.3.2.7.5.8 1.2.3 1.9-.4.5-1 .6-1.9.2l.5-.9c.3.2.5.3.7.1.2-.3.1-.5-.3-.8-.2-.1-.4-.3-.7-.4 0 .2 0 .5-.3.8-.2.3-.5.5-.8.5-.4 0-.7 0-.9-.2-.7-.5-.8-1.1-.4-1.6.1-.1.2-.3.4-.4l-.2-.1.4-1 2.9 1.7zm-.2-1.2c-.3-.4-.5-.9-.7-1.5l.8-.5c.2.8.5 1.3.7 1.6.3.3.5.4.7.2.4-.3.3-.8-.2-1.5-.2-.3-.5-.6-.7-.9l.9-.6c.4.6.7 1.1.9 1.5.1.2.4.6.9 1.2l-.5.4c-.2-.1-.3-.1-.3-.1-.1.3-.3.5-.5.6-.7.6-1.4.4-2-.4zm2.9-3.2c.1-.1.2-.2.2-.4-.3.2-.5-.1-.6-.3 0-.2 0-.4.3-.5.2-.1.5.1.6.3.2.4 0 .9-.5.9zm2.5 1c0 .1 0 .2.1.3.1.2.3.2.4.2.2-.1.3-.2.2-.3 0-.1-.1-.2-.1-.2-.1-.1-.3-.2-.5-.2-.6-.1-1-.3-1-.8v-.2c0-.2.1-.4.3-.7.2-.2.5-.3 1-.4.4 0 .8.1 1.2.4l-.7.7c-.1-.2-.3-.3-.5-.4-.3 0-.5.1-.5.3 0 .1.1.2.2.3.2.1.4.1.7.2.2 0 .4.1.6.2.1.1.2.3.3.5.1.3 0 .6-.2.8-.2.3-.5.4-.8.5s-.6.1-.9 0c-.4-.1-.7-.4-.8-.9l1-.3zm6-2.1l-.2.8 1.2.2-.3.8-1.1-.2-.1.7 1.6.4-.3.8-2.7-.7 1.2-3.9 2.7.7c0 .2-.1.4-.2.8l-1.8-.4zm3.8 5.4l-.8-.5.9-1.2c.5-.6.6-1 .4-1.2-.2-.2-.5-.2-.8-.1-.2.1-.3.2-.4.4-.2.3-.5.7-.8 1.3l-.8-.5 1.7-2.6.7.4-.1.2c.3 0 .6.1.8.3.4.3.6.6.6 1 0 .3-.1.6-.2.8l-1.2 1.7zm3.5-.2c-.4-.4-.7-.5-.9-.3s-.2.4-.1.6c.1.1.3.3.5.4l.5-.7zm-1.2 2.3c-.1.1-.2.1-.3.2-.7.5-1.4.4-1.9-.3-.4-.5-.2-1.1.4-1.8l.7.7c-.3.2-.5.4-.3.7s.5.3.9 0c.2-.1.4-.3.6-.5-.2 0-.5-.2-.7-.5s-.3-.6-.3-.9c.1-.3.3-.6.5-.8.7-.5 1.3-.4 1.7.1.1.2.2.3.3.5l.2-.2.8.7-2.6 2.1zm3.9.2l-3.9 1.5-.3-.9 3.7-1.6zm-.3 2.1c-.1-.1-.2-.2-.2-.3-.1-.1-.1-.3 0-.4 0-.2.1-.3.3-.3.1-.1.3 0 .4.1l.3.3c.1.3 0 .6-.2.8-.3-.1-.4-.1-.6-.2zm-3.1 1l-.2-1.1 2.8-.6.3.8-2.9.9zm1.1 1.2h-.3c-.2.1-.2.2-.2.4s.1.3.3.3c.1 0 .2-.1.3-.1.1-.1.2-.3.2-.5.1-.6.5-.9 1-.9h.2c.2 0 .4.1.6.4.2.2.2.6.2 1s-.2.8-.5 1.2l-.6-.8c.2 0 .4-.2.4-.5s-.1-.5-.3-.5c-.1 0-.2.1-.3.2-.1.2-.2.4-.3.7 0 .2-.1.4-.3.5-.1.1-.3.2-.5.2-.3 0-.6-.1-.8-.3-.2-.3-.3-.5-.4-.8 0-.3 0-.6.1-.9.2-.4.5-.6 1-.6l.2 1zm-1.8 3.5c.8.2 1.5.4 1.9.5.3 0 .5 0 .5-.1.1-.4-.1-.6-.3-.7-.2-.1-.8-.2-1.6-.3l.2-.8 4.2.9-.1 1-1.5-.5c.1.3.1.6 0 .8-.1.4-.5.7-1.3.7-.5 0-1.1-.1-1.8-.3-.2-.1-.4-.1-.5-.1l.3-1.1z"/>
  <path d="M25.8 556.8c1-2.2 2.8-3.3 5.4-3.1 4.1.3 6.3 5.1 6.1 10.9.3-.1.6-.3.9-.4.2-6-2.2-10.9-6.5-11.2-2.8-.2-4.9 1-6.4 4.2 0 0-1 2.1-1.3 6.4l.1.1c.3-4.7 1.7-6.9 1.7-6.9z" fill-rule="evenodd" clip-rule="evenodd" fill="#f4e874"/>
  <path class="st22" d="M31.6 558.9c.1.1.1.1 0 0-2.9-1-5.7-1-6.1.1-.1.3-.1.6.1.9v-.1c.3-1.1 3-1.5 6-.9zm5 3.3c-.3 1.3-3 1.7-6 1.1h-.1c3 1.1 5.8 1 6.2-.1.1-.3.1-.6-.1-1z"/>
  <path class="st23" d="M36.6 562.2c.1-1.2-2-2.6-4.9-3.3.1 0 .1 0 .2.1 2.3.9 4.1 2.2 4.7 3.2zm-11-2.2c-.1 1.2 2 2.6 4.9 3.3-.1 0-.1 0-.2-.1-2.3-.8-4.1-2.1-4.7-3.2z"/>
  <path class="st24" d="M36.6 562.4c-.6-1.2-2.4-2.5-4.7-3.3-.1 0-.1 0-.2-.1h-.1c-3-.7-5.7-.3-6 1v.1c.6 1.1 2.4 2.4 4.7 3.2.1 0 .1 0 .2.1h.1c3 .6 5.7.2 6-1z"/>
  <path class="st22" d="M29.8 559.4c-.1 0-.2.1-.2.2v.1c0 .1 0 .2.1.2.1.1.2.1.3.1.1 0 .2-.1.2-.2.1-.1.1-.3 0-.4-.2 0-.3-.1-.4 0zm-1.7-.1c-.5.1-.9.5-1 1 0 .1-.1.4.1.5.1 0 .2.1.2 0l.1-.1c0-.2 0-.5.2-.7.2-.2.5-.4.8-.3.2.1.3.2.3.4v.1c0 .3-.2.5-.4.7-.2-.2-.4-.3-.5-.4 0 0-.1-.1-.2-.1s-.1 0-.1.1v.1c0 .1 0 .1.1.2l.2.1c.1.1.2.1.2.2 0 0-.1 0-.1.1v.2s.1.1.2.1c0 0 .1 0 .3-.1.1.1.2.2.2.3.1.1.2.3.3.3.1 0 .1 0 .2-.1v-.2c-.1-.2-.2-.4-.4-.5.2-.2.4-.4.5-.8v-.1c0-.3-.2-.7-.4-.9-.2-.2-.6-.2-.8-.1zm2.9.5c-.2 0-.4.2-.5.3v-.1c-.1-.1-.1-.1-.2-.1s-.1.1-.2.2v.2c0 .4.2.6.3.9.1.1.1.1.1 0 .1 0 .2-.2.2-.3v-.3c0-.1.1-.3.3-.3 0 0 .1 0 .1.1.1.1.1.3.1.4v.2c0 .1 0 .2.1.2h.2c.1-.1.2-.2.2-.3 0-.2 0-.5-.1-.8-.3-.2-.4-.3-.6-.3zm-1.4.4c-.1 0-.1.1-.1.1 0 .4.1.7.3 1 0 0 .1.1.2.1 0 0 .1 0 .1-.1s.1-.1 0-.3c-.1-.1-.2-.3-.3-.5v-.1c0-.1 0-.2-.1-.2h-.1zm3.1 1c.1 0 .1.1.1.2v.1c0 .1 0 .1-.1.2s-.4.1-.5.1-.2-.1-.2-.2v-.1c0-.1 0-.2.1-.2.3-.2.5-.2.6-.1zm-.4-.5c-.3.1-.6.4-.6.7v.1c0 .3.1.5.4.7.2.1.5.2.7.1v.2c-.1.3-.3.6-.6.7-.2 0-.4 0-.5-.1 0 0-.1-.1-.2-.1h-.1c-.1.1-.1.2-.1.3.1.1.2.3.3.3.2.2.6.2.9 0 .4-.3.6-.7.8-1.3.1-.3.1-.6.1-.9 0-.1-.1-.3-.3-.4-.3-.4-.6-.4-.8-.3zm1.4.4c-.2.3-.3.6-.3.9v.2c0 .2.2.3.3.4.2.1.4 0 .7-.2v.1c.1.2.2.2.3.2.1 0 .1-.1.1-.1.1-.1.1-.2 0-.3-.1-.1-.1-.2-.1-.4v-.1c0-.1 0-.2-.1-.3h-.2c-.1 0-.2.1-.2.2-.1.2-.2.4-.4.4h-.1v-.1c0-.1.1-.2.1-.3v-.1c0-.1.1-.2.1-.2v-.1l-.1-.1c0-.2-.1-.2-.1-.1z"/>
  <path class="st22" d="M31.9 560.1h-.3c-.1 0-.1.1-.1.2s0 .2.1.2h.2c.1.1.2.1.4.1.3 0 .4-.1.4-.3s-.2-.4-.4-.4c-.1 0-.2.1-.3.2z"/>
  <path class="st14" d="M29.7 559.3c-.1 0-.2.1-.2.2v.1c0 .1 0 .2.1.2.1.1.2.1.3.1.1 0 .2-.1.2-.2.1-.1.1-.3 0-.4-.2 0-.3-.1-.4 0zm-1.7-.1c-.5.1-.9.5-1 1 0 .1-.1.4.1.5.1 0 .2.1.2 0l.1-.1c0-.2 0-.5.2-.7.2-.2.5-.4.8-.3.2.1.3.2.3.4v.1c0 .3-.2.5-.4.7-.2-.2-.4-.3-.5-.4 0 0-.1-.1-.2-.1s-.1 0-.1.1v.1c0 .1 0 .1.1.2l.2.1c.1.1.2.1.2.2 0 0-.1 0-.1.1v.2s.1.1.2.1c0 0 .1 0 .3-.1.1.1.2.2.2.3.1.1.2.3.3.3.1 0 .1 0 .2-.1v-.2c-.1-.2-.2-.4-.4-.5.2-.2.4-.4.5-.8v-.1c0-.3-.2-.7-.4-.9-.2-.2-.5-.2-.8-.1zm2.9.5c-.2 0-.4.2-.5.3v-.1c-.1-.1-.1-.1-.2-.1s-.1.1-.2.2v.2c0 .3.2.6.3.9.1.1.1.1.1 0 .1 0 .2-.2.2-.3v-.3c0-.1.1-.3.3-.3 0 0 .1 0 .1.1.1.1.1.3.1.4v.2c0 .1 0 .2.1.2h.2c.1-.1.2-.2.2-.3 0-.2 0-.5-.1-.8-.2-.2-.4-.3-.6-.3zm-1.4.4c-.1 0-.1.1-.1.1 0 .4.1.7.3 1 0 0 .1.1.2.1 0 0 .1 0 .1-.1s.1-.1 0-.3c-.1-.1-.2-.3-.3-.5v-.1c0-.1 0-.2-.1-.2h-.1zm3.2 1c.1 0 .1.1.1.2v.1c0 .1 0 .1-.1.2s-.4.1-.5.1-.2-.1-.2-.2v-.1c0-.1 0-.2.1-.2.2-.2.4-.2.6-.1zm-.5-.5c-.3.1-.6.4-.6.7v.1c0 .3.1.5.4.7.2.1.5.2.7.1v.2c-.1.3-.3.6-.6.7-.2 0-.4 0-.5-.1 0 0-.1-.1-.2-.1h-.1c-.1.1-.1.2-.1.3.1.1.2.3.3.3.2.2.6.2.9 0 .4-.3.6-.7.8-1.3.1-.3.1-.6.1-.9 0-.1-.1-.3-.3-.4-.3-.4-.5-.4-.8-.3zm1.4.4c-.2.3-.3.6-.3.9v.2c0 .2.2.3.3.4.2.1.4 0 .7-.2v.1c.1.2.2.2.3.2.1 0 .1-.1.1-.1.1-.1.1-.2 0-.3-.1-.1-.1-.2-.1-.4v-.1c0-.1 0-.2-.1-.3h-.2c-.1 0-.2.1-.2.2-.1.2-.2.4-.4.4h-.1v-.1c0-.1.1-.2.1-.3v-.1c0-.1.1-.2.1-.2v-.1l-.1-.1c0-.2-.1-.2-.1-.1z"/>
  <path class="st19" d="M35 561.3c-.1 0-.1 0 0 0-.1 0-.1 0 0 0s.1 0 0 0c.1 0 .1 0 0 0v.2-.2zm.1 0s.1 0 0 0l.1.2v-.1.1l-.1-.2v.2-.2zm-5.2-1.8c.1.1.1.2 0 .3 0 .1-.1.1-.2.1s-.1 0-.2-.1-.1-.2 0-.3c0-.1.1-.2.2-.2s.2.1.2.2zm-1.1-.1c.3.2.5.6.4.9 0 .3-.2.6-.5.8.1.2.3.4.4.6v.2H29c-.1 0-.2-.2-.3-.3 0-.1-.1-.2-.3-.3-.1 0-.3.1-.3.1-.1 0-.1 0-.1-.1v-.2s.1 0 .2-.1c-.1-.1-.4-.3-.5-.4-.1-.1-.1-.1 0-.2h.2c.2.1.4.3.6.5.3-.2.5-.5.5-.8 0-.2-.2-.4-.4-.5-.3-.1-.7 0-.9.3-.2.2-.3.5-.3.8v.1h-.2c-.1-.1-.1-.3-.1-.5.1-.5.4-.9.9-1 .3-.1.6-.1.8.1zm2.5.7c.1.2.1.5.1.8 0 .1 0 .2-.1.2h-.1c-.1-.1-.1-.2-.1-.3 0-.2 0-.3-.1-.5 0-.1-.1-.1-.2-.1-.2 0-.3.2-.3.3v.4c0 .1 0 .2-.1.2h-.1c-.2-.3-.4-.6-.3-1 0-.1 0-.1.1-.1h.1c.1.1 0 .2 0 .3.1-.2.3-.5.5-.5.4 0 .5.1.6.3zm-1.6.1c.1.1 0 .2.1.3 0 .2.1.4.3.6v.2l-.1.1c-.1 0-.1-.1-.1-.1-.2-.3-.3-.6-.3-1 0 0 0-.1.1-.1-.1 0-.1 0 0 0zm3 .8c-.2-.1-.4-.1-.6 0-.1.1-.1.2-.1.3s.2.2.3.3c.2.1.4.1.5-.1.1-.1.1-.2.1-.3-.1 0-.1-.1-.2-.2zm.4.1c.1.3 0 .6-.1.9-.1.5-.3.9-.7 1.2-.2.1-.5.2-.8 0l-.3-.3c0-.1 0-.2.1-.2h.1c.1 0 .1.1.2.1.1.1.4.2.5.2.4-.1.5-.5.6-.8 0-.1.1-.2.1-.3-.2.1-.5.1-.8 0-.2-.1-.4-.4-.3-.7 0-.3.3-.5.5-.6s.5 0 .6.1c.2.1.3.3.3.4zm.7-.1c.1.1 0 .3-.1.4-.1.1-.1.3-.1.5 0 .1.1.1.2.1.3 0 .4-.2.5-.5 0-.1.1-.2.1-.2h.1c.1.1 0 .2 0 .3 0 .2 0 .3.1.4.1.1 0 .2 0 .2s0 .1-.1.1-.2-.1-.2-.2 0-.1-.1-.2c-.2.2-.4.3-.7.2-.1 0-.2-.2-.3-.3-.1-.3.1-.7.2-1 .3.2.4.2.4.2zm-2.3-.8c0 .1 0 .2.1.2h.3v-.2h-.3c0-.2-.1-.1-.1 0zm.8-.4c-.2 0-.4.2-.4.3 0 .2.1.2.4.2.2 0 .4-.1.4-.2-.1-.1-.2-.3-.4-.3z"/>
  <path class="st20" d="M31.6 560.2c0 .1 0 .1 0 0 0 .1.1 0 .2 0h.1v-.2c-.1 0-.2 0-.2-.1-.1.1-.1.2-.1.3z"/>
  <path class="st14" d="M32.1 560.1s-.1.1 0 0c-.1.1-.1 0-.1 0 0-.1 0-.1.1 0 0-.1 0-.1 0 0z"/>
  <path class="st22" d="M29.8 559.4c-.1 0-.2.1-.2.2v.1c0 .1 0 .2.1.2.1.1.2.1.3.1.1 0 .2-.1.2-.2.1-.1.1-.3 0-.4-.2 0-.3-.1-.4 0zm-1.7-.1c-.5.1-.9.5-1 1 0 .1-.1.4.1.5.1 0 .2.1.2 0l.1-.1c0-.2 0-.5.2-.7.2-.2.5-.4.8-.3.2.1.3.2.3.4v.1c0 .3-.2.5-.4.7-.2-.2-.4-.3-.5-.4 0 0-.1-.1-.2-.1s-.1 0-.1.1v.1c0 .1 0 .1.1.2l.2.1c.1.1.2.1.2.2 0 0-.1 0-.1.1v.2s.1.1.2.1c0 0 .1 0 .3-.1.1.1.2.2.2.3.1.1.2.3.3.3.1 0 .1 0 .2-.1v-.2c-.1-.2-.2-.4-.4-.5.2-.2.4-.4.5-.8v-.1c0-.3-.2-.7-.4-.9-.2-.2-.6-.2-.8-.1zm2.9.5c-.2 0-.4.2-.5.3v-.1c-.1-.1-.1-.1-.2-.1s-.1.1-.2.2v.2c0 .4.2.6.3.9.1.1.1.1.1 0 .1 0 .2-.2.2-.3v-.3c0-.1.1-.3.3-.3 0 0 .1 0 .1.1.1.1.1.3.1.4v.2c0 .1 0 .2.1.2h.2c.1-.1.2-.2.2-.3 0-.2 0-.5-.1-.8-.3-.2-.4-.3-.6-.3zm-1.4.4c-.1 0-.1.1-.1.1 0 .4.1.7.3 1 0 0 .1.1.2.1 0 0 .1 0 .1-.1s.1-.1 0-.3c-.1-.1-.2-.3-.3-.5v-.1c0-.1 0-.2-.1-.2h-.1zm3.1 1c.1 0 .1.1.1.2v.1c0 .1 0 .1-.1.2s-.4.1-.5.1-.2-.1-.2-.2v-.1c0-.1 0-.2.1-.2.3-.2.5-.2.6-.1zm-.4-.5c-.3.1-.6.4-.6.7v.1c0 .3.1.5.4.7.2.1.5.2.7.1v.2c-.1.3-.3.6-.6.7-.2 0-.4 0-.5-.1 0 0-.1-.1-.2-.1h-.1c-.1.1-.1.2-.1.3.1.1.2.3.3.3.2.2.6.2.9 0 .4-.3.6-.7.8-1.3.1-.3.1-.6.1-.9 0-.1-.1-.3-.3-.4-.3-.4-.6-.4-.8-.3zm1.4.4c-.2.3-.3.6-.3.9v.2c0 .2.2.3.3.4.2.1.4 0 .7-.2v.1c.1.2.2.2.3.2.1 0 .1-.1.1-.1.1-.1.1-.2 0-.3-.1-.1-.1-.2-.1-.4v-.1c0-.1 0-.2-.1-.3h-.2c-.1 0-.2.1-.2.2-.1.2-.2.4-.4.4h-.1v-.1c0-.1.1-.2.1-.3v-.1c0-.1.1-.2.1-.2v-.1l-.1-.1c0-.2-.1-.2-.1-.1z"/>
  <path class="st22" d="M31.9 560.1h-.3c-.1 0-.1.1-.1.2s0 .2.1.2h.2c.1.1.2.1.4.1.3 0 .4-.1.4-.3s-.2-.4-.4-.4c-.1 0-.2.1-.3.2z"/>
  <path class="st14" d="M29.7 559.3c-.1 0-.2.1-.2.2v.1c0 .1 0 .2.1.2.1.1.2.1.3.1.1 0 .2-.1.2-.2.1-.1.1-.3 0-.4-.2 0-.3-.1-.4 0zm-1.7-.1c-.5.1-.9.5-1 1 0 .1-.1.4.1.5.1 0 .2.1.2 0l.1-.1c0-.2 0-.5.2-.7.2-.2.5-.4.8-.3.2.1.3.2.3.4v.1c0 .3-.2.5-.4.7-.2-.2-.4-.3-.5-.4 0 0-.1-.1-.2-.1s-.1 0-.1.1v.1c0 .1 0 .1.1.2l.2.1c.1.1.2.1.2.2 0 0-.1 0-.1.1v.2s.1.1.2.1c0 0 .1 0 .3-.1.1.1.2.2.2.3.1.1.2.3.3.3.1 0 .1 0 .2-.1v-.2c-.1-.2-.2-.4-.4-.5.2-.2.4-.4.5-.8v-.1c0-.3-.2-.7-.4-.9-.2-.2-.5-.2-.8-.1zm2.9.5c-.2 0-.4.2-.5.3v-.1c-.1-.1-.1-.1-.2-.1s-.1.1-.2.2v.2c0 .3.2.6.3.9.1.1.1.1.1 0 .1 0 .2-.2.2-.3v-.3c0-.1.1-.3.3-.3 0 0 .1 0 .1.1.1.1.1.3.1.4v.2c0 .1 0 .2.1.2h.2c.1-.1.2-.2.2-.3 0-.2 0-.5-.1-.8-.2-.2-.4-.3-.6-.3zm-1.4.4c-.1 0-.1.1-.1.1 0 .4.1.7.3 1 0 0 .1.1.2.1 0 0 .1 0 .1-.1s.1-.1 0-.3c-.1-.1-.2-.3-.3-.5v-.1c0-.1 0-.2-.1-.2h-.1z"/>
  <path class="st19" d="M32.7 561.1c.1 0 .1.1.1.2v.1c0 .1 0 .1-.1.2s-.4.1-.5.1-.2-.1-.2-.2v-.1c0-.1 0-.2.1-.2.2-.2.4-.2.6-.1zm-.5-.5c-.3.1-.6.4-.6.7v.1c0 .3.1.5.4.7.2.1.5.2.7.1v.2c-.1.3-.3.6-.6.7-.2 0-.4 0-.5-.1 0 0-.1-.1-.2-.1h-.1c-.1.1-.1.2-.1.3.1.1.2.3.3.3.2.2.6.2.9 0 .4-.3.6-.7.8-1.3.1-.3.1-.6.1-.9 0-.1-.1-.3-.3-.4-.3-.4-.5-.4-.8-.3zm1.4.4c-.2.3-.3.6-.3.9v.2c0 .2.2.3.3.4.2.1.4 0 .7-.2v.1c.1.2.2.2.3.2.1 0 .1-.1.1-.1.1-.1.1-.2 0-.3-.1-.1-.1-.2-.1-.4v-.1c0-.1 0-.2-.1-.3h-.2c-.1 0-.2.1-.2.2-.1.2-.2.4-.4.4h-.1v-.1c0-.1.1-.2.1-.3v-.1c0-.1.1-.2.1-.2v-.1l-.1-.1c0-.2-.1-.2-.1-.1zm1.4.3c-.1 0-.1 0 0 0-.1 0-.1 0 0 0s.1 0 0 0c.1 0 .1 0 0 0v.2-.2zm.1 0s.1 0 0 0l.1.2v-.1.1l-.1-.2v.2-.2zm-5.2-1.8c.1.1.1.2 0 .3 0 .1-.1.1-.2.1s-.1 0-.2-.1-.1-.2 0-.3c0-.1.1-.2.2-.2s.2.1.2.2zm-1.1-.1c.3.2.5.6.4.9 0 .3-.2.6-.5.8.1.2.3.4.4.6v.2H29c-.1 0-.2-.2-.3-.3 0-.1-.1-.2-.3-.3-.1 0-.3.1-.3.1-.1 0-.1 0-.1-.1v-.2s.1 0 .2-.1c-.1-.1-.4-.3-.5-.4-.1-.1-.1-.1 0-.2h.2c.2.1.4.3.6.5.3-.2.5-.5.5-.8 0-.2-.2-.4-.4-.5-.3-.1-.7 0-.9.3-.2.2-.3.5-.3.8v.1h-.2c-.1-.1-.1-.3-.1-.5.1-.5.4-.9.9-1 .3-.1.6-.1.8.1zm2.5.7c.1.2.1.5.1.8 0 .1 0 .2-.1.2h-.1c-.1-.1-.1-.2-.1-.3 0-.2 0-.3-.1-.5 0-.1-.1-.1-.2-.1-.2 0-.3.2-.3.3v.4c0 .1 0 .2-.1.2h-.1c-.2-.3-.4-.6-.3-1 0-.1 0-.1.1-.1h.1c.1.1 0 .2 0 .3.1-.2.3-.5.5-.5.4 0 .5.1.6.3zm-1.6.1c.1.1 0 .2.1.3 0 .2.1.4.3.6v.2l-.1.1c-.1 0-.1-.1-.1-.1-.2-.3-.3-.6-.3-1 0 0 0-.1.1-.1-.1 0-.1 0 0 0z"/>
  <path class="st14" d="M32.7 561c-.2-.1-.4-.1-.6 0-.1.1-.1.2-.1.3s.2.2.3.3c.2.1.4.1.5-.1.1-.1.1-.2.1-.3-.1 0-.1-.1-.2-.2zm.4.1c.1.3 0 .6-.1.9-.1.5-.3.9-.7 1.2-.2.1-.5.2-.8 0l-.3-.3c0-.1 0-.2.1-.2h.1c.1 0 .1.1.2.1.1.1.4.2.5.2.4-.1.5-.5.6-.8 0-.1.1-.2.1-.3-.2.1-.5.1-.8 0-.2-.1-.4-.4-.3-.7 0-.3.3-.5.5-.6s.5 0 .6.1c.2.1.3.3.3.4zm.7-.1c.1.1 0 .3-.1.4-.1.1-.1.3-.1.5 0 .1.1.1.2.1.3 0 .4-.2.5-.5 0-.1.1-.2.1-.2h.1c.1.1 0 .2 0 .3 0 .2 0 .3.1.4.1.1 0 .2 0 .2s0 .1-.1.1-.2-.1-.2-.2 0-.1-.1-.2c-.2.2-.4.3-.7.2-.1 0-.2-.2-.3-.3-.1-.3.1-.7.2-1 .3.2.4.2.4.2z"/>
  <path class="st19" d="M31.5 560.2c0 .1 0 .2.1.2h.3v-.2h-.3c0-.2-.1-.1-.1 0zm.8-.4c-.2 0-.4.2-.4.3 0 .2.1.2.4.2.2 0 .4-.1.4-.2-.1-.1-.2-.3-.4-.3z"/>
  <path class="st20" d="M31.6 560.2c0 .1 0 .1 0 0 0 .1.1 0 .2 0h.1v-.2c-.1 0-.2 0-.2-.1-.1.1-.1.2-.1.3z"/>
  <path class="st14" d="M32.1 560.1s-.1.1 0 0c-.1.1-.1 0-.1 0 0-.1 0-.1.1 0 0-.1 0-.1 0 0z"/>
  <path class="st22" d="M69.1 544.6c.1 0 .2 0 .3.1-8.7-3.1-16.6-2.9-17.8.4-.3.8-.2 1.7.3 2.7 0-.1 0-.3.1-.4.8-3.6 8.5-4.8 17.1-2.8zm14.3 9.4c0 .1 0 .3-.1.4-.8 3.5-8.5 4.7-17.1 2.7-.1 0-.2 0-.3-.1 8.7 3.1 16.6 2.9 17.8-.4.1-.3.1-.6.2-.9 0-.5-.2-1.1-.5-1.7z"/>
  <path class="st23" d="M83.4 554c.3-3.4-5.8-7.4-14-9.3.1.1.3.1.4.2 6.8 2.3 12 6 13.6 9.1zM52 547.7c-.3 3.4 5.8 7.4 14 9.3-.1-.1-.3-.1-.4-.2-6.9-2.4-12.1-6.1-13.6-9.1z"/>
  <path class="st24" d="M83.3 554.4c0-.1 0-.3.1-.4-1.6-3.1-6.8-6.7-13.5-9.2-.1-.1-.3-.1-.4-.2-.1 0-.2 0-.3-.1-8.6-2-16.3-.7-17.1 2.7 0 .1 0 .3-.1.4 1.6 3.1 6.8 6.7 13.5 9.2.1.1.3.1.4.2.1 0 .2 0 .3.1 8.6 1.9 16.3.7 17.1-2.7z"/>
  <path class="st22" d="M63.8 545.8c-.3.1-.5.4-.6.6v.3c0 .2.1.5.2.7.2.2.5.4.7.3.3 0 .5-.2.7-.5s.2-.8-.1-1.1c-.2-.3-.5-.4-.9-.3zm-4.7-.4c-1.5.3-2.6 1.5-2.8 3v.1c-.1.4-.2 1.1.3 1.5.2.1.4.2.7.1.1-.1.2-.2.2-.4-.1-.6.1-1.6.7-2.1.5-.6 1.5-1.1 2.4-.7.5.2.9.6.9 1.1v.2c0 .8-.6 1.5-1.1 1.9-.5-.5-1-.9-1.6-1.3-.1-.1-.3-.2-.5-.2s-.3.1-.3.2c-.1.1-.1.3-.1.4 0 .2.1.3.2.5l.5.4c.2.2.4.3.7.5-.1 0-.1.1-.2.1-.1.1-.1.2-.1.4 0 .1 0 .2.1.4.1.1.2.4.5.4.1 0 .2 0 .9-.3.3.3.5.6.6.8l.1.1v.1c.2.4.5.8.9.9.2 0 .4 0 .5-.2.1-.1.1-.2.1-.3s0-.3-.1-.3c-.3-.6-.7-1.1-1.1-1.5.6-.5 1.2-1.2 1.4-2.3v-.4c0-1-.5-2-1.3-2.5-.9-.7-1.9-.7-2.5-.6zm8.1 1.7c-.6.1-1.1.4-1.4.9 0-.1 0-.1-.1-.2-.2-.2-.4-.3-.6-.2s-.4.3-.4.5v.5c0 1 .5 1.9 1 2.5.2.2.3.2.4.1.3-.1.5-.5.5-.8v-.1c-.1-.2-.1-.5-.1-.7v-.4c.1-.4.3-.7.7-.8.1 0 .2.1.2.2.2.4.2.8.2 1.2v.5c0 .2.1.5.3.6.1.1.3.1.4.1.4-.2.4-.6.4-.8 0-.7 0-1.5-.4-2.3 0-.6-.5-.9-1.1-.8zm-3.9 1c-.2.1-.3.2-.3.4-.1 1 .3 2.1.9 2.9.1.1.3.4.6.4.1 0 .3-.1.3-.2.1-.2.2-.4.1-.7-.3-.4-.6-.9-.7-1.5v-.3c0-.2 0-.5-.2-.7-.3-.3-.6-.3-.7-.3zm9 2.9c.2.1.4.3.4.5v.2c0 .2-.1.4-.2.5-.4.4-1 .3-1.3.2-.2-.1-.5-.2-.6-.6v-.2c0-.2.1-.4.2-.6.4-.2 1-.3 1.5 0zm-1.2-1.5c-.9.3-1.6 1-1.7 1.9v.3c0 .7.4 1.5 1.1 1.9.6.4 1.3.4 2 .2 0 .1 0 .1-.1.2v.1l-.1.2c-.4.8-.7 1.7-1.6 1.9-.4.1-1 0-1.3-.4l-.1-.1c-.1-.1-.2-.3-.4-.3s-.3 0-.4.1c-.2.2-.4.6-.3.9.2.4.5.7.9 1 .7.5 1.7.5 2.5 0 1.1-.7 1.8-1.9 2.2-3.6.2-.9.4-1.8.2-2.7-.1-.4-.4-.8-.8-1.1-.6-.6-1.5-.8-2.1-.5zm3.9 1.2c-.5.9-.8 1.7-.8 2.5v.4c.1.5.4.9.9 1.1.6.2 1.2.1 1.9-.5 0 .1 0 .1.1.2.2.5.5.7.8.6.1 0 .3-.2.4-.3.2-.3.2-.7 0-.9-.2-.3-.2-.6-.2-1v-.4c0-.3.1-.6-.2-.8-.1-.1-.3-.1-.4-.1-.4.1-.5.4-.5.7-.2.5-.6 1.1-1.2 1.2-.2 0-.3-.1-.3-.1v-.3c0-.3.1-.6.2-.9l.1-.2c.1-.2.3-.4.3-.7 0-.1 0-.3-.1-.4-.1-.1-.2-.2-.4-.2-.3-.2-.5-.1-.6.1zm-5-2.8c-.5 0-.5-.1-.5-.1-.1-.1-.1-.1-.2-.1-.2 0-.3.3-.3.6s.1.6.3.6c0 0 .1 0 .1-.1s.3-.1.5-.1h.1c.2.3.5.4 1 .4.7 0 1.1-.3 1.1-.8s-.5-1.1-1.1-1.1c-.5 0-.9.3-1 .7z"/>
  <path class="st14" d="M63.6 545.5c-.3.1-.5.4-.6.6v.3c0 .2.1.5.2.7.2.2.5.4.7.3.3 0 .5-.2.7-.5s.2-.8-.1-1.1c-.2-.2-.6-.4-.9-.3zm-4.8-.3c-1.5.3-2.6 1.5-2.8 3v.1c-.1.4-.2 1.1.3 1.5.2.1.4.2.7.1.1-.1.2-.2.2-.4-.1-.6.1-1.6.7-2.1.5-.6 1.5-1.1 2.4-.7.5.2.9.6.9 1.1v.2c0 .8-.6 1.5-1.1 1.9-.5-.5-1-.9-1.6-1.3-.1-.1-.3-.2-.5-.2s-.3.1-.3.2c-.1.1-.1.3-.1.4 0 .2.1.3.2.5l.5.4c.2.2.4.3.7.5-.1 0-.1.1-.2.1-.1.1-.1.2-.1.4 0 .1 0 .2.1.4.1.1.2.4.5.4.1 0 .2 0 .9-.3.3.3.5.6.6.8l.1.1v.1c.2.4.5.8.9.9.2 0 .4 0 .5-.2.1-.1.1-.2.1-.3s0-.3-.1-.3c-.3-.6-.7-1.1-1.1-1.5.6-.5 1.2-1.2 1.4-2.3v-.4c0-1-.5-2-1.3-2.5-.8-.7-1.8-.8-2.5-.6zm8.2 1.6c-.6.1-1.1.4-1.4.9 0-.1 0-.1-.1-.2-.2-.2-.4-.3-.6-.2s-.4.3-.4.5v.5c0 1 .5 1.9 1 2.5.2.2.3.2.4.1.3-.1.5-.5.5-.8v-.1c-.1-.2-.1-.5-.1-.7v-.4c.1-.4.3-.7.7-.8.1 0 .2.1.2.2.2.4.2.8.2 1.2v.5c0 .2.1.5.3.6.1.1.3.1.4.1.4-.2.4-.6.4-.8 0-.7 0-1.5-.4-2.3 0-.5-.5-.9-1.1-.8zm-3.9 1.1c-.2.1-.3.2-.3.4-.1 1 .3 2.1.9 2.9.1.1.3.4.6.4.1 0 .3-.1.3-.2.1-.2.2-.4.1-.7-.3-.4-.6-.9-.7-1.5v-.3c0-.2 0-.5-.2-.7-.4-.4-.6-.4-.7-.3zm9 2.8c.2.1.4.3.4.5v.2c0 .2-.1.4-.2.5-.4.4-1 .3-1.3.2-.2-.1-.5-.2-.6-.6v-.2c0-.2.1-.4.2-.6.4-.2 1-.2 1.5 0zm-1.2-1.5c-.9.3-1.6 1-1.7 1.9v.3c0 .7.4 1.5 1.1 1.9.6.4 1.3.4 2 .2 0 .1 0 .1-.1.2v.1l-.1.2c-.4.8-.7 1.7-1.6 1.9-.4.1-1 0-1.3-.4l-.1-.1c-.1-.1-.2-.3-.4-.3s-.3 0-.4.1c-.2.2-.4.6-.3.9.2.4.5.7.9 1 .7.5 1.7.5 2.5 0 1.1-.7 1.8-1.9 2.2-3.6.2-.9.4-1.8.2-2.7-.1-.4-.4-.8-.8-1.1-.7-.6-1.5-.7-2.1-.5zm3.9 1.2c-.5.9-.8 1.7-.8 2.5v.4c.1.5.4.9.9 1.1.6.2 1.2.1 1.9-.5 0 .1 0 .2.1.2.2.5.5.7.8.6.1 0 .3-.2.4-.3.2-.3.2-.7 0-.9-.2-.3-.2-.6-.2-1v-.4c0-.3.1-.6-.2-.8-.1-.1-.3-.1-.4-.1-.4.1-.5.4-.5.7-.2.5-.6 1.1-1.2 1.2-.2 0-.3-.1-.3-.1v-.3c0-.3.1-.6.2-.9l.1-.2c.1-.2.3-.4.3-.7 0-.1 0-.3-.1-.4-.1-.1-.2-.2-.4-.2-.3-.1-.5 0-.6.1z"/>
  <path class="st19" d="M78.7 551.4c-.1 0-.2 0-.2-.1 0 0 0-.1.1-.1h.3s.1 0 .1.1c0 0 0 .1-.1.1h-.1v.5s0 .1-.1.1c0 0-.1 0-.1-.1l.1-.5z"/>
  <path class="st19" d="M79.1 551.4c0-.1 0-.1 0 0 .1-.1.2 0 .2 0l.1.4.1-.4s0-.1.1-.1c0 0 .1 0 .1.1l.1.5s0 .1-.1.1c0 0-.1 0-.1-.1l-.1-.4-.1.4s0 .1-.1.1c0 0-.1 0-.1-.1l-.1-.5-.1.5s0 .1-.1.1c0 0-.1 0-.1-.1l.3-.5zM64.3 546c.2.3.2.7 0 .9-.1.2-.3.3-.5.4-.2 0-.4-.1-.5-.2-.2-.2-.2-.5-.1-.8.1-.2.2-.4.4-.5.3-.1.6 0 .7.2zm-3.2-.2c.8.6 1.3 1.7 1.2 2.7s-.7 1.8-1.5 2.3c.4.5.8 1 1.2 1.7.1.1.1.3 0 .4-.1.1-.2.1-.3.1-.3-.1-.7-.7-.8-.8-.1-.2-.3-.5-.8-1-.3.1-.8.3-.9.3-.2 0-.3-.1-.4-.3-.1-.2-.1-.4 0-.6.1-.1.3-.1.5-.2-.4-.4-1.1-.9-1.4-1.1-.2-.2-.2-.4 0-.6 0-.1.1-.1.2-.1s.2.1.3.1c.6.4 1.1.9 1.7 1.4.8-.5 1.5-1.4 1.4-2.4-.1-.6-.5-1.1-1.1-1.3-.9-.3-2 .1-2.7.8-.6.6-.8 1.5-.7 2.3 0 .1 0 .2-.1.2-.1.1-.3 0-.5-.1-.4-.4-.3-1-.2-1.4.2-1.4 1.2-2.5 2.7-2.8.7-.2 1.5-.1 2.2.4zm7 2c.3.7.4 1.5.3 2.2 0 .2-.1.5-.3.6h-.3c-.3-.2-.2-.6-.2-.9 0-.5 0-.9-.3-1.3-.1-.2-.3-.3-.5-.3-.5.1-.8.5-.9 1-.1.4 0 .8.1 1.2 0 .2-.1.5-.4.6-.1 0-.1 0-.2-.1-.6-.9-1.1-1.8-.9-2.9 0-.2.1-.3.3-.4.1 0 .3 0 .3.1.2.3 0 .6.1.9.2-.7.8-1.4 1.6-1.5.7 0 1.1.3 1.3.8zm-4.6.4c.2.2.1.6.2.9.1.6.4 1.1.8 1.6.1.2 0 .4-.1.5s-.1.1-.2.1c-.2 0-.3-.2-.4-.3-.6-.7-.9-1.8-.8-2.8 0-.1.1-.2.2-.2s.2.1.3.2zm8.7 2.3c-.5-.3-1.2-.3-1.7.1-.3.2-.4.6-.3 1s.4.6.8.8c.5.2 1.1.2 1.5-.2.3-.2.3-.7.2-1-.1-.3-.3-.6-.5-.7zm1.2.3c.2.8 0 1.7-.2 2.6-.3 1.4-.9 2.6-2.1 3.5-.7.4-1.6.4-2.2 0-.3-.2-.6-.5-.9-.9-.1-.2 0-.5.2-.6.1 0 .1-.1.2-.1.2 0 .3.3.4.4.4.4 1 .6 1.6.4 1.1-.3 1.5-1.3 1.8-2.2.1-.2.2-.5.2-.7-.6.4-1.6.4-2.2 0s-1.1-1.2-.9-2c.1-.8.7-1.5 1.6-1.8.6-.2 1.3-.1 1.8.3.3.3.6.7.7 1.1zm2.1-.3c.3.4-.1.8-.3 1.2-.2.4-.4.9-.2 1.3.1.2.3.2.5.2.7 0 1.2-.7 1.4-1.3.1-.2.1-.5.4-.5h.2c.2.3.1.6.1.9 0 .4-.1.9.3 1.3.2.2.1.5 0 .7 0 .1-.1.2-.2.2-.3 0-.5-.3-.6-.5s-.1-.4-.2-.5c-.5.5-1.2 1-1.9.7-.4-.1-.7-.5-.7-.9-.2-1 .3-2 .7-2.7.1-.2.4-.2.5-.1zm-6.6-2.5c0 .3.1.6.2.6 0 0 .1 0 .1-.1s.3-.1.5-.1h.3v-.3c0-.2 0-.3-.1-.3h-.1c-.5 0-.6-.1-.6-.1-.1-.1-.1-.1-.2-.1 0-.1-.1.2-.1.4z"/>
  <path class="st19" d="M70.9 547c-.6 0-1.1.5-1.1 1s.4.7 1.1.7 1.1-.2 1.1-.7c0-.4-.5-1-1.1-1z"/>
  <path class="st20" d="M69 548c0 .3.1.4.1.4.1-.1.3-.1.6-.2h.1v-.4c-.4 0-.7-.1-.7-.2 0 0-.1.2-.1.4z"/>
  <path class="st14" d="M70.4 547.8c0 .1-.1.2-.2.2s-.1-.1-.1-.2.1-.2.2-.2.1.1.1.2z"/>
  <path class="st19" d="M70.3 547.9s-.1.1 0 0c-.1.1-.1 0 0 0-.1-.1-.1-.1 0 0-.1-.1 0-.1 0 0z"/>
  <path class="st22" d="M63.8 545.8c-.3.1-.5.4-.6.6v.3c0 .2.1.5.2.7.2.2.5.4.7.3.3 0 .5-.2.7-.5s.2-.8-.1-1.1c-.2-.3-.5-.4-.9-.3zm-4.7-.4c-1.5.3-2.6 1.5-2.8 3v.1c-.1.4-.2 1.1.3 1.5.2.1.4.2.7.1.1-.1.2-.2.2-.4-.1-.6.1-1.6.7-2.1.5-.6 1.5-1.1 2.4-.7.5.2.9.6.9 1.1v.2c0 .8-.6 1.5-1.1 1.9-.5-.5-1-.9-1.6-1.3-.1-.1-.3-.2-.5-.2s-.3.1-.3.2c-.1.1-.1.3-.1.4 0 .2.1.3.2.5l.5.4c.2.2.4.3.7.5-.1 0-.1.1-.2.1-.1.1-.1.2-.1.4 0 .1 0 .2.1.4.1.1.2.4.5.4.1 0 .2 0 .9-.3.3.3.5.6.6.8l.1.1v.1c.2.4.5.8.9.9.2 0 .4 0 .5-.2.1-.1.1-.2.1-.3s0-.3-.1-.3c-.3-.6-.7-1.1-1.1-1.5.6-.5 1.2-1.2 1.4-2.3v-.4c0-1-.5-2-1.3-2.5-.9-.7-1.9-.7-2.5-.6zm8.1 1.7c-.6.1-1.1.4-1.4.9 0-.1 0-.1-.1-.2-.2-.2-.4-.3-.6-.2s-.4.3-.4.5v.5c0 1 .5 1.9 1 2.5.2.2.3.2.4.1.3-.1.5-.5.5-.8v-.1c-.1-.2-.1-.5-.1-.7v-.4c.1-.4.3-.7.7-.8.1 0 .2.1.2.2.2.4.2.8.2 1.2v.5c0 .2.1.5.3.6.1.1.3.1.4.1.4-.2.4-.6.4-.8 0-.7 0-1.5-.4-2.3 0-.6-.5-.9-1.1-.8zm-3.9 1c-.2.1-.3.2-.3.4-.1 1 .3 2.1.9 2.9.1.1.3.4.6.4.1 0 .3-.1.3-.2.1-.2.2-.4.1-.7-.3-.4-.6-.9-.7-1.5v-.3c0-.2 0-.5-.2-.7-.3-.3-.6-.3-.7-.3zm9 2.9c.2.1.4.3.4.5v.2c0 .2-.1.4-.2.5-.4.4-1 .3-1.3.2-.2-.1-.5-.2-.6-.6v-.2c0-.2.1-.4.2-.6.4-.2 1-.3 1.5 0zm-1.2-1.5c-.9.3-1.6 1-1.7 1.9v.3c0 .7.4 1.5 1.1 1.9.6.4 1.3.4 2 .2 0 .1 0 .1-.1.2v.1l-.1.2c-.4.8-.7 1.7-1.6 1.9-.4.1-1 0-1.3-.4l-.1-.1c-.1-.1-.2-.3-.4-.3s-.3 0-.4.1c-.2.2-.4.6-.3.9.2.4.5.7.9 1 .7.5 1.7.5 2.5 0 1.1-.7 1.8-1.9 2.2-3.6.2-.9.4-1.8.2-2.7-.1-.4-.4-.8-.8-1.1-.6-.6-1.5-.8-2.1-.5zm3.9 1.2c-.5.9-.8 1.7-.8 2.5v.4c.1.5.4.9.9 1.1.6.2 1.2.1 1.9-.5 0 .1 0 .1.1.2.2.5.5.7.8.6.1 0 .3-.2.4-.3.2-.3.2-.7 0-.9-.2-.3-.2-.6-.2-1v-.4c0-.3.1-.6-.2-.8-.1-.1-.3-.1-.4-.1-.4.1-.5.4-.5.7-.2.5-.6 1.1-1.2 1.2-.2 0-.3-.1-.3-.1v-.3c0-.3.1-.6.2-.9l.1-.2c.1-.2.3-.4.3-.7 0-.1 0-.3-.1-.4-.1-.1-.2-.2-.4-.2-.3-.2-.5-.1-.6.1zm-5-2.8c-.5 0-.5-.1-.5-.1-.1-.1-.1-.1-.2-.1-.2 0-.3.3-.3.6s.1.6.3.6c0 0 .1 0 .1-.1s.3-.1.5-.1h.1c.2.3.5.4 1 .4.7 0 1.1-.3 1.1-.8s-.5-1.1-1.1-1.1c-.5 0-.9.3-1 .7z"/>
  <path class="st14" d="M63.6 545.5c-.3.1-.5.4-.6.6v.3c0 .2.1.5.2.7.2.2.5.4.7.3.3 0 .5-.2.7-.5s.2-.8-.1-1.1c-.2-.2-.6-.4-.9-.3zm-4.8-.3c-1.5.3-2.6 1.5-2.8 3v.1c-.1.4-.2 1.1.3 1.5.2.1.4.2.7.1.1-.1.2-.2.2-.4-.1-.6.1-1.6.7-2.1.5-.6 1.5-1.1 2.4-.7.5.2.9.6.9 1.1v.2c0 .8-.6 1.5-1.1 1.9-.5-.5-1-.9-1.6-1.3-.1-.1-.3-.2-.5-.2s-.3.1-.3.2c-.1.1-.1.3-.1.4 0 .2.1.3.2.5l.5.4c.2.2.4.3.7.5-.1 0-.1.1-.2.1-.1.1-.1.2-.1.4 0 .1 0 .2.1.4.1.1.2.4.5.4.1 0 .2 0 .9-.3.3.3.5.6.6.8l.1.1v.1c.2.4.5.8.9.9.2 0 .4 0 .5-.2.1-.1.1-.2.1-.3s0-.3-.1-.3c-.3-.6-.7-1.1-1.1-1.5.6-.5 1.2-1.2 1.4-2.3v-.4c0-1-.5-2-1.3-2.5-.8-.7-1.8-.8-2.5-.6zm8.2 1.6c-.6.1-1.1.4-1.4.9 0-.1 0-.1-.1-.2-.2-.2-.4-.3-.6-.2s-.4.3-.4.5v.5c0 1 .5 1.9 1 2.5.2.2.3.2.4.1.3-.1.5-.5.5-.8v-.1c-.1-.2-.1-.5-.1-.7v-.4c.1-.4.3-.7.7-.8.1 0 .2.1.2.2.2.4.2.8.2 1.2v.5c0 .2.1.5.3.6.1.1.3.1.4.1.4-.2.4-.6.4-.8 0-.7 0-1.5-.4-2.3 0-.5-.5-.9-1.1-.8zm-3.9 1.1c-.2.1-.3.2-.3.4-.1 1 .3 2.1.9 2.9.1.1.3.4.6.4.1 0 .3-.1.3-.2.1-.2.2-.4.1-.7-.3-.4-.6-.9-.7-1.5v-.3c0-.2 0-.5-.2-.7-.4-.4-.6-.4-.7-.3z"/>
  <path class="st19" d="M72.1 550.7c.2.1.4.3.4.5v.2c0 .2-.1.4-.2.5-.4.4-1 .3-1.3.2-.2-.1-.5-.2-.6-.6v-.2c0-.2.1-.4.2-.6.4-.2 1-.2 1.5 0zm-1.2-1.5c-.9.3-1.6 1-1.7 1.9v.3c0 .7.4 1.5 1.1 1.9.6.4 1.3.4 2 .2 0 .1 0 .1-.1.2v.1l-.1.2c-.4.8-.7 1.7-1.6 1.9-.4.1-1 0-1.3-.4l-.1-.1c-.1-.1-.2-.3-.4-.3s-.3 0-.4.1c-.2.2-.4.6-.3.9.2.4.5.7.9 1 .7.5 1.7.5 2.5 0 1.1-.7 1.8-1.9 2.2-3.6.2-.9.4-1.8.2-2.7-.1-.4-.4-.8-.8-1.1-.7-.6-1.5-.7-2.1-.5zm3.9 1.2c-.5.9-.8 1.7-.8 2.5v.4c.1.5.4.9.9 1.1.6.2 1.2.1 1.9-.5 0 .1 0 .2.1.2.2.5.5.7.8.6.1 0 .3-.2.4-.3.2-.3.2-.7 0-.9-.2-.3-.2-.6-.2-1v-.4c0-.3.1-.6-.2-.8-.1-.1-.3-.1-.4-.1-.4.1-.5.4-.5.7-.2.5-.6 1.1-1.2 1.2-.2 0-.3-.1-.3-.1v-.3c0-.3.1-.6.2-.9l.1-.2c.1-.2.3-.4.3-.7 0-.1 0-.3-.1-.4-.1-.1-.2-.2-.4-.2-.3-.1-.5 0-.6.1zm3.9 1c-.1 0-.2 0-.2-.1 0 0 0-.1.1-.1h.3s.1 0 .1.1c0 0 0 .1-.1.1h-.1v.5s0 .1-.1.1c0 0-.1 0-.1-.1l.1-.5z"/>
  <path class="st19" d="M79.1 551.4c0-.1 0-.1 0 0 .1-.1.2 0 .2 0l.1.4.1-.4s0-.1.1-.1c0 0 .1 0 .1.1l.1.5s0 .1-.1.1c0 0-.1 0-.1-.1l-.1-.4-.1.4s0 .1-.1.1c0 0-.1 0-.1-.1l-.1-.5-.1.5s0 .1-.1.1c0 0-.1 0-.1-.1l.3-.5zM64.3 546c.2.3.2.7 0 .9-.1.2-.3.3-.5.4-.2 0-.4-.1-.5-.2-.2-.2-.2-.5-.1-.8.1-.2.2-.4.4-.5.3-.1.6 0 .7.2zm-3.2-.2c.8.6 1.3 1.7 1.2 2.7s-.7 1.8-1.5 2.3c.4.5.8 1 1.2 1.7.1.1.1.3 0 .4-.1.1-.2.1-.3.1-.3-.1-.7-.7-.8-.8-.1-.2-.3-.5-.8-1-.3.1-.8.3-.9.3-.2 0-.3-.1-.4-.3-.1-.2-.1-.4 0-.6.1-.1.3-.1.5-.2-.4-.4-1.1-.9-1.4-1.1-.2-.2-.2-.4 0-.6 0-.1.1-.1.2-.1s.2.1.3.1c.6.4 1.1.9 1.7 1.4.8-.5 1.5-1.4 1.4-2.4-.1-.6-.5-1.1-1.1-1.3-.9-.3-2 .1-2.7.8-.6.6-.8 1.5-.7 2.3 0 .1 0 .2-.1.2-.1.1-.3 0-.5-.1-.4-.4-.3-1-.2-1.4.2-1.4 1.2-2.5 2.7-2.8.7-.2 1.5-.1 2.2.4zm7 2c.3.7.4 1.5.3 2.2 0 .2-.1.5-.3.6h-.3c-.3-.2-.2-.6-.2-.9 0-.5 0-.9-.3-1.3-.1-.2-.3-.3-.5-.3-.5.1-.8.5-.9 1-.1.4 0 .8.1 1.2 0 .2-.1.5-.4.6-.1 0-.1 0-.2-.1-.6-.9-1.1-1.8-.9-2.9 0-.2.1-.3.3-.4.1 0 .3 0 .3.1.2.3 0 .6.1.9.2-.7.8-1.4 1.6-1.5.7 0 1.1.3 1.3.8zm-4.6.4c.2.2.1.6.2.9.1.6.4 1.1.8 1.6.1.2 0 .4-.1.5s-.1.1-.2.1c-.2 0-.3-.2-.4-.3-.6-.7-.9-1.8-.8-2.8 0-.1.1-.2.2-.2s.2.1.3.2z"/>
  <path class="st14" d="M72.2 550.5c-.5-.3-1.2-.3-1.7.1-.3.2-.4.6-.3 1s.4.6.8.8c.5.2 1.1.2 1.5-.2.3-.2.3-.7.2-1-.1-.3-.3-.6-.5-.7zm1.2.3c.2.8 0 1.7-.2 2.6-.3 1.4-.9 2.6-2.1 3.5-.7.4-1.6.4-2.2 0-.3-.2-.6-.5-.9-.9-.1-.2 0-.5.2-.6.1 0 .1-.1.2-.1.2 0 .3.3.4.4.4.4 1 .6 1.6.4 1.1-.3 1.5-1.3 1.8-2.2.1-.2.2-.5.2-.7-.6.4-1.6.4-2.2 0s-1.1-1.2-.9-2c.1-.8.7-1.5 1.6-1.8.6-.2 1.3-.1 1.8.3.3.3.6.7.7 1.1zm2.1-.3c.3.4-.1.8-.3 1.2-.2.4-.4.9-.2 1.3.1.2.3.2.5.2.7 0 1.2-.7 1.4-1.3.1-.2.1-.5.4-.5h.2c.2.3.1.6.1.9 0 .4-.1.9.3 1.3.2.2.1.5 0 .7 0 .1-.1.2-.2.2-.3 0-.5-.3-.6-.5s-.1-.4-.2-.5c-.5.5-1.2 1-1.9.7-.4-.1-.7-.5-.7-.9-.2-1 .3-2 .7-2.7.1-.2.4-.2.5-.1z"/>
  <path class="st19" d="M68.9 548c0 .3.1.6.2.6 0 0 .1 0 .1-.1s.3-.1.5-.1h.3v-.3c0-.2 0-.3-.1-.3h-.1c-.5 0-.6-.1-.6-.1-.1-.1-.1-.1-.2-.1 0-.1-.1.2-.1.4z"/>
  <path class="st19" d="M70.9 547c-.6 0-1.1.5-1.1 1s.4.7 1.1.7 1.1-.2 1.1-.7c0-.4-.5-1-1.1-1z"/>
  <path class="st20" d="M69 548c0 .3.1.4.1.4.1-.1.3-.1.6-.2h.1v-.4c-.4 0-.7-.1-.7-.2 0 0-.1.2-.1.4z"/>
  <path class="st14" d="M70.4 547.8c0 .1-.1.2-.2.2s-.1-.1-.1-.2.1-.2.2-.2.1.1.1.2z"/>
  <path class="st19" d="M70.3 547.9s-.1.1 0 0c-.1.1-.1 0 0 0-.1-.1-.1-.1 0 0-.1-.1 0-.1 0 0z"/>
  <path d="M58.6 64.7c-.2-1-1.1-1.2-1.6-1.2-1 0-1.9.8-1.9 2.3 0 1.4.5 2.4 1.9 2.4.5 0 1.4-.2 1.6-1.6h.8c-.3 2.2-2.1 2.3-2.5 2.3-1.3 0-2.6-.8-2.6-3.1 0-1.8 1-3 2.7-3 1.5 0 2.3.9 2.4 1.9h-.8zm4.4 4v-.6c-.3.5-.7.7-1.3.7s-1.4-.3-1.4-1.3v-3h.7v2.8c0 .7.4.9.8.9.9 0 1.2-.8 1.2-1.4v-2.3h.7v4.2H63zm2.5 0h-.7v-4.2h.7v.7c.3-.5.6-.8 1.2-.8h.2v.7h-.3c-.7 0-1.1.5-1.1 1.1v2.5zm4.3-3c0-.3-.1-.7-1-.7-.2 0-.8.1-.8.6 0 .3.2.4.8.6l.7.2c.9.2 1.2.5 1.2 1.1 0 .9-.7 1.4-1.7 1.4-1.7 0-1.8-1-1.8-1.5h.7c0 .3.1.9 1.1.9.5 0 1-.2 1-.7 0-.3-.2-.4-.8-.6l-.8-.2c-.6-.1-1-.4-1-1 0-.9.8-1.3 1.6-1.3 1.5 0 1.6 1.1 1.6 1.3h-.8v-.1zm3.3-1.3c1.3 0 1.9 1.1 1.9 2.2s-.6 2.2-1.9 2.2-1.9-1.1-1.9-2.2.6-2.2 1.9-2.2zm0 3.8c1 0 1.2-1 1.2-1.6s-.2-1.6-1.2-1.6-1.2 1-1.2 1.6.2 1.6 1.2 1.6zm5.1-2.5c0-.3-.1-.7-1-.7-.2 0-.8.1-.8.6 0 .3.2.4.8.6l.7.2c.9.2 1.2.5 1.2 1.1 0 .9-.7 1.4-1.7 1.4-1.7 0-1.8-1-1.8-1.5h.7c0 .3.1.9 1.1.9.5 0 1-.2 1-.7 0-.3-.2-.4-.8-.6l-.8-.2c-.6-.1-1-.4-1-1 0-.9.8-1.3 1.6-1.3 1.5 0 1.6 1.1 1.6 1.3h-.8v-.1z" fill="#484241"/>
  <path class="st15" d="M23 55.9h3c3.4 0 4-2.9 4-4 0-2.5-1.5-4-3.9-4h-5.7v12.6H23v-4.6zm0-2.2V50h2c1.6 0 2.3.5 2.3 1.7 0 .6 0 2-2 2H23zm8 6.7h2.4v-4.8c0-1 .3-2.2 2.3-2.2h.7v-2.5h-.5c-1.5 0-2 .9-2.5 1.9v-1.6H31v9.2zm11.5-2.7H45c-.6 2.2-2.5 3-4.1 3-2.6 0-4.6-1.3-4.6-5.1 0-1.1.4-4.7 4.5-4.7 1.8 0 4.4.9 4.4 5.1v.4h-6.4c.1.7.2 2.3 2.2 2.3.6 0 1.3-.4 1.5-1zm-3.7-2.9h3.8c-.1-1.5-1.1-2-1.9-2-1.1.1-1.7.8-1.9 2zm9.5 1.2c0-1.5.4-3 2.1-3 1.6 0 2.1 1.4 2.1 2.8 0 1.1-.4 2.8-2 2.8-1.7 0-2.2-1.3-2.2-2.6zm0-4.9H46V64h2.4v-4.8c.3.5.9 1.4 2.6 1.4 2.8 0 3.9-2.4 3.9-5 0-3.2-1.8-4.8-3.9-4.8-1.6 0-2.3.9-2.8 1.6l.1-1.3zm15.1 2.4c0-2.3-2.4-2.7-3.7-2.7-1.9 0-3.9.4-4.2 3.3h2.4c.1-.5.3-1.3 1.5-1.3.6 0 1.6.1 1.6 1.1 0 .5-.5.7-.9.7l-2.2.4c-1.6.2-2.7 1.2-2.7 3 0 1.9 1.4 2.7 2.8 2.7 1.7 0 2.4-.8 3-1.3.1.5.1.7.2 1.1h2.6V60c-.3-.1-.5-.3-.5-1.5v-5h.1zM61 57.1c0 1.1-1.1 1.8-2.2 1.8-.5 0-1.1-.3-1.1-1.1 0-1 .8-1.2 1.7-1.4 1-.2 1.4-.3 1.7-.5v1.2H61zm3.8 3.3h2.4v-4.8c0-1 .3-2.2 2.3-2.2h.7v-2.5h-.5c-1.5 0-2 .9-2.5 1.9v-1.6h-2.3l-.1 9.2zm13.5-6.9c0-2.3-2.4-2.7-3.7-2.7-1.9 0-3.9.4-4.2 3.3h2.4c.1-.5.3-1.3 1.5-1.3.6 0 1.6.1 1.6 1.1 0 .5-.5.7-.9.7l-2.1.4c-1.6.2-2.7 1.2-2.7 3 0 1.9 1.4 2.7 2.8 2.7 1.7 0 2.4-.8 3-1.3.1.5.1.7.2 1.1h2.6V60c-.3-.1-.5-.3-.5-1.5v-5zm-2.4 3.6c0 1.1-1.1 1.8-2.2 1.8-.5 0-1.1-.3-1.1-1.1 0-1 .8-1.2 1.7-1.4 1-.2 1.4-.3 1.7-.5l-.1 1.2z"/>
  <path d="M47.4 42.4c-3 0-5.5-2.4-5.6-5.5 0-3 2.4-5.5 5.5-5.6 3 0 5.5 2.4 5.6 5.5 0 3-2.5 5.5-5.5 5.6z" fill-rule="evenodd" clip-rule="evenodd" fill="#c2393f"/>
  <path class="st15" d="M40.8 46.5c5.6-.5 14.3-2.8 14.3-9.7 0-2.7-1.4-5-3.5-6.4 14.8 2.8 3.1 16.5-10.8 16.1z"/>
  <path d="M42 155.3h-1.7v-4.7l-2.6 4.8h-.1l-2.6-4.8v4.7h-1.7v-8.1h1.4l2.9 5.3h.1l2.9-5.3H42zm3.2 0h-1.7V149h1.7v6.3zm-.9-6.8c-.5 0-.9-.4-.9-.9s.4-.9.9-.9.9.4.9.9-.3.9-.9.9m8 5.8c-.7.7-1.6 1-2.7 1-2.3 0-3.4-1.4-3.4-3.2s1.2-3.3 3.4-3.3c1.1 0 2 .4 2.6 1l-1.1 1.1c-.4-.4-.9-.7-1.5-.7-1.1 0-1.7.8-1.7 1.9 0 1 .5 1.8 1.7 1.8.6 0 1.1-.2 1.6-.7l1.1 1.1zm4.7-3.9h-.5c-1.2 0-1.7.6-1.7 1.7v3.1h-1.7V149h1.7v.8c.4-.6 1-.9 1.8-.9h.4v1.5zm3.8-.1c-1.2 0-1.7.7-1.7 1.8s.5 1.8 1.7 1.8 1.7-.7 1.7-1.8-.5-1.8-1.7-1.8m0 5.1c-2.2 0-3.4-1.4-3.4-3.3 0-1.8 1.1-3.3 3.3-3.3 2.3 0 3.4 1.4 3.4 3.3 0 1.8-1.1 3.3-3.3 3.3m4.4-8.5h1.7v8.4h-1.7zm4.8 8.4h-1.7V149H70v6.3zm-.9-6.8c-.5 0-.9-.4-.9-.9s.4-.9.9-.9.9.4.9.9-.3.9-.9.9m8.6 6.8H76v-3.8c0-.8-.2-1.2-1.4-1.2-.9 0-1.6.5-1.6 1.3v3.7h-1.7V149H73v.6c.4-.4 1.1-.6 1.8-.6 1.7 0 2.8.9 2.8 2.5l.1 3.8zm4.1.1c-1.2 0-2.2-.4-3.1-1.2l1.1-1.1c.5.6 1.3.9 2 .9 1 0 1.2-.3 1.2-.5s-.1-.4-.8-.5c-.1 0-1-.3-1.1-.3-1.1-.3-2.2-.7-2.2-1.9 0-1.1 1-1.9 2.8-1.9 1.2 0 2.1.4 2.8 1.1l-1 1c-.5-.4-1.1-.7-1.8-.7-.9 0-1.2.3-1.2.5 0 .3.3.4 1.1.5.1 0 .9.2 1 .3 1.3.3 2 .9 2 1.8.1 1.1-.8 2-2.8 2m-52.4 1.7c0 2.1-1.7 3.9-3.9 3.9H14.6c-2.1 0-3.9-1.7-3.9-3.9v-10.9c0-2.1 1.7-3.9 3.9-3.9h10.9c2.1 0 3.9 1.7 3.9 3.9v10.9z" fill="#2e3a77"/>
  <path class="st0" d="M22.1 147.2c-1.5 0-2.8 1-3.2 2.4-.3-.1-.7-.2-1.1-.2-1.8 0-3.3 1.5-3.3 3.3v2.6H17v-2.6c0-.5.4-.9.9-.9s.9.4.9.9v2.6h2.3v-4.8c0-.5.4-.9.9-.9s.9.4.9.9v4.8h2.3v-4.8c.2-1.9-1.2-3.3-3.1-3.3"/>
  <path d="M36.1 157.2h-.6v.7h.6c.3 0 .4-.2.4-.4 0-.1-.2-.3-.4-.3m0 1h-.6v.7h-.2V157h.8c.4 0 .6.2.6.6 0 .3-.2.6-.6.6m2.3-.5c-.3 0-.5.1-.5.5v.7h-.2v-1.4h.2v.2c.1-.2.3-.3.5-.3v.3zm1.5-.1c-.3 0-.5.2-.5.5s.1.5.5.5c.3 0 .5-.2.5-.5 0-.2-.2-.5-.5-.5m0 1.3c-.4 0-.7-.3-.7-.7s.2-.7.7-.7c.4 0 .7.3.7.7 0 .4-.3.7-.7.7m2.4-1.3h-.5v1.2h-.2v-1.2h-.2v-.2h.2c0-.3.2-.4.5-.4h.2v.2h-.2c-.2 0-.3.1-.3.3l.5.1zm1.1 1.3h-.2v-1.4h.2v1.4zm-.1-1.6c-.1 0-.1-.1-.1-.1 0-.1 0-.1.1-.1s.1.1.1.1 0 .1-.1.1m1.7 1.6c-.2 0-.5-.1-.6-.2l.2-.2c.2.1.3.2.5.2.3 0 .4-.1.4-.2s-.1-.2-.2-.2c0 0-.2-.1-.3-.1-.3-.1-.4-.2-.4-.4s.2-.4.6-.4c.2 0 .4.1.6.2l-.2.2c-.1-.1-.2-.2-.4-.2s-.4.1-.4.2.1.1.3.2l.2.1c.3.1.4.2.4.4-.1.2-.3.4-.7.4m2.1 0c-.2 0-.5-.1-.6-.2l.2-.2c.2.1.3.2.5.2.3 0 .4-.1.4-.2s-.1-.2-.2-.2c0 0-.2-.1-.3-.1-.3-.1-.4-.2-.4-.4s.2-.4.6-.4c.2 0 .4.1.6.2l-.2.2c-.1-.1-.2-.2-.4-.2s-.4.1-.4.2.1.1.3.2l.2.1c.3.1.4.2.4.4-.1.2-.3.4-.7.4m1.8 0h-.2v-1.4h.2v1.4zm-.1-1.6c-.1 0-.1-.1-.1-.1 0-.1 0-.1.1-.1s.1.1.1.1 0 .1-.1.1m1.8.3c-.3 0-.5.2-.5.5s.1.5.5.5c.3 0 .5-.2.5-.5 0-.2-.2-.5-.5-.5m0 1.3c-.4 0-.7-.3-.7-.7s.2-.7.7-.7.7.3.7.7c0 .4-.3.7-.7.7m2.9 0h-.2v-.9c0-.2-.1-.4-.4-.4-.2 0-.4.1-.4.4v.8h-.2v-1.4h.2v.2c.1-.1.3-.2.5-.2.4 0 .6.2.6.5l-.1 1zm2.1-.7c-.3 0-.8 0-.8.3 0 .2.2.2.4.2.1 0 .5 0 .5-.2l-.1-.3zm.2.7h-.2v-.1c-.1.1-.3.2-.5.2-.3 0-.6-.1-.6-.4 0-.4.6-.5.9-.5h.2c0-.2-.2-.3-.4-.3s-.3 0-.4.1l-.1-.1c.2-.1.4-.2.6-.2.3 0 .6.1.6.5l-.1.8zm1-1.9h.2v1.9h-.2zm1.5 1.9h-.2v-1.4h.2v1.4zm-.1-1.6c-.1 0-.1-.1-.1-.1 0-.1 0-.1.1-.1s.1.1.1.1c.1 0 0 .1-.1.1m2.4 1.6h-1.2v-.2l.8-.9.1-.2h-.9v-.2h1.2v.2l-.8.9-.2.2h1zm2-.7c-.3 0-.8 0-.8.3 0 .2.2.2.4.2.1 0 .5 0 .5-.2l-.1-.3zm.1.7h-.2v-.1c-.1.1-.3.2-.5.2-.3 0-.6-.1-.6-.4 0-.4.6-.5.9-.5h.2c0-.2-.2-.3-.4-.3s-.3 0-.4.1l-.1-.1c.2-.1.4-.2.6-.2.3 0 .6.1.6.5l-.1.8zm2.4 0h-.2v-.9c0-.2-.1-.4-.4-.4-.2 0-.4.1-.4.4v.8h-.2v-1.4h.1v.2c.1-.1.3-.2.5-.2.4 0 .6.2.6.5v1zm1.6-1.3c-.3 0-.5.2-.5.5s.1.5.5.5c.3 0 .5-.2.5-.5 0-.2-.1-.5-.5-.5m.7 1.3h-.2v-.2c-.1.1-.3.2-.4.2-.4 0-.7-.3-.7-.7s.2-.7.7-.7c.2 0 .3.1.4.2v-.7h.2v1.9zm1.7-1.3c-.3 0-.5.2-.5.5s.1.5.5.5c.3 0 .5-.2.5-.5-.1-.2-.2-.5-.5-.5m0 1.3c-.4 0-.7-.3-.7-.7s.2-.7.7-.7.7.3.7.7c-.1.4-.3.7-.7.7m3.6-1.3c-.3 0-.5.2-.5.5s.1.5.5.5c.3 0 .5-.2.5-.5 0-.2-.2-.5-.5-.5m0 1.3c-.4 0-.7-.3-.7-.7s.2-.7.7-.7c.4 0 .7.3.7.7 0 .4-.3.7-.7.7m3.9-1.7H76v.7h.6c.3 0 .4-.2.4-.4 0-.1-.1-.3-.4-.3m0 1H76v.7h-.2V157h.8c.4 0 .6.2.6.6 0 .3-.2.6-.6.6m2.6 0c-.3 0-.8 0-.8.3 0 .2.2.2.4.2.1 0 .5 0 .5-.2l-.1-.3zm.2.7h-.2v-.1c-.1.1-.3.2-.5.2-.3 0-.6-.1-.6-.4 0-.4.6-.5.9-.5h.2c0-.2-.2-.3-.4-.3s-.3 0-.4.1l-.1-.1c.2-.1.4-.2.6-.2.3 0 .6.1.6.5l-.1.8zm1.2 0h-.2v-1.4h.2v1.4zm.2-2l-.4.4-.1-.1.4-.4.1.1zm1.5 2c-.2 0-.5-.1-.6-.2l.2-.2c.2.1.3.2.5.2.3 0 .4-.1.4-.2s-.1-.2-.2-.2c0 0-.2-.1-.3-.1-.3-.1-.4-.2-.4-.4s.2-.4.6-.4c.2 0 .4.1.6.2l-.2.2c-.1-.1-.2-.2-.4-.2s-.4.1-.4.2.1.1.3.2l.2.1c.3.1.4.2.4.4-.2.2-.3.4-.7.4" fill="#a40022"/>
  <path class="st29" d="M86.9 247.3c-.7-2.6-1.6-5-2.6-7.2-2.7.4-5.7 1-8.7 1.8s-5.9 1.8-8.4 2.8c.2 2.4.7 4.9 1.4 7.5.7 2.6 1.6 5 2.6 7.2 2.7-.4 5.7-1 8.7-1.8s5.9-1.8 8.4-2.8c-.2-2.4-.7-5-1.4-7.5zm-13.2 7c0 .4-.3.7-.7.7-.4 0-.7-.3-.7-.7v-4.1c0-.2-.2-.4-.4-.4s-.4.2-.4.4v1.1c0 .4-.3.7-.7.7-.4 0-.7-.3-.7-.7v-2.2c0-.4.3-.7.7-.7h2.6c.2 0 .4.2.4.4v5.5h-.1zm-1.2-8c0-.8.7-1.5 1.5-1.5s1.5.7 1.5 1.5-.7 1.5-1.5 1.5-1.5-.7-1.5-1.5zm5.1 0c0 1.3-.7 2.4-1.7 3v5c0 .4-.3.7-.7.7-.4 0-.7-.3-.7-.7v-5.7c0-.2.1-.3.3-.4.8-.3 1.4-1 1.4-1.9v-.7c0-.4.3-.7.7-.7.4 0 .7.3.7.7v.7zm3.9 8c0 .4-.3.7-.7.7-.4 0-.7-.3-.7-.7v-5c-1-.6-1.7-1.7-1.7-3v-.7c0-.4.3-.7.7-.7.4 0 .7.3.7.7v.7c0 .9.6 1.7 1.4 1.9.2 0 .3.2.3.4v5.7zm-1.1-8.1c0-.8.7-1.5 1.5-1.5s1.5.7 1.5 1.5-.7 1.5-1.5 1.5-1.5-.6-1.5-1.5zm5.6 5.1c0 .4-.3.7-.7.7-.4 0-.7-.3-.7-.7v-1.1c0-.2-.2-.4-.4-.4s-.4.2-.4.4v4.1c0 .4-.3.7-.7.7-.4 0-.7-.3-.7-.7v-5.6c0-.2.2-.4.4-.4h2.6c.4 0 .7.3.7.7v2.3H86z"/>
  <path class="st30" d="M32.9 244.7c-3 0-5.2 2.3-5.2 5.2 0 3.1 2 5.5 5.2 5.5s5.2-2.4 5.2-5.5c0-2.9-2.2-5.2-5.2-5.2zm0 8.8c-2.2 0-3.5-1.6-3.5-3.6 0-1.9 1.5-3.4 3.5-3.4s3.5 1.5 3.5 3.4c0 2-1.4 3.6-3.5 3.6zm18.1-8.6h-2.1v10.2h6.2v-1.4H51zm-7.7 0H40v10.3h2.1v-3.9h1c2.5 0 4-1.7 4-3.4 0-2.1-1.4-3-3.8-3zm-.3 5h-.9v-3.7h.9c1.2 0 1.9.6 1.9 1.7.1 1.4-.9 2-1.9 2zm-20.8-3.7h4.1v-1.3h-6.2v10.2h6.3v-1.4h-4.2v-3.3h4.2V249h-4.2zm-7.8-1.3h-3.3v10.3h2.1v-3.9h1c2.5 0 4-1.7 4-3.4 0-2.1-1.5-3-3.8-3zm-.3 5h-.9v-3.7h.9c1.2 0 1.9.6 1.9 1.7.1 1.4-.9 2-1.9 2zm50.6 3.4c-.2 0-.5.1-.6.3-.2.2-.3.4-.3.6 0 .3.1.5.3.6.2.2.4.3.6.3.2 0 .5-.1.6-.3.2-.2.3-.4.3-.6 0-.2-.1-.5-.3-.6-.1-.2-.3-.3-.6-.3zm.6 1.4c-.1.1-.3.2-.5.2s-.4-.1-.5-.2c-.1-.1-.2-.3-.2-.5s.1-.4.2-.5.3-.2.5-.2.4.1.5.2c.1.1.2.3.2.5s-.1.4-.2.5z"/>
  <path class="st30" d="M65.1 253.9c0-.2-.1-.3-.3-.3h-.4v1.1h.2v-.5h.2l.3.4h.2l-.3-.5c0 .1.1 0 .1-.2zm-.4.2c-.1 0-.1 0 0 0l-.1-.4h.3c.1 0 .2.1.2.2s0 .1-.1.1c-.2.1-.2.1-.3.1zm-5.7-7.9h4.2v-1.3h-6.3v10.2h6.3v-1.4H59v-3.3h4.2V249H59z"/>
  <path class="st29" d="M19.5 263.1v.7h-1v2.6h-.9v-2.6h-1v-.7h2.9zm2.5 2.2h-1.8c.1.3.3.4.6.4.2 0 .4-.1.6-.3l.4.4c-.3.3-.6.4-1.1.4-.8 0-1.3-.5-1.3-1.3s.5-1.3 1.3-1.3c.9.2 1.3.8 1.3 1.7zm-.8-.4c0-.3-.2-.5-.5-.5s-.4.2-.5.5h1zm2.3-.4c-.3 0-.5.2-.5.6s.2.6.5.6c.2 0 .4-.1.5-.3l.6.4c-.2.4-.6.6-1.2.6-.8 0-1.3-.5-1.3-1.3s.5-1.3 1.3-1.3c.5 0 .9.2 1.1.6l-.6.4c0-.2-.2-.3-.4-.3zm4.1.2v1.6h-.8V265c0-.3-.2-.5-.4-.5-.3 0-.5.2-.5.6v1.3H25v-3.5h.8v1.4c.2-.3.5-.4.8-.4.7-.1 1 .3 1 .8zm4.2 0v1.6H31v-.3c-.2.2-.4.3-.8.3-.5 0-.9-.3-.9-.8s.3-.8 1-.8h.7c0-.2-.2-.4-.5-.4-.2 0-.5.1-.8.2l-.2-.6c.4-.2.8-.3 1.2-.3.7.2 1.1.5 1.1 1.1zm-.8.8v-.2h-.5c-.2 0-.4.1-.4.3 0 .2.1.3.3.3.4-.1.6-.2.6-.4zm4-.8v1.6h-.8V265c0-.3-.2-.5-.4-.5-.3 0-.5.2-.5.5v1.3h-.8v-2.5h.8v.4c.2-.3.5-.4.8-.4.5 0 .9.4.9.9zm3.1-1.8v3.5h-.8v-.4c-.2.2-.4.4-.7.4-.7 0-1.2-.5-1.2-1.3s.5-1.3 1.2-1.3c.3 0 .6.1.8.4v-1.3h.7zm-.8 2.2c0-.4-.2-.6-.5-.6s-.5.3-.5.6c0 .4.2.6.5.6s.5-.2.5-.6zm5.5-2v.7h-1.7v.6h1.6v.7h-1.6v.6h1.8v.7h-2.6v-3.3h2.5zm3.2 1.6v1.6h-.8V265c0-.3-.2-.5-.4-.5-.3 0-.5.2-.5.5v1.3h-.8v-2.5h.8v.4c.2-.3.5-.4.8-.4.5 0 .9.4.9.9zm3-.9v2.3c0 .7-.6 1.2-1.4 1.2-.4 0-.8-.1-1.1-.3l.3-.6c.2.2.5.2.8.2.4 0 .6-.2.6-.5v-.3c-.2.2-.4.3-.7.3-.6 0-1.1-.5-1.1-1.2s.4-1.2 1.1-1.2c.3 0 .6.1.7.3v-.3h.8v.1zm-.8 1.2c0-.4-.2-.6-.5-.6s-.5.2-.5.6c0 .3.2.6.5.6.2 0 .5-.3.5-.6zm2.3-2.1v3.5h-.8v-3.5h.8zm1.4.9v2.5h-.8v-2.5h.8zm0-.7c0 .2-.2.4-.4.4s-.4-.2-.4-.4.2-.4.4-.4.4.2.4.4zm1.6 1.3c-.1 0-.2.1-.2.2 0 .3 1.3.2 1.3 1.1 0 .5-.5.8-1.1.8-.4 0-.8-.1-1.1-.4l.3-.5c.3.2.6.3.9.3.2 0 .3-.1.3-.2 0-.3-1.3-.2-1.3-1 0-.5.4-.8 1-.8.4 0 .7.1 1.1.3l-.3.5c-.4-.3-.7-.3-.9-.3zm4.1.3v1.6h-.8V265c0-.3-.2-.5-.4-.5-.3 0-.5.2-.5.6v1.3H55v-3.5h.8v1.4c.2-.3.5-.4.8-.4.7-.1 1 .3 1 .8z"/>
  <path id="XMLID_15_" class="st31" d="M11 655.6v-7.7h5.5v1H12v2.3h4.1v.9H12v2.6h4.6v1l-5.6-.1zm6.6 0v-7.7h1.2l3.6 5.6c.1.1.2.2.2.3.1.1.1.2.1.3v-6.3h1v7.7h-1.1l-3.7-5.7c-.1-.1-.1-.2-.2-.3 0-.1-.1-.2-.1-.3v6.3h-1v.1zm13.3-1c-.3.4-.7.7-1.1.9s-.9.3-1.5.3c-1 0-1.9-.4-2.5-1.1-.7-.7-1-1.7-1-2.9 0-1.3.3-2.3 1-3s1.6-1.1 2.7-1.1c.9 0 1.6.2 2.2.7.6.4.9 1.1 1 1.9h-1c-.1-.5-.3-.9-.7-1.2-.4-.3-.9-.4-1.4-.4-.8 0-1.5.3-2 .8s-.7 1.3-.7 2.3.2 1.8.7 2.3c.5.6 1.1.8 1.9.8.7 0 1.3-.2 1.7-.7.4-.4.7-1 .7-1.8v-.1h-2.4v-.9h3.4v4.2h-.7l-.3-1zm2.1 1v-7.7h1.1v6.8H38v1l-5-.1zm5.5 0v-7.7h1.1v7.7h-1.1zm2.1-2.5h1c0 .6.2 1 .6 1.3.4.3.8.5 1.5.5.6 0 1.1-.1 1.4-.4.3-.3.5-.6.5-1 0-.6-.7-1-1.9-1.4h-.2c-1.1-.2-1.7-.5-2.1-.8-.3-.3-.5-.7-.5-1.3 0-.7.3-1.2.8-1.7.5-.4 1.2-.6 2-.6.9 0 1.5.2 2 .7.5.4.7 1 .7 1.8h-1c0-.5-.2-.9-.5-1.2s-.8-.4-1.3-.4-.9.1-1.2.3-.5.5-.5.9c0 .6.6 1 1.9 1.3.2 0 .3.1.4.1h.1c.8.2 1.4.4 1.7.6.2.2.4.4.5.6.1.3.2.5.2.8 0 .7-.3 1.3-.8 1.8-.5.4-1.3.7-2.2.7s-1.7-.2-2.2-.7c-.6-.4-.9-1-.9-1.9zm7 2.5v-7.7h1.1v3.2h4v-3.2h1.1v7.7h-1.1V652h-4v3.6h-1.1z"/>
  <path id="XMLID_9_" class="st32" d="M57 655.7v-6.4h-2.3v-1.4h6.2v1.4h-2.3v6.4H57zm7-6.2l-1.1 3.3h2.2l-1.1-3.3zm-.9-1.6l-2.8 7.7H62l.5-1.6h3l.5 1.6h1.7l-2.8-7.7h-1.8zm5.1 7.8V648h1.6v6.3h3.8v1.4h-5.4zm5.9 0V648h1.6v3.2l2.3-2.5c.1.5.3 1 .6 1.4l-1 1 3.4 4.6h-1.9l-2.5-3.5-.8.8v2.7h-1.7z"/>
  <path id="XMLID_8_" d="M85.4 641.1c3.2.1 5.8 2.9 5.6 6.1-.1 3.2-2.9 5.7-6.1 5.6-3.2-.1-5.8-2.9-5.6-6.1.1-3.2 2.8-5.7 6.1-5.6z" fill-rule="evenodd" clip-rule="evenodd" fill="#aacd5d"/>
  <path class="st31" d="M89.2 646.8c-2.4-.1-4.4 1.7-4.5 4.1 0 1.2.4 2.3 1.2 3.1 2.8-1 4.9-3.6 5-6.7-.4-.3-1-.5-1.7-.5z"/>
  <path class="st32" d="M89 652c-.1-2.2-1.9-4-4.2-4.1-2.4-.1-4.5 1.8-4.6 4.2 0 .6.1 1.2.3 1.7.8.4 1.7.6 2.7.6 2.2.1 4.3-.8 5.8-2.4z"/>
</svg>
