<?xml version="1.0" encoding="utf-8"?>
<!-- Generator: Adobe Illustrator 22.1.0, SVG Export Plug-In . SVG Version: 6.00 Build 0)  -->
<svg version="1.1" id="Layer_1" xmlns="http://www.w3.org/2000/svg" xmlns:xlink="http://www.w3.org/1999/xlink" x="0px" y="0px"
	 viewBox="0 0 141 8.2" style="enable-background:new 0 0 141 8.2;" xml:space="preserve">
<style type="text/css">
	.st0{clip-path:url(#SVGID_2_);fill:#A8AAA8;}
	.st1{clip-path:url(#SVGID_2_);}
	.st2{clip-path:url(#SVGID_4_);}
	.st3{clip-path:url(#SVGID_6_);}
	.st4{clip-path:url(#SVGID_8_);}
</style>
<g>
	<defs>
		<rect id="SVGID_1_" x="0" y="0" width="141" height="8.2"/>
	</defs>
	<clipPath id="SVGID_2_">
		<use xlink:href="#SVGID_1_"  style="overflow:visible;"/>
	</clipPath>
	<path class="st0" d="M32.2,6C32.2,6,32.2,6,32.2,6L32.2,6C32.2,6,32.2,6,32.2,6 M36.2,5.9C36.2,5.9,36.2,5.9,36.2,5.9
		C36.2,5.9,36.2,5.9,36.2,5.9C36.2,5.9,36.2,5.9,36.2,5.9 M26.9,3.8C26.9,3.8,26.9,3.8,26.9,3.8C26.9,3.8,26.9,3.8,26.9,3.8
		 M28.4,2.5l0.6,0c0.7,0,1.1,0,1.2,0.2c0.1,0.2,0,0.3-0.1,0.5c-0.4,0.5-0.7,1-1.4,1.2c-0.7,0.2-1.7,0.1-1.8,0.1
		c-0.1,0-0.2-0.1-0.2-0.3c0,0,0-0.1,0-0.1c0,0,0-0.1,0-0.1c0,0,0,0,0,0C26.8,3.9,27.1,2.5,28.4,2.5 M11.9,6.5c0-0.1,0.1-0.3,0.4-0.4
		c0.4-0.2,0.8-0.5,0.9-0.5c0.2-0.1,0.4-0.3,0.6-0.2c0.2,0.1,0.1,0.4,0,0.5c-0.2,0.5-0.4,1.1-0.6,1.2l0,0c-0.1,0.1-0.2,0.3-0.6,0.1
		c-0.3-0.1-0.5-0.5-0.6-0.6c0,0,0,0,0,0C11.9,6.7,11.9,6.6,11.9,6.5 M6.1,2.8L6.1,2.8c-2.3,2-5.6,4.3-5.9,4.6c0,0,0,0,0,0
		c0,0,0,0,0,0c0,0.1,0.3,0.1,0.5,0.1c0.1-0.1,1-0.6,5.8-4.8l0.2-0.2C6.7,2.5,7,2.3,7.2,2.5C7.4,2.6,7.1,3,7.1,3.1
		C6.9,3.3,5.5,5.7,5.2,6.2C5.1,6.4,5.1,6.6,5.1,6.6c0.1,0.1,0.3,0.1,0.6-0.1c0.4-0.2,1.8-1.3,2.8-2.1c0.6-0.5,1.1-0.9,1.3-1
		c0.2-0.1,0.4-0.3,0.6-0.1c0.1,0.1,0.1,0.3-0.1,0.5L10,4.2C9.7,4.6,9.4,5.1,9.1,5.3C8.7,5.7,8.3,6.2,8,6.7C8,6.8,8,6.9,8,7
		c0.1,0.1,0.4,0.1,0.7-0.1C9,6.7,9.5,6.4,10,6c0.4-0.3,0.8-0.7,1.1-0.9c0.5-0.3,1-0.7,1.6-1.1c0.4-0.3,1.2-0.8,1.7-1.1
		c0.1,0,0.3-0.2,0.4,0c0.1,0.1,0.1,0.4,0,0.6l0,0c0,0,0,0.1,0,0.1c-0.2,0.6-0.4,1.2-0.7,1.4c-0.3,0.2-1.8,0.9-2.4,1.2
		c-0.2,0.1-0.2,0.2-0.2,0.2c-0.1,0.5,0.9,1.4,1.2,1.5C12.8,8,13.1,8,13.2,8c0.3-0.1,0.5-0.7,0.7-1.3c0.2-0.5,0.3-1.1,0.7-1.4L14.9,5
		C15,4.9,15,4.8,15.1,4.8l0.6-0.3c0.6-0.4,1.7-0.9,1.9-1.1c0.2-0.1,0.4-0.2,0.5-0.1c0.1,0.1,0.1,0.1,0,0.2c0,0,0,0,0,0l-0.2,0.4
		c0,0,0,0,0,0l-0.4,0.8l-0.1,0.1c-0.2,0.3-0.6,1-0.7,1.7c0,0.2,0,0.4,0,0.5c0.1,0.1,0.4,0,0.6-0.1l0.1,0c0.3-0.1,0.5-0.2,0.8-0.5
		c0.4-0.4,1.9-1.8,2.3-2.1C20.8,4.1,21,4,21.1,4.1c0.1,0.1,0.1,0.3-0.2,0.7c-0.1,0.2-0.6,0.9-0.8,1.5c-0.1,0.2-0.1,0.5,0,0.6
		c0.2,0.2,0.5,0.3,0.8,0.2c0.4-0.1,1.1-0.4,1.8-1c0.4-0.3,1.5-1.3,2.3-2c0.5-0.4,0.9-0.8,1-0.8c0.1,0,0.3-0.2,0.4-0.1
		c0.1,0.1,0.1,0.3,0,0.5c-0.1,0.1-1.1,1.9-1.4,2.3l-0.2,0.2c-0.2,0.3-0.6,0.7-0.6,0.9c0,0,0,0.1,0.2,0.2c0.1,0.1,0.3,0.2,0.5,0
		c0.2-0.2,0.4-0.6,0.5-0.9c0.2-0.4,0.3-0.8,0.6-1c0.4-0.3,1-0.4,1.3-0.2c0.2,0.1,0.2,0.2,0.2,0.3l0,0.2l0,0.3c0,0.1,0.3,0.7,0.5,0.9
		c0.3,0.3,1.6,0.1,2.1-0.2c0.4-0.2,1-0.5,1.5-0.9c0.1-0.1,0.3-0.3,0.5-0.2c0.1,0.1,0.1,0.2,0.1,0.3c0,0,0,0,0,0.1
		c0,0.1,0,0.5,0.1,0.6c0,0.1,0.1,0.3,0.5,0.3c0.3,0,0.4,0,0.8-0.1l0.3-0.1c0.5-0.1,1.6-0.9,1.8-1.1c0.2-0.2,0.4-0.2,0.5-0.2
		c0.1,0,0.2,0.1,0.2,0.3c0,0,0,0,0,0.1c0,0.1,0.2,0.5,0.3,0.8c0.1,0.2,1,0.3,1.6,0c0.6-0.2,1.3-0.5,1.6-0.7c0.1-0.1,0.3-0.2,0.4-0.1
		c0.1,0.1,0.1,0.2,0.1,0.3l0,0c0,0.5,0.1,0.8,0.3,0.9c0.2,0.2,0.6,0.1,1.1,0c0.8-0.3,1.1-0.5,1.4-0.8C43.1,6.2,43.3,6,43.5,6
		c0.2,0,0.3,0.3,0.4,0.7c0.1,0.6,1.1,0.8,2.4,0.5c1.5-0.3,3-1.5,3.6-1.9c0.8-0.6,1.6-2.2,1.6-2.2c0,0,0.1-0.1,0.1-0.1
		c0,0,1-0.1,1.8-0.2l2.7-0.4c0.5-0.1,2.8-0.3,3.4-0.3c0.6,0,1.5-0.1,1.8-0.1l0,0c0.2,0,3.7-0.3,4-0.3l0.3,0c1-0.1,2-0.1,2.4,0.1l0,0
		C68.3,2,68.5,2.1,68.9,2c0.2,0,0.4-0.2,0.6-0.4c0.1-0.1,0.1-0.2,0.1-0.2c-0.3,0-1.5,0-2.1,0.1l-0.7,0c-0.1,0-1.1,0.1-2.2,0.1
		c-1.6,0.1-3.7,0.2-4.1,0.2c-0.6,0-1.8,0.2-3.1,0.3c-4.2,0.5-5.7,0.6-5.8,0.1c0-0.1-0.1-0.2-0.2-0.2C51.2,2,51,2,50.8,2.1
		c-1,0.4-1.3,0.8-1.2,1c0.1,0.2,0.6,0.3,1,0.2c0,0,0,0,0.1,0c0.1,0,0.1,0.1,0.2,0.1c0,0.1,0,0.4-0.5,1c0,0,0,0,0,0
		c-1,1.5-2.4,2.1-3.6,2.5l-0.2,0.1c-0.5,0.2-1.1,0.2-1.5,0c-0.3-0.2-0.5-0.4-0.5-0.7c-0.1-0.6,0.4-1.3,1.6-2
		c0.7-0.4,1.8-0.8,2.2-0.9c0.3,0,0.5-0.1,0.5-0.2c0-0.1,0-0.1,0-0.2c0-0.1-0.1-0.1-0.3-0.1c-1.1,0-1.7,0.4-2.1,0.6l-0.2,0.1
		c-0.3,0.1-1.4,1-2.2,1.6l-0.1,0.1c-0.7,0.6-1,0.8-1.9,1.2c-0.5,0.2-0.8,0.3-1,0.1c-0.2-0.2,0-0.5,0-0.6c0.1-0.3,0.4-0.6,0.7-0.9
		c0.2-0.2,0.4-0.5,0.6-0.7L42.6,4c0.2-0.3,0.4-0.6,1-1.4c0-0.1,0.2-0.3,0.1-0.3c-0.1-0.1-0.3-0.1-0.4,0c-0.1,0.1-0.6,0.7-1.4,1.6
		c-0.6,0.8-1.1,1.3-3.3,2.3c-0.8,0.4-1.4,0.4-1.6,0.1c-0.1-0.1-0.1-0.2-0.1-0.4c0-0.4,0.3-0.9,0.4-1.1C37.6,4,39.1,3.1,39.5,3
		C40.9,2.8,41,2.5,41,2.5c0,0-0.1-0.1-0.2-0.1c-0.2-0.1-1.1-0.2-2.1,0.3c-0.5,0.2-1.2,0.9-2,1.6c-1.1,1-2.3,2-3,2.2c0,0,0,0,0,0
		c-0.4,0.1-0.6,0-0.8-0.2c-0.1-0.1-0.1-0.2-0.1-0.3c0-0.2,0.1-0.5,0.2-0.6c0.1-0.1,0.7-0.9,0.8-1l0.3-0.3c0.4-0.4,1.1-1.1,1.3-1.7
		c0-0.1,0-0.2,0-0.2c0,0,0,0,0,0c-0.1,0-0.5,0.1-0.6,0.3c-0.3,0.3-2.9,2.8-4.2,3.5c-1,0.7-1.4,0.6-1.8,0.6l-0.1,0
		c-0.1,0-0.3-0.1-0.4-0.3c-0.2-0.3-0.3-0.7-0.2-1l0-0.1c0-0.2,0.1-0.4,0.5-0.5C30.6,4,30.9,3.3,31,2.9c0.1-0.3-0.1-0.5-0.2-0.6
		c-0.3-0.2-0.9-0.2-1.3-0.1c-0.4,0.1-1.3,0.2-1.6,0.1c-0.2,0-0.3-0.1-0.3-0.2c0,0,0-0.1-0.1-0.1c-0.2-0.1-0.9,0.3-1.7,1.1
		c0,0,0,0,0,0c-1.7,1.5-3.1,2.5-4.2,3c-0.5,0.3-0.7,0.3-0.9,0.2c-0.2-0.1-0.1-0.4,0-0.6c0.1-0.1,0.3-0.4,0.6-0.8
		c0.5-0.6,1.3-1.6,1.6-2.3C23.1,2.2,23,2.2,23,2.2c-0.1,0-0.3,0-0.6,0.2c-0.1,0.1-0.5,0.4-1.1,0.8c-0.4,0.2-0.8,0.7-1.3,1.2
		c-0.6,0.6-1.2,1.3-1.8,1.5c-0.2,0.1-0.5,0.2-0.6,0.1c0,0-0.1-0.1-0.1-0.2c0-0.3,0.3-0.7,0.9-1.7l0-0.1c0.6-0.9,0.7-1.4,0.7-1.7
		c0-0.2,0-0.2-0.1-0.3c-0.1,0-0.6,0-1.4,0.5c-0.8,0.5-2.6,1.7-2.6,1.8c-0.1,0-0.1,0-0.2,0c-0.1,0-0.1-0.1,0-0.2c0,0,0.1-0.2,0.4-1.4
		c0-0.2,0.1-0.3,0.1-0.4c0-0.1,0-0.2-0.1-0.2c-0.2-0.1-0.7,0.1-0.9,0.3c0,0-0.4,0.2-1.5,1c0,0-0.7,0.4-0.7,0.4
		c-0.7,0.5-1.6,1-2.1,1.6c0,0,0,0,0,0c-0.2,0.1-0.3,0.1-0.4,0c-0.1-0.1-0.1-0.2,0-0.3s1.3-1.9,1.9-2.7C12,2.1,12,1.8,11.8,1.6
		c-0.2-0.1-0.5-0.1-0.8,0.2c-0.4,0.5-4.2,3.5-4.5,3.5c0,0-0.1,0-0.1-0.1c-0.1-0.1-0.1-0.1,1-2c0.4-0.7,0.8-1.5,1-1.7
		c0.1-0.2,0.1-0.3,0-0.3C8.4,1.2,8.1,1,6.1,2.8"/>
	<path class="st1" d="M27,4.3c0.1,0,1,0.1,1.7-0.1c0.7-0.2,1-0.5,1.4-1.1c0.4-0.6-0.4-0.4-1.6-0.4c-1.2,0-1.5,1.3-1.5,1.3
		S26.9,4.3,27,4.3 M12.6,7.1C12.9,7.3,13,7.1,13.1,7c0.1-0.1,0.3-0.5,0.5-1.1c0.3-0.7-0.4-0.2-0.4-0.2S12.7,6,12.4,6.3
		c-0.4,0.2-0.3,0.3-0.3,0.3S12.4,7.1,12.6,7.1 M0,7.3C0.5,7,3.7,4.6,6,2.7C8.5,0.5,8.8,1,8.5,1.6c-0.2,0.6-2,3.5-2,3.6
		c0.1,0.1,3.8-2.8,4.4-3.4c0.8-0.9,1.6-0.1,0.9,0.7C11.2,3.3,10,5,10,5.2c-0.1,0.1,0,0.2,0.2,0.1c0.7-0.7,1.9-1.4,2.8-2
		c1.1-0.7,1.5-1,1.5-1s1.6-1.1,1.2,0.5c-0.4,1.5-0.4,1.5-0.4,1.5s1.8-1.3,2.6-1.8C18.6,2,19.2,1.8,19.4,2c0.2,0.3,0.2,0.9-0.6,2.2
		c-0.8,1.2-1.4,2-0.5,1.6c0.9-0.5,2.2-2.2,3-2.7c0.6-0.4,1.1-0.8,1.1-0.8s1.2-0.7,0.7,0.4c-0.5,1.2-2,2.7-2.1,3.1
		c-0.2,0.4-0.2,0.7,0.6,0.3c0.8-0.4,2.1-1.2,4.2-3c0.7-0.8,1.5-1.2,1.8-1.2c0.3,0.1,0.1,0.3,0.4,0.3c0.3,0,1.2-0.1,1.6-0.1
		s1.1-0.1,1.4,0.2c0.3,0.3,0.8,1.6-2.2,2.7c-0.4,0.1-0.4,0.4-0.4,0.6c-0.1,0.3,0.1,1,0.4,1.1c0.3,0,0.7,0.3,1.8-0.5
		c1.2-0.6,3.9-3.2,4.2-3.4c0.2-0.2,1.1-0.7,0.8,0.1c-0.3,0.8-1.4,1.7-1.6,2c-0.3,0.3-0.7,0.9-0.8,1c-0.1,0.2-0.4,1,0.5,0.9
		c1.3-0.4,3.9-3.2,5-3.8c1.1-0.6,2-0.4,2.2-0.3c0.1,0.1,0.9,0.5-1.3,0.9c-0.4,0.1-1.8,0.9-2.2,1.7C37,5.3,36.3,7,38.5,6
		c2.2-1,2.6-1.5,3.3-2.2c0.6-0.8,1.2-1.4,1.4-1.6c0.2-0.3,1-0.2,0.6,0.5c-0.9,1.2-0.9,1.3-1.3,1.8c-0.4,0.5-1.1,1.2-1.3,1.6
		C41,6.5,41,6.8,41.9,6.4c0.9-0.4,1.2-0.7,2-1.3c0.8-0.7,1.9-1.5,2.3-1.7c0.3-0.2,1-0.7,2.4-0.8c0.6-0.1,0.8,0.7-0.2,0.8
		c-0.4,0-1.5,0.4-2.2,0.9c-0.7,0.4-1.7,1.2-1.5,1.9c0.1,0.7,1,0.9,1.9,0.6c1.2-0.5,2.7-1,3.7-2.5c0.7-0.8,0.4-0.9,0.4-0.9
		c-1,0.3-2.3-0.5,0.1-1.4c0.5-0.2,0.9,0,1,0.3c0.1,0.7,7-0.5,8.7-0.5c0.8,0,6-0.4,6.3-0.4c0.3,0,2.8-0.2,3-0.1
		c0.2,0.1-0.3,0.8-0.8,0.9C68.4,2.2,68.2,2.1,68,2c-0.5-0.3-2.3,0-2.6,0c-0.3,0-3.8,0.2-4,0.3c-0.2,0-1.2,0.1-1.9,0.1
		c-0.6,0-2.9,0.3-3.4,0.3c-0.5,0.1-1.9,0.2-2.7,0.4c-0.8,0.1-1.8,0.2-1.8,0.2S50.8,4.9,50,5.5c-0.7,0.6-2.2,1.7-3.7,2
		c-1.5,0.2-2.5,0-2.6-0.6c-0.1-0.7-0.3-0.8-0.5-0.5c-0.3,0.3-0.6,0.6-1.4,0.9c-1.1,0.4-1.6,0-1.6-1c0-0.1,0-0.4-0.3-0.1
		c-0.3,0.3-1,0.5-1.7,0.7C37.6,7,36.6,7,36.4,6.7c-0.2-0.3-0.4-0.8-0.4-0.9c0-0.3-0.2-0.3-0.4-0.1c-0.2,0.2-1.3,1-1.9,1.1
		c-0.5,0.2-0.7,0.3-1.1,0.2c-0.4-0.1-0.5-0.2-0.6-0.4C32,6.5,32,6,32,6s0.1-0.4-0.4-0.1c-0.4,0.4-1.1,0.7-1.5,0.9
		c-0.5,0.2-1.9,0.5-2.2,0.1c-0.3-0.2-0.5-0.8-0.5-1s-0.1-0.4-0.1-0.5c0-0.3-0.8-0.4-1.3,0c-0.5,0.3-0.6,1.5-1.1,1.9
		c-0.4,0.3-1-0.2-0.9-0.4c0.1-0.3,0.6-0.8,0.8-1.1c0.3-0.4,1.3-2.1,1.4-2.3c0.1-0.3,0.1-0.4-0.2-0.2c-0.3,0.2-2.7,2.3-3.3,2.8
		c-0.7,0.5-1.4,0.9-1.8,1c-0.7,0.2-1.4-0.3-1-1c0.3-0.5,0.7-1.2,0.9-1.5c0.3-0.5,0.3-0.7-0.1-0.4c-0.4,0.3-1.9,1.7-2.3,2.1
		C18,6.9,17.7,7,17.4,7c-0.2,0-1.1,0.5-0.9-0.5c0.2-1,0.7-1.7,0.8-1.9c0.1-0.2,0.5-0.8,0.5-0.8l0.2-0.4c0,0,0.1-0.2-0.3,0.1
		c-0.4,0.3-2.4,1.4-2.5,1.4c-0.1,0-0.2,0.3-0.4,0.5c-0.8,0.8-0.6,3.6-2.2,2.6c-0.2-0.2-1.9-1.6-0.9-2c0.6-0.2,2.1-1,2.4-1.1
		c0.3-0.2,0.6-1.3,0.7-1.4c0-0.1,0.3-0.7-0.2-0.4c-0.5,0.3-1.3,0.8-1.7,1.1c-0.4,0.3-1,0.8-1.6,1.2C10.6,5.7,9.4,6.7,8.8,7
		C8.2,7.4,7.6,7.2,7.9,6.7C8.2,6.2,8.6,5.6,9,5.2c0.4-0.4,1-1.2,1.2-1.5c0.2-0.3,0.2-0.5-0.3-0.2C9.4,3.9,6.5,6.3,5.8,6.7
		C5.2,7,4.7,6.7,5.1,6.2C5.4,5.6,6.8,3.3,7,3c0.2-0.3,0.2-0.7-0.2-0.3c-0.5,0.4-5.7,4.9-6,5C0.4,7.7-0.1,7.6,0,7.3"/>
	<path class="st1" d="M86.9,0L86.9,0c-2.4,0-4.1,1.9-4.1,4.1c0,2.3,1.8,4.1,4.1,4.1c2.2,0,4.1-1.8,4.1-4.1C90.9,1.8,89.2,0,86.9,0
		 M86.9,7.7c-2,0-3.6-1.6-3.6-3.6c0-2,1.5-3.6,3.6-3.6h0c2.1,0,3.6,1.6,3.6,3.6C90.4,6.1,88.8,7.7,86.9,7.7 M86.9,1.6
		c-1.4,0-2.3,1.1-2.3,2.4c0,1.6,1.1,2.4,2.3,2.4c1.1,0,2.1-0.7,2.2-2h-0.6C88.3,5.9,87.2,6,86.9,6c-0.9,0-1.7-0.6-1.7-1.9
		c0-1.1,0.7-1.9,1.7-1.9c0.6,0,1.3,0.3,1.5,1.1H89C88.9,2.4,88,1.6,86.9,1.6"/>
</g>
<polygon points="100.2,1.1 99.3,1.1 97.1,6.1 94.9,1.1 94,1.1 94,7 94.6,7 94.6,1.8 96.9,7 97.3,7 99.6,1.8 99.6,7 100.2,7 "/>
<g>
	<defs>
		<rect id="SVGID_3_" x="0" y="0" width="141" height="8.2"/>
	</defs>
	<clipPath id="SVGID_4_">
		<use xlink:href="#SVGID_3_"  style="overflow:visible;"/>
	</clipPath>
	<path class="st2" d="M103,1c-0.9,0-1.8,0.6-1.8,1.6c0,1.1,1,1.4,1.5,1.6c0.7,0.2,1.4,0.4,1.4,1.2c0,0.7-0.6,1.1-1.2,1.1
		c-0.4,0-1.1-0.2-1.2-1.2h-0.7c0,1.1,0.9,1.8,1.9,1.8c1.1,0,1.8-0.8,1.8-1.7c0-1.1-0.9-1.4-1.4-1.6c-0.9-0.3-1.5-0.5-1.5-1.2
		c0-0.6,0.5-1,1.1-1c0.8,0,1,0.6,1.1,1h0.7C104.6,1.4,103.7,1,103,1"/>
	<path class="st2" d="M107.2,1.1h-1.6V7h0.7V4.7h1c0.8,0,1.2-0.1,1.6-0.4c0.4-0.3,0.6-0.8,0.6-1.4c0-0.6-0.2-1.1-0.6-1.4
		C108.4,1.2,108,1.1,107.2,1.1 M106.3,4.1V1.7h0.9c0.5,0,0.8,0.1,1.1,0.2c0.3,0.2,0.5,0.5,0.5,1c0,0.4-0.2,0.8-0.4,1
		c-0.3,0.2-0.6,0.2-1.1,0.2H106.3z"/>
</g>
<rect x="111.8" y="3.8" width="2.2" height="0.6"/>
<g>
	<defs>
		<rect id="SVGID_5_" x="0" y="0" width="141" height="8.2"/>
	</defs>
	<clipPath id="SVGID_6_">
		<use xlink:href="#SVGID_5_"  style="overflow:visible;"/>
	</clipPath>
	<path class="st3" d="M118.5,1.1h-1.6V7h1.6c0.6,0,0.9,0,1.3-0.3c0.5-0.3,0.8-0.7,0.8-1.4c0-0.3-0.1-1.2-1.1-1.5
		c0.4-0.2,0.8-0.6,0.8-1.3c0-0.5-0.2-1-0.6-1.2C119.4,1.2,119,1.1,118.5,1.1 M117.6,3.7v-2h0.9c0.4,0,0.6,0.1,0.7,0.1
		c0.2,0.1,0.5,0.4,0.5,0.8c0,0.4-0.1,0.7-0.5,0.9c-0.2,0.1-0.4,0.1-0.7,0.1H117.6z M117.6,6.5V4.2h1c0.4,0,0.6,0,0.8,0.1
		c0.4,0.2,0.6,0.5,0.6,1c0,0.5-0.3,0.8-0.6,1c-0.2,0.1-0.5,0.1-0.7,0.1H117.6z"/>
	<path class="st3" d="M123,1.1h-1.5V7h0.7V1.7h0.9c0.5,0,0.9,0,1.2,0.2c0.4,0.2,0.6,0.7,0.6,1.1c0,0.4-0.1,0.8-0.4,1.1
		c-0.3,0.3-0.9,0.3-1.3,0.3h-0.2l1.7,2.6h0.7l-1.5-2.2c0.5-0.1,1-0.2,1.3-0.7c0.2-0.3,0.4-0.8,0.3-1.2c0-0.7-0.3-1.3-0.8-1.6
		C124.4,1.2,123.9,1.1,123,1.1"/>
</g>
<path d="M128.8,1.1h-0.6L125.7,7h0.7l0.7-1.7h2.8l0.7,1.7h0.7L128.8,1.1z M127.3,4.8l1.2-3l1.2,3H127.3z"/>
<g>
	<defs>
		<rect id="SVGID_7_" x="0" y="0" width="141" height="8.2"/>
	</defs>
	<clipPath id="SVGID_8_">
		<use xlink:href="#SVGID_7_"  style="overflow:visible;"/>
	</clipPath>
	<path class="st4" d="M133.5,1c-0.9,0-1.8,0.6-1.8,1.6c0,1.1,1,1.4,1.5,1.6c0.7,0.2,1.4,0.4,1.4,1.2c0,0.7-0.6,1.1-1.2,1.1
		c-0.4,0-1.1-0.2-1.2-1.2h-0.7c0,1.1,0.9,1.8,1.9,1.8c1.1,0,1.8-0.8,1.8-1.7c0-1.1-0.9-1.4-1.4-1.6c-0.9-0.3-1.5-0.5-1.5-1.2
		c0-0.6,0.5-1,1.1-1c0.8,0,1,0.6,1.1,1h0.7C135.1,1.4,134.2,1,133.5,1"/>
</g>
<rect x="136.2" y="1.1" width="0.7" height="5.9"/>
<polygon points="141,6.5 138.7,6.5 138.7,1.1 138,1.1 138,7 141,7 "/>
</svg>
