<?xml version="1.0" encoding="utf-8"?>
<!-- Generator: Adobe Illustrator 22.1.0, SVG Export Plug-In . SVG Version: 6.00 Build 0)  -->
<svg version="1.0" id="Layer_1" xmlns="http://www.w3.org/2000/svg" xmlns:xlink="http://www.w3.org/1999/xlink" x="0px" y="0px"
	 viewBox="157 244.5 100.1 305" enable-background="new 157 244.5 100.1 305" xml:space="preserve">
<g>
	<circle fill="#6AC1B7" cx="207" cy="294.5" r="50"/>
	<polygon fill="#FDD870" points="229.7,266.5 239,266.5 236.9,270.7 239,274.8 229.7,274.8 	"/>
	<path fill="#ECECEC" d="M231.7,316v-53.6h-49.5c-2.3,0-4.1,1.8-4.1,4.1v53.6L231.7,316z"/>
	<rect x="190.5" y="283" fill="#FDD870" width="37.1" height="16.5"/>
	<path d="M192.6,279.6l2,0.6l1.4-4.4h5.6l1.4,4.4l2-0.6l-1.2-3.8h1.2v-2.1h-1.9l-2.5-8.2H197l-2.5,8.2h-1.9v2.1h1.2L192.6,279.6z
		 M198.5,267.6h0.5l1.9,6.2h-4.3L198.5,267.6z"/>
	<path d="M216.3,275.8c0-1.2-0.5-2.3-1.4-3.1c0.9-0.8,1.4-1.9,1.4-3.1c0-2.3-1.8-4.1-4.1-4.1H208v14.4h4.1
		C214.4,279.9,216.3,278.1,216.3,275.8z M210.1,267.6h2.1c1.1,0,2.1,0.9,2.1,2.1s-0.9,2.1-2.1,2.1h-2.1V267.6z M210.1,273.8h2.1
		c1.1,0,2.1,0.9,2.1,2.1s-0.9,2.1-2.1,2.1h-2.1V273.8z"/>
	<path d="M225.6,279.9v-2.1c-2.8,0-5.2-2.3-5.2-5.2s2.3-5.2,5.2-5.2v-2.1c-4,0-7.2,3.2-7.2,7.2S221.6,279.9,225.6,279.9z"/>
	<path d="M189.5,300.6h39.2V282h-39.2V300.6z M191.5,284.1h35.1v14.4h-35.1V284.1z"/>
	<path d="M238,270.7l2.6-5.2h-7.9v-4.1h-50.5c-2.8,0-5.2,2.3-5.2,5.2v53.6c0,2.8,2.3,5.2,5.2,5.2h47.4h3.1v-2.1h-3.1
		c-1.7,0-3.1-1.4-3.1-3.1c0-1.7,1.4-3.1,3.1-3.1h2.1h1v-41.2h7.9L238,270.7z M225.6,323.2h-43.3c-1.7,0-3.1-1.4-3.1-3.1
		c0-1.7,1.4-3.1,3.1-3.1h43.3c-0.7,0.9-1.1,1.9-1.1,3.1S224.9,322.4,225.6,323.2z M229.7,315h-42.3v-4.1h-2.1v4.1h-3.1
		c-1.2,0-2.2,0.4-3.1,1v-49.5c0-1.7,1.4-3.1,3.1-3.1h3.1v45.4h2.1v-45.4h43.3V315H229.7z M237.3,273.8h-4.5v-6.2h4.5l-1.5,3.1
		L237.3,273.8z"/>
</g>
<g>
	<circle fill="#F0826A" cx="207" cy="397" r="50"/>
	<g>
		<path fill="#0483A1" d="M201.9,426h-21.1c-1.6,0-2.8-1.3-2.8-2.8v-21.1c0-1.6,1.3-2.8,2.8-2.8h21.1c1.5,0,2.8,1.3,2.8,2.8v21.1
			C204.7,424.7,203.4,426,201.9,426L201.9,426z M201.9,426"/>
		<path d="M201.9,427.2h-21.1c-2.2,0-4-1.8-4-4v-21.1c0-2.2,1.8-4,4-4h21.1c2.2,0,4,1.8,4,4v21.1
			C205.9,425.4,204.1,427.2,201.9,427.2L201.9,427.2z M180.8,400.5c-0.9,0-1.6,0.7-1.6,1.6v21.1c0,0.9,0.7,1.6,1.6,1.6h21.1
			c0.9,0,1.6-0.7,1.6-1.6v-21.1c0-0.9-0.7-1.6-1.6-1.6H180.8z M180.8,400.5"/>
		<path fill="#FFD36E" d="M204.7,381.4v10.5c0,1.6-1.3,2.8-2.8,2.8h-21.1c-1.6,0-2.8-1.3-2.8-2.8v-21.1c0-1.5,1.3-2.8,2.8-2.8h21.1
			c1.5,0,2.8,1.3,2.8,2.8v1"/>
		<path d="M201.9,395.9h-21.1c-2.2,0-4-1.8-4-4v-21.1c0-2.2,1.8-4,4-4h21.1c2.2,0,4,1.8,4,4v1c0,0.7-0.5,1.2-1.2,1.2
			c-0.7,0-1.2-0.5-1.2-1.2v-1c0-0.9-0.7-1.6-1.6-1.6h-21.1c-0.9,0-1.6,0.7-1.6,1.6v21.1c0,0.9,0.7,1.6,1.6,1.6h21.1
			c0.9,0,1.6-0.7,1.6-1.6v-10.5c0-0.7,0.5-1.2,1.2-1.2c0.7,0,1.2,0.5,1.2,1.2v10.5C205.9,394.1,204.1,395.9,201.9,395.9L201.9,395.9
			z M201.9,395.9"/>
		<path d="M204.7,377.6c-0.1,0-0.2,0-0.2,0c-0.1,0-0.1,0-0.2-0.1c-0.1,0-0.1-0.1-0.2-0.1c-0.1,0-0.1-0.1-0.2-0.1
			c-0.1-0.1-0.1-0.1-0.1-0.2c0-0.1-0.1-0.1-0.1-0.2c0-0.1-0.1-0.1-0.1-0.2c0-0.1,0-0.2,0-0.2c0-0.1,0-0.2,0-0.2c0-0.1,0-0.2,0.1-0.2
			c0-0.1,0.1-0.1,0.1-0.2c0-0.1,0.1-0.1,0.1-0.2c0.1-0.1,0.1-0.1,0.2-0.1c0.1,0,0.1-0.1,0.2-0.1c0.1,0,0.1-0.1,0.2-0.1
			c0.2,0,0.3,0,0.5,0c0.1,0,0.1,0,0.2,0.1c0.1,0,0.1,0.1,0.2,0.1c0.1,0,0.1,0.1,0.2,0.1c0.1,0.1,0.1,0.1,0.1,0.2
			c0,0.1,0.1,0.1,0.1,0.2c0,0.1,0.1,0.1,0.1,0.2c0,0.1,0,0.2,0,0.2c0,0.1,0,0.2,0,0.2c0,0.1,0,0.1-0.1,0.2c0,0.1-0.1,0.1-0.1,0.2
			c0,0.1-0.1,0.1-0.1,0.2c-0.1,0.1-0.1,0.1-0.2,0.1c-0.1,0-0.1,0.1-0.2,0.1c-0.1,0-0.1,0.1-0.2,0.1
			C204.8,377.6,204.8,377.6,204.7,377.6L204.7,377.6z M204.7,377.6"/>
		<path fill="#6EBD8C" d="M236,412.6v-10.5c0-1.6-1.3-2.8-2.8-2.8h-21.1c-1.5,0-2.8,1.3-2.8,2.8v21.1c0,1.5,1.3,2.8,2.8,2.8h21.1
			c1.6,0,2.8-1.3,2.8-2.8v-1"/>
		<path d="M233.2,427.2h-21.1c-2.2,0-4-1.8-4-4v-21.1c0-2.2,1.8-4,4-4h21.1c2.2,0,4,1.8,4,4v10.5c0,0.7-0.5,1.2-1.2,1.2
			c-0.7,0-1.2-0.5-1.2-1.2v-10.5c0-0.9-0.7-1.6-1.6-1.6h-21.1c-0.9,0-1.6,0.7-1.6,1.6v21.1c0,0.9,0.7,1.6,1.6,1.6h21.1
			c0.9,0,1.6-0.7,1.6-1.6v-1c0-0.7,0.5-1.2,1.2-1.2c0.7,0,1.2,0.5,1.2,1.2v1C237.2,425.4,235.4,427.2,233.2,427.2L233.2,427.2z
			 M233.2,427.2"/>
		<path d="M236,418.8c-0.3,0-0.6-0.1-0.8-0.3c-0.1-0.1-0.1-0.1-0.1-0.2c0-0.1-0.1-0.1-0.1-0.2c0-0.1-0.1-0.1-0.1-0.2
			c0-0.1,0-0.2,0-0.2c0-0.3,0.1-0.6,0.3-0.8c0.3-0.3,0.7-0.4,1.1-0.3c0.1,0,0.1,0,0.2,0.1c0.1,0,0.1,0.1,0.2,0.1
			c0.1,0,0.1,0.1,0.2,0.1c0.2,0.2,0.3,0.5,0.3,0.8c0,0.1,0,0.2,0,0.2c0,0.1,0,0.1-0.1,0.2c0,0.1-0.1,0.1-0.1,0.2
			c0,0.1-0.1,0.1-0.1,0.2c-0.1,0.1-0.1,0.1-0.2,0.1c-0.1,0-0.1,0.1-0.2,0.1c-0.1,0-0.1,0.1-0.2,0.1
			C236.2,418.8,236.1,418.8,236,418.8L236,418.8z M236,418.8"/>
		<path fill="#ED6B5D" d="M233.2,394.7h-21.1c-1.5,0-2.8-1.3-2.8-2.8v-21.1c0-1.6,1.3-2.8,2.8-2.8h21.1c1.6,0,2.8,1.3,2.8,2.8v21.1
			C236,393.4,234.7,394.7,233.2,394.7L233.2,394.7z M233.2,394.7"/>
		<path d="M233.2,395.9h-21.1c-2.2,0-4-1.8-4-4v-21.1c0-2.2,1.8-4,4-4h21.1c2.2,0,4,1.8,4,4v21.1
			C237.2,394.1,235.4,395.9,233.2,395.9L233.2,395.9z M212.1,369.2c-0.9,0-1.6,0.7-1.6,1.6v21.1c0,0.9,0.7,1.6,1.6,1.6h21.1
			c0.9,0,1.6-0.7,1.6-1.6v-21.1c0-0.9-0.7-1.6-1.6-1.6H212.1z M212.1,369.2"/>
		<path fill="#EAECF1" d="M198.7,379.1h-5.1V374h-4.5v5.1H184v4.5h5.1v5.1h4.5v-5.1h5.1V379.1z M198.7,379.1"/>
		<path d="M193.6,389.9h-4.5c-0.7,0-1.2-0.5-1.2-1.2v-3.9H184c-0.7,0-1.2-0.5-1.2-1.2v-4.5c0-0.7,0.5-1.2,1.2-1.2h3.9V374
			c0-0.7,0.5-1.2,1.2-1.2h4.5c0.7,0,1.2,0.5,1.2,1.2v3.9h3.9c0.7,0,1.2,0.5,1.2,1.2v4.5c0,0.7-0.5,1.2-1.2,1.2h-3.9v3.9
			C194.8,389.4,194.3,389.9,193.6,389.9L193.6,389.9z M190.3,387.5h2.2v-3.9c0-0.7,0.5-1.2,1.2-1.2h3.9v-2.2h-3.9
			c-0.7,0-1.2-0.5-1.2-1.2v-3.9h-2.2v3.9c0,0.7-0.5,1.2-1.2,1.2h-3.9v2.2h3.9c0.7,0,1.2,0.5,1.2,1.2V387.5z M190.3,387.5"/>
		<path fill="#EAECF1" d="M197.9,416.1l-3.6-3.6l3.6-3.6l-3.2-3.2l-3.6,3.6l-3.6-3.6l-3.2,3.2l3.6,3.6l-3.6,3.6l3.2,3.2l3.6-3.6
			l3.6,3.6L197.9,416.1z M197.9,416.1"/>
		<path d="M194.7,420.4c-0.3,0-0.6-0.1-0.8-0.3l-2.8-2.8l-2.8,2.8c-0.5,0.5-1.2,0.5-1.7,0l-3.2-3.2c-0.2-0.2-0.3-0.5-0.3-0.8
			c0-0.3,0.1-0.6,0.3-0.8l2.8-2.8l-2.8-2.8c-0.5-0.5-0.5-1.2,0-1.7l3.2-3.2c0.2-0.2,0.5-0.3,0.8-0.3s0.6,0.1,0.8,0.3l2.8,2.8
			l2.8-2.8c0.2-0.2,0.5-0.3,0.8-0.3s0.6,0.1,0.8,0.3l3.2,3.2c0.5,0.5,0.5,1.2,0,1.7l-2.8,2.8l2.8,2.8c0.5,0.5,0.5,1.2,0,1.7
			l-3.2,3.2C195.3,420.3,195,420.4,194.7,420.4L194.7,420.4z M191.1,414.5c0.3,0,0.6,0.1,0.8,0.3l2.8,2.8l1.5-1.5l-2.8-2.8
			c-0.5-0.5-0.5-1.2,0-1.7l2.8-2.8l-1.5-1.5l-2.8,2.8c-0.2,0.2-0.5,0.3-0.8,0.3s-0.6-0.1-0.8-0.3l-2.8-2.8l-1.5,1.5l2.8,2.8
			c0.2,0.2,0.3,0.5,0.3,0.8c0,0.3-0.1,0.6-0.3,0.8l-2.8,2.8l1.5,1.5l2.8-2.8C190.5,414.6,190.8,414.5,191.1,414.5L191.1,414.5z
			 M191.1,414.5"/>
		<rect x="215.3" y="408.4" fill="#EAECF1" width="14.7" height="4.5"/>
		<path d="M230,414.1h-14.7c-0.7,0-1.2-0.5-1.2-1.2v-4.5c0-0.7,0.5-1.2,1.2-1.2H230c0.7,0,1.2,0.5,1.2,1.2v4.5
			C231.2,413.6,230.7,414.1,230,414.1L230,414.1z M216.5,411.8h12.4v-2.2h-12.4V411.8z M216.5,411.8"/>
		<rect x="215.3" y="413" fill="#EAECF1" width="14.7" height="4.5"/>
		<path d="M230,418.7h-14.7c-0.7,0-1.2-0.5-1.2-1.2V413c0-0.7,0.5-1.2,1.2-1.2H230c0.7,0,1.2,0.5,1.2,1.2v4.5
			C231.2,418.1,230.7,418.7,230,418.7L230,418.7z M216.5,416.3h12.4v-2.2h-12.4V416.3z M216.5,416.3"/>
		<rect x="215.3" y="379.6" fill="#EAECF1" width="14.7" height="4.5"/>
		<path d="M230,385.3h-14.7c-0.7,0-1.2-0.5-1.2-1.2v-4.5c0-0.7,0.5-1.2,1.2-1.2H230c0.7,0,1.2,0.5,1.2,1.2v4.5
			C231.2,384.8,230.7,385.3,230,385.3L230,385.3z M216.5,383h12.4v-2.2h-12.4V383z M216.5,383"/>
	</g>
</g>
<g>
	<circle fill="#824192" cx="207" cy="499.5" r="50"/>
	<g>
		<rect x="183.9" y="487.9" fill="#685D78" width="43.9" height="4.1"/>
		<path fill="#FFD458" d="M218.2,515.5h-24.7c-1.7,0-3-1.4-3-3v-26.9c0-1.7,1.4-3,3-3h24.7c1.7,0,3,1.4,3,3v26.9
			C221.2,514.2,219.9,515.5,218.2,515.5L218.2,515.5z M218.2,515.5"/>
		<path fill="#FBBC54" d="M218.2,482.6h-4.1c1.7,0,3,1.4,3,3v26.9c0,1.7-1.4,3-3,3h4.1c1.7,0,3-1.4,3-3v-26.9
			C221.2,484,219.9,482.6,218.2,482.6L218.2,482.6z M218.2,482.6"/>
		<path fill="#5CABE0" d="M215.7,482.6H196v-2.2c0-5.5,4.4-9.9,9.9-9.9s9.9,4.4,9.9,9.9V482.6z M215.7,482.6"/>
		<path fill="#50A1D9" d="M205.8,470.5c-0.7,0-1.4,0.1-2.1,0.2c4.5,0.9,7.8,4.9,7.8,9.7v2.2h4.1v-2.2
			C215.7,475,211.3,470.5,205.8,470.5L205.8,470.5z M205.8,470.5"/>
		<path fill="#5CABE0" d="M196.2,515.5h19.4v6.6c0,1.7-1.4,3.1-3.1,3.1h-13.2c-1.7,0-3.1-1.4-3.1-3.1V515.5z M196.2,515.5"/>
		<path fill="#50A1D9" d="M211.4,515.5v6.6c0,1.7-1.4,3.1-3.1,3.1h4.1c1.7,0,3.1-1.4,3.1-3.1v-6.6H211.4z M211.4,515.5"/>
		<path fill="#E8355F" d="M207.9,464.4c0,1.1-0.9,2.1-2.1,2.1c-1.1,0-2.1-0.9-2.1-2.1c0-1.1,0.9-2.1,2.1-2.1
			C207,462.3,207.9,463.2,207.9,464.4L207.9,464.4z M207.9,464.4"/>
		<path fill="#FFD458" d="M187.2,525c0,3-2.5,5.5-5.5,5.5c-3,0-5.5-2.5-5.5-5.5c0-3,2.5-5.5,5.5-5.5
			C184.7,519.5,187.2,521.9,187.2,525L187.2,525z M187.2,525"/>
		<path fill="#FBBC54" d="M181.7,519.5c-0.7,0-1.4,0.1-2.1,0.4c2,0.8,3.4,2.8,3.4,5.1c0,2.3-1.4,4.3-3.4,5.1
			c0.6,0.3,1.3,0.4,2.1,0.4c3,0,5.5-2.5,5.5-5.5C187.2,521.9,184.7,519.5,181.7,519.5L181.7,519.5z M181.7,519.5"/>
		<rect x="179.7" y="493.5" fill="#685D78" width="4.1" height="10.8"/>
		<path fill="#E8355F" d="M185,520.8h-6.6c-1.2,0-2.2-1-2.2-2.2v-12.1c0-1.2,1-2.2,2.2-2.2h6.6c1.2,0,2.2,1,2.2,2.2v12.1
			C187.2,519.8,186.2,520.8,185,520.8L185,520.8z M185,520.8"/>
		<path fill="#E72A53" d="M185,504.3h-4.1c1.2,0,2.2,1,2.2,2.2v12.1c0,1.2-1,2.2-2.2,2.2h4.1c1.2,0,2.2-1,2.2-2.2v-12.1
			C187.2,505.3,186.2,504.3,185,504.3L185,504.3z M185,504.3"/>
		<path fill="#FFD458" d="M187.2,489.9c0,3-2.5,5.5-5.5,5.5c-3,0-5.5-2.5-5.5-5.5s2.5-5.5,5.5-5.5
			C184.7,484.5,187.2,486.9,187.2,489.9L187.2,489.9z M187.2,489.9"/>
		<path fill="#FBBC54" d="M181.7,484.5c-0.7,0-1.4,0.1-2.1,0.4c2,0.8,3.4,2.8,3.4,5.1s-1.4,4.3-3.4,5.1c0.6,0.3,1.3,0.4,2.1,0.4
			c3,0,5.5-2.5,5.5-5.5S184.7,484.5,181.7,484.5L181.7,484.5z M181.7,484.5"/>
		<path fill="#FFD458" d="M235.5,525c0,3-2.5,5.5-5.5,5.5c-3,0-5.5-2.5-5.5-5.5c0-3,2.5-5.5,5.5-5.5
			C233,519.5,235.5,521.9,235.5,525L235.5,525z M235.5,525"/>
		<path fill="#FBBC54" d="M230,519.5c-0.7,0-1.4,0.1-2.1,0.4c2,0.8,3.4,2.8,3.4,5.1c0,2.3-1.4,4.3-3.4,5.1c0.6,0.3,1.3,0.4,2.1,0.4
			c3,0,5.5-2.5,5.5-5.5C235.5,521.9,233,519.5,230,519.5L230,519.5z M230,519.5"/>
		<rect x="227.9" y="493.5" fill="#685D78" width="4.1" height="10.8"/>
		<path fill="#E8355F" d="M233.3,520.8h-6.6c-1.2,0-2.2-1-2.2-2.2v-12.1c0-1.2,1-2.2,2.2-2.2h6.6c1.2,0,2.2,1,2.2,2.2v12.1
			C235.5,519.8,234.5,520.8,233.3,520.8L233.3,520.8z M233.3,520.8"/>
		<path fill="#E72A53" d="M233.3,504.3h-4.1c1.2,0,2.2,1,2.2,2.2v12.1c0,1.2-1,2.2-2.2,2.2h4.1c1.2,0,2.2-1,2.2-2.2v-12.1
			C235.5,505.3,234.5,504.3,233.3,504.3L233.3,504.3z M233.3,504.3"/>
		<path fill="#FFD458" d="M235.5,489.9c0,3-2.5,5.5-5.5,5.5c-3,0-5.5-2.5-5.5-5.5s2.5-5.5,5.5-5.5
			C233,484.5,235.5,486.9,235.5,489.9L235.5,489.9z M235.5,489.9"/>
		<path fill="#FBBC54" d="M230,484.5c-0.7,0-1.4,0.1-2.1,0.4c2,0.8,3.4,2.8,3.4,5.1s-1.4,4.3-3.4,5.1c0.6,0.3,1.3,0.4,2.1,0.4
			c3,0,5.5-2.5,5.5-5.5S233,484.5,230,484.5L230,484.5z M230,484.5"/>
		<path fill="#685D78" d="M198.7,506.8c-0.6,0-1.1-0.5-1.1-1.1v-14.3c0-0.6,0.5-1.1,1.1-1.1H213c0.6,0,1.1,0.5,1.1,1.1v14.3
			c0,0.6-0.5,1.1-1.1,1.1H198.7z M198.7,506.8"/>
		<path fill="#584C68" d="M213,490.4h-4.1c0.6,0,1.1,0.5,1.1,1.1v14.3c0,0.6-0.5,1.1-1.1,1.1h4.1c0.6,0,1.1-0.5,1.1-1.1v-14.3
			C214.1,490.8,213.6,490.4,213,490.4L213,490.4z M213,490.4"/>
		<path fill="#E8355F" d="M201.7,502.4v-7.6c0-0.2,0.1-0.3,0.3-0.3h7.6c0.2,0,0.3,0.1,0.3,0.3v7.6c0,0.2-0.1,0.3-0.3,0.3h-7.6
			C201.9,502.7,201.7,502.6,201.7,502.4L201.7,502.4z M201.7,502.4"/>
		<path d="M233.3,503.3h-0.2v-7.6c2-1.1,3.4-3.3,3.4-5.7c0-3.6-2.9-6.5-6.5-6.5c-2.5,0-4.6,1.4-5.7,3.4h-2v-1.2c0-2.2-1.8-4-4-4
			h-1.4v-1.2c0-2-0.5-3.9-1.6-5.6c-0.3-0.5-0.9-0.6-1.4-0.3c-0.5,0.3-0.6,0.9-0.3,1.4c0.8,1.4,1.3,3,1.3,4.6v1.2H197v-1.2
			c0-4.9,4-8.8,8.8-8.8c1.8,0,3.6,0.6,5.1,1.6c0.5,0.3,1.1,0.2,1.4-0.3c0.3-0.5,0.2-1.1-0.3-1.4c-1.6-1.1-3.3-1.8-5.2-1.9v-2.3
			c1.2-0.4,2.1-1.6,2.1-2.9c0-1.7-1.4-3.1-3.1-3.1c-1.7,0-3.1,1.4-3.1,3.1c0,1.3,0.9,2.5,2.1,2.9v2.3c-5.5,0.5-9.9,5.2-9.9,10.9v1.2
			h-1.4c-2.2,0-4,1.8-4,4v1.2h-2c-1.1-2-3.3-3.4-5.7-3.4c-3.6,0-6.5,2.9-6.5,6.5c0,2.5,1.4,4.6,3.4,5.7v7.6h-0.2
			c-1.8,0-3.2,1.4-3.2,3.2v12.1c0,1,0.5,2,1.2,2.5c-0.8,1.1-1.2,2.4-1.2,3.8c0,3.6,2.9,6.5,6.5,6.5c3.6,0,6.5-2.9,6.5-6.5
			c0-1.4-0.4-2.7-1.2-3.8c0.8-0.6,1.2-1.5,1.2-2.5v-12.1c0-1.8-1.4-3.2-3.2-3.2h-0.2v-7.6c1.1-0.6,2-1.5,2.6-2.6h2v3.4
			c0,0.6,0.5,1,1,1c0.6,0,1-0.5,1-1v-10.8c0-1.1,0.9-2,2-2h24.7c1.1,0,2,0.9,2,2v26.9c0,1.1-0.9,2-2,2h-24.7c-1.1,0-2-0.9-2-2v-11.7
			c0-0.6-0.5-1-1-1c-0.6,0-1,0.5-1,1v11.7c0,2.2,1.8,4,4,4h1.6v5.6c0,2.3,1.8,4.1,4.1,4.1h13.2c2.3,0,4.1-1.8,4.1-4.1v-5.6h1.6
			c2.2,0,4-1.8,4-4V493h2c0.6,1.1,1.5,2,2.6,2.6v7.6h-0.2c-1.8,0-3.2,1.4-3.2,3.2v12.1c0,1,0.5,2,1.2,2.5c-0.8,1.1-1.2,2.4-1.2,3.8
			c0,3.6,2.9,6.5,6.5,6.5c3.6,0,6.5-2.9,6.5-6.5c0-1.4-0.4-2.7-1.2-3.8c0.8-0.6,1.2-1.5,1.2-2.5v-0.3c0-0.6-0.5-1-1-1
			c-0.6,0-1,0.5-1,1v0.3c0,0.6-0.5,1.2-1.2,1.2h-6.6c-0.6,0-1.2-0.5-1.2-1.2v-12.1c0-0.6,0.5-1.2,1.2-1.2h6.6c0.6,0,1.2,0.5,1.2,1.2
			v7.4c0,0.6,0.5,1,1,1c0.6,0,1-0.5,1-1v-7.4C236.5,504.8,235.1,503.3,233.3,503.3L233.3,503.3z M205.8,463.3c0.6,0,1,0.5,1,1
			c0,0.6-0.5,1-1,1c-0.6,0-1-0.5-1-1C204.8,463.8,205.3,463.3,205.8,463.3L205.8,463.3z M181.7,529.4c-2.5,0-4.5-2-4.5-4.5
			c0-1.2,0.5-2.3,1.3-3.2h6.3c0.8,0.8,1.3,2,1.3,3.2C186.2,527.4,184.2,529.4,181.7,529.4L181.7,529.4z M186.2,506.5v12.1
			c0,0.6-0.5,1.2-1.2,1.2h-6.6c-0.6,0-1.2-0.5-1.2-1.2v-12.1c0-0.6,0.5-1.2,1.2-1.2h6.6C185.6,505.4,186.2,505.9,186.2,506.5
			L186.2,506.5z M182.7,503.3h-2.1v-6.9c0.3,0.1,0.7,0.1,1,0.1c0.3,0,0.7,0,1-0.1V503.3z M181.7,494.4c-2.5,0-4.5-2-4.5-4.5
			s2-4.5,4.5-4.5s4.5,2,4.5,4.5S184.2,494.4,181.7,494.4L181.7,494.4z M188.1,491c0.1-0.3,0.1-0.7,0.1-1s0-0.7-0.1-1h1.3v2.1H188.1z
			 M214.5,522.2c0,1.1-0.9,2.1-2.1,2.1h-13.2c-1.1,0-2.1-0.9-2.1-2.1v-5.6h17.3V522.2z M230,529.4c-2.5,0-4.5-2-4.5-4.5
			c0-1.2,0.5-2.3,1.3-3.2h6.3c0.8,0.8,1.3,2,1.3,3.2C234.4,527.4,232.4,529.4,230,529.4L230,529.4z M222.2,491v-2.1h1.3
			c-0.1,0.3-0.1,0.7-0.1,1s0,0.7,0.1,1H222.2z M225.5,489.9c0-2.5,2-4.5,4.5-4.5s4.5,2,4.5,4.5s-2,4.5-4.5,4.5
			S225.5,492.4,225.5,489.9L225.5,489.9z M229,503.3v-6.9c0.3,0.1,0.7,0.1,1,0.1c0.3,0,0.7,0,1-0.1v6.9H229z M229,503.3"/>
		<path d="M202.1,503.7h7.6c0.7,0,1.3-0.6,1.3-1.3v-7.6c0-0.7-0.6-1.3-1.3-1.3h-7.6c-0.7,0-1.3,0.6-1.3,1.3v7.6
			C200.7,503.1,201.3,503.7,202.1,503.7L202.1,503.7z M202.8,495.5h6.2v6.2h-6.2V495.5z M202.8,495.5"/>
		<path d="M194.5,502.5c-0.6,0-1,0.5-1,1c0,0.6,0.5,1,1,1h2.1v1.1c0,1.2,1,2.1,2.1,2.1h0.9v2.1c0,0.6,0.5,1,1,1c0.6,0,1-0.5,1-1
			v-2.1h3.2v2.1c0,0.6,0.5,1,1,1c0.6,0,1-0.5,1-1v-2.1h3.2v2.1c0,0.6,0.5,1,1,1c0.6,0,1-0.5,1-1v-2.1h0.9c1.2,0,2.1-1,2.1-2.1v-1.1
			h2.1c0.6,0,1-0.5,1-1c0-0.6-0.5-1-1-1h-2.1v-3.2h2.1c0.6,0,1-0.5,1-1c0-0.6-0.5-1-1-1h-2.1v-3.2h2.1c0.6,0,1-0.5,1-1
			c0-0.6-0.5-1-1-1h-2.1v-0.7c0-1.2-1-2.1-2.1-2.1h-0.9v-2.1c0-0.6-0.5-1-1-1c-0.6,0-1,0.5-1,1v2.1h-3.2v-2.1c0-0.6-0.5-1-1-1
			c-0.6,0-1,0.5-1,1v2.1h-3.2v-2.1c0-0.6-0.5-1-1-1c-0.6,0-1,0.5-1,1v2.1h-0.9c-1.2,0-2.1,1-2.1,2.1v0.7h-2.1c-0.6,0-1,0.5-1,1
			c0,0.6,0.5,1,1,1h2.1v3.2h-2.1c-0.6,0-1,0.5-1,1c0,0.6,0.5,1,1,1h2.1v3.2H194.5z M198.6,491.5
			C198.6,491.4,198.7,491.4,198.6,491.5l14.3-0.1c0,0,0.1,0,0.1,0.1v14.3c0,0,0,0.1-0.1,0.1h-14.3c0,0-0.1,0-0.1-0.1V491.5z
			 M198.6,491.5"/>
	</g>
</g>
</svg>
