<svg version="1.2" baseProfile="tiny" xmlns="http://www.w3.org/2000/svg" viewBox="0 0 3027.3 702.1">
  <path fill="#5FA7C3" d="M222.4 21.9c-46.3 0-89.3 13.7-109 26.6 0 0-16.3 10.7-2.5 24.5l161.7 161.7c4.7 4.7 7.1 10.9 7.1 17.2 0 6.2-2.4 12.5-7.1 17.2l-161.2 161s-13.8 13.8 2.6 24.4c19.6 12.7 62.4 26.3 108.5 26.3C349.3 480.8 452 378 452 251.3S349.2 21.9 222.4 21.9z"/>
  <path fill="#599BB5" d="M279.4 249.2c.1.9.2 1.7.2 2.6 0 6.2-2.4 12.5-7.1 17.2L111.4 430.1s-13.8 13.8 2.6 24.4c2.9 1.9 6.3 3.8 10.2 5.6-1.3-.9-10.7-7.6-6.1-15.2 4.9-8.1 150.6-151.3 150.6-151.3s6.2-4.6 10.9-15.8c4.6-11-.1-28.7-.2-28.6zM201.2 238.2L71.6 105.6s-.6-.6-1.5-1.4c-1.6-1.4-8-6.6-12.7-6.6-4.9 0-10.3 5.8-12.2 8-.9 1.1-1.8 2.3-2.7 3.5-.7 1-2.6 3.5-7.2 9.6-.3.4-.5.7-.7 1.1-6.5 8.8-3.5 17-1.6 20.5 1.5 2.4 3.4 4.9 6.2 7.8l88.2 90.3s5.6 5.8 6 13.6c-.4 7.8-6 13.6-6 13.6l-88.2 90.3c-2.8 2.9-4.8 5.5-6.2 7.8-1.9 3.5-4.9 11.6 1.6 20.5.2.4.5.7.7 1.1 4.6 6.1 6.5 8.6 7.2 9.6.9 1.2 1.8 2.4 2.7 3.5 1.8 2.2 7.3 8 12.2 8 4.7 0 11.1-5.3 12.7-6.6.9-.8 1.5-1.4 1.5-1.4l129.6-132.6c4.6-4.7 6.1-9.4 6-13.6.1-4.5-1.4-9.2-6-14z"/>
  <g>
    <g fill="#5FA7C3">
      <path d="M2153.3 98.5H2357V131h-171.3v106h125v32.4h-125v106H2357v32.4h-203.8V98.5zM2581 110.6c18.8 8.1 35.2 19.1 49.2 33.1s25.1 30.4 33.2 49.1c8.1 18.8 12.1 38.8 12.1 60.1 0 21.3-4 41.5-12.1 60.3-8.1 18.9-19.1 35.3-33.2 49.3-14 14-30.4 25-49.2 33.1-18.8 8.1-38.9 12.1-60.2 12.1H2422V98.5h98.8c21.3 0 41.4 4.1 60.2 12.1zm-12.9 255.1c15-6.5 28-15.2 38.9-26.3 11-11.1 19.7-24 26.2-38.8 6.5-14.8 9.7-30.7 9.7-47.6 0-16.7-3.2-32.5-9.7-47.4-6.5-14.9-15.2-27.9-26.2-38.8-11-10.9-23.9-19.6-38.9-26.1s-30.9-9.7-47.6-9.7h-66.2v244.4h66.2c16.8 0 32.6-3.3 47.6-9.7zM2951.8 98.5h32.4v187.8c0 16.7-3.2 32.4-9.5 47.2-6.4 14.7-15.1 27.6-26.2 38.7-11.1 11.1-24.1 19.8-38.8 26.2-14.7 6.3-30.5 9.5-47.2 9.5-15.9 0-30.8-2.8-44.9-8.4-14-5.6-26.4-13.3-37.3-23.1-10.8-9.8-19.7-21.4-26.7-34.8-6.9-13.4-11.3-27.8-13-43h-.4V98.5h32.4v188.8c0 12.1 2.4 23.5 7.1 34.3 4.8 10.8 11.2 20.2 19.3 28.1 8.1 7.9 17.6 14.2 28.6 18.8 11 4.6 22.5 6.9 34.6 6.9 12.1 0 23.6-2.3 34.4-6.9 10.8-4.6 20.3-10.9 28.6-18.8 8.2-7.9 14.7-17.2 19.5-27.9 4.8-10.7 7.1-22 7.1-34.1V98.5z"/>
    </g>
    <path fill="#599BB5" d="M2014.5 61.2h9.1v384h-9.1z"/>
    <path d="M942.2 98.5v309.3h-32.4V184.6L804.6 407.8h-23.8L677 185v222.8h-32.4V98.5h27.7L793 356.8 914.1 98.5h28.1zM1576.8 98.5h34.2l-124.6 309.3h-24.2L1335.8 98.5h34.2l104.3 254.4 102.5-254.4zM1681.2 98.5H1885V131h-171.3v106h125v32.4h-125v106H1885v32.4h-203.8V98.5zM1161.8 98.5c-85.4 0-154.7 69.2-154.7 154.7s69.2 154.7 154.7 154.7 154.7-69.2 154.7-154.7-69.3-154.7-154.7-154.7zm0 276.9c-67.5 0-122.2-54.7-122.2-122.2S1094.3 131 1161.8 131 1284 185.7 1284 253.2s-54.7 122.2-122.2 122.2z"/>
  </g>
  <g>
    <path d="M1101.8 655.2v-82.7h10.5v82.7h-10.5zM1171.7 592v63.2h-10.5v-82.8h8.2l51.3 64.5v-64.4h10.5v82.7h-8.9l-50.6-63.2zM1314 655.8c-5.8 0-11.1-1.2-15.9-3.6s-8.9-5.5-12.3-9.4c-3.4-3.9-6.1-8.4-7.9-13.5s-2.8-10.2-2.8-15.5c0-5.5 1-10.8 3-15.9s4.7-9.5 8.2-13.4c3.5-3.9 7.6-7 12.4-9.3 4.8-2.3 10-3.4 15.6-3.4 5.8 0 11.1 1.2 15.9 3.7s8.8 5.7 12.2 9.6c3.4 4 6.1 8.4 7.9 13.5 1.9 5 2.8 10.1 2.8 15.3 0 5.5-1 10.8-3 15.9s-4.7 9.5-8.2 13.3c-3.5 3.9-7.6 6.9-12.4 9.2s-9.9 3.5-15.5 3.5zm-28.4-42c0 4.2.7 8.3 2 12.2 1.4 3.9 3.3 7.4 5.8 10.4s5.5 5.4 9 7.2c3.5 1.8 7.4 2.7 11.7 2.7 4.4 0 8.4-1 11.9-2.9s6.5-4.4 8.9-7.5c2.4-3.1 4.3-6.5 5.6-10.4 1.3-3.9 1.9-7.8 1.9-11.8 0-4.2-.7-8.3-2-12.2-1.4-3.9-3.3-7.4-5.8-10.4s-5.5-5.4-9-7.2c-3.5-1.8-7.3-2.7-11.5-2.7-4.4 0-8.4.9-11.9 2.8s-6.5 4.3-8.9 7.3c-2.4 3-4.3 6.5-5.6 10.4-1.4 4.1-2.1 8.1-2.1 12.1zM1396 572.4l27.4 69.6 27.3-69.6h11.1l-33.8 82.8h-9.1l-33.9-82.8h11zM1486.9 655.2l34.1-82.8h8.6l33.9 82.8h-11.2l-9.8-24.2h-34.7l-9.7 24.2h-11.2zm38.4-70.6l-15.4 38.2h30.3l-14.9-38.2zM1628.4 669.9c1 .5 2.5 1.1 4.4 1.5 1.9.5 3.9.7 5.9.7 2.1 0 3.7-.3 4.9-.9 1.2-.6 1.8-1.7 1.8-3.1 0-1.6-.6-2.6-1.6-3.2-1.1-.6-2.5-.9-4.3-.9-1.6 0-3.3.2-5.1.5-1.8.3-3.2.7-4.2 1l5.1-9.7c-5.4-.3-10.3-1.8-14.8-4.3-4.5-2.6-8.4-5.8-11.6-9.8-3.2-4-5.7-8.4-7.5-13.4-1.8-5-2.7-10-2.7-15s.9-9.9 2.6-14.9c1.8-4.9 4.3-9.4 7.7-13.3 3.4-3.9 7.5-7.1 12.4-9.5 4.9-2.4 10.5-3.6 16.7-3.6 7.4 0 13.7 1.7 19 5 5.3 3.3 9.2 7.7 11.8 13.1l-8.3 5.4c-1.2-2.6-2.7-4.9-4.5-6.6-1.8-1.8-3.7-3.2-5.7-4.3-2.1-1.1-4.2-1.9-6.4-2.3-2.2-.5-4.3-.7-6.4-.7-4.6 0-8.6 1-12.2 2.9-3.5 1.9-6.5 4.4-8.9 7.5-2.4 3.1-4.2 6.5-5.4 10.4-1.2 3.9-1.8 7.7-1.8 11.6 0 4.4.7 8.5 2.2 12.4 1.4 3.9 3.4 7.4 6 10.4s5.6 5.4 9.1 7.2c3.5 1.8 7.3 2.7 11.4 2.7 2.2 0 4.4-.3 6.7-.8 2.3-.6 4.5-1.4 6.6-2.6 2.1-1.2 4.1-2.7 5.9-4.5 1.8-1.8 3.3-4 4.5-6.6l8.7 4.8c-1.2 2.9-2.9 5.4-5.1 7.7-2.1 2.2-4.5 4.2-7.2 5.8-2.7 1.6-5.5 2.9-8.5 3.8-3 .9-6 1.5-9 1.8l-3.2 5c.6-.2 1.3-.4 2.1-.5.8-.1 1.5-.1 2.1-.1 2.7 0 4.9.6 6.6 1.9 1.7 1.2 2.6 3.1 2.6 5.6 0 2.7-1.1 4.9-3.3 6.4-2.2 1.5-5.4 2.3-9.6 2.3-2.3 0-4.5-.2-6.5-.6-2-.4-3.8-.9-5.3-1.6l2.3-4.6zM1704 655.2l34.1-82.8h8.6l33.9 82.8h-11.2l-9.8-24.2h-34.7l-9.7 24.2H1704zm45.6-94.8c-1.8 0-3.3-.3-4.6-.8-1.3-.5-2.5-1.1-3.6-1.7-1.1-.6-2.2-1.2-3.3-1.7-1.1-.5-2.3-.8-3.5-.8-1.3 0-2.3.3-3.1.8-.7.6-1.3 1.2-1.7 1.8-.4.7-.7 1.3-.8 1.9-.1.6-.2 1-.2 1h-6.1c0-.5.2-1.4.5-2.7.4-1.3 1-2.7 1.8-4.1.9-1.4 2-2.6 3.5-3.7s3.4-1.6 5.7-1.6c1.6 0 3.1.2 4.3.8 1.2.5 2.4 1.1 3.5 1.8s2.3 1.2 3.4 1.8c1.1.5 2.4.8 3.8.8 1.5 0 2.6-.3 3.5-.8.9-.5 1.5-1.2 2-1.9s.8-1.3.9-1.9c.1-.6.2-1 .2-1.1h6.1c0 .5-.2 1.3-.5 2.6s-1 2.6-1.9 4c-.9 1.4-2.2 2.7-3.8 3.7-1.6 1.3-3.6 1.8-6.1 1.8zm-7.3 24.2l-15.4 38.2h30.3l-14.9-38.2zM1854.6 655.8c-5.8 0-11.1-1.2-15.9-3.6-4.8-2.4-8.9-5.5-12.3-9.4-3.4-3.9-6.1-8.4-7.9-13.5-1.9-5.1-2.8-10.2-2.8-15.5 0-5.5 1-10.8 3-15.9s4.7-9.5 8.2-13.4c3.5-3.9 7.6-7 12.4-9.3 4.8-2.3 10-3.4 15.6-3.4 5.8 0 11.1 1.2 15.9 3.7 4.7 2.4 8.8 5.7 12.2 9.6 3.4 4 6.1 8.4 7.9 13.5 1.9 5 2.8 10.1 2.8 15.3 0 5.5-1 10.8-3 15.9s-4.7 9.5-8.2 13.3c-3.5 3.9-7.6 6.9-12.4 9.2s-9.9 3.5-15.5 3.5zm-28.3-42c0 4.2.7 8.3 2 12.2 1.4 3.9 3.3 7.4 5.8 10.4s5.5 5.4 9 7.2c3.5 1.8 7.4 2.7 11.7 2.7 4.4 0 8.4-1 11.9-2.9s6.5-4.4 8.9-7.5c2.4-3.1 4.3-6.5 5.6-10.4 1.3-3.9 1.9-7.8 1.9-11.8 0-4.2-.7-8.3-2-12.2-1.4-3.9-3.3-7.4-5.8-10.4s-5.5-5.4-9-7.2c-3.5-1.8-7.3-2.7-11.5-2.7-4.4 0-8.4.9-11.9 2.8s-6.5 4.3-8.9 7.3c-2.4 3-4.3 6.5-5.6 10.4-1.5 4.1-2.1 8.1-2.1 12.1zM2052.1 645.9v9.3h-56.2v-82.8h55.2v9.3h-44.7v26.8h38.8v8.7h-38.8v28.6h45.7zM2209.4 641.1v14.1h-57.5v-82.8h56.4v14.1H2168v19.9h34.9v13.1H2168v21.6h41.4zM2251.5 655.2v-82.8h30.1c6.8 0 12.7 1.1 17.8 3.3 5.1 2.2 9.3 5.1 12.8 8.9 3.4 3.7 6 8.1 7.7 13.1 1.7 5 2.6 10.4 2.6 16 0 6.3-1 12-2.9 17.1-1.9 5.1-4.6 9.4-8.2 13.1-3.6 3.6-7.9 6.4-12.9 8.4s-10.6 3-16.8 3h-30.2zm54.7-41.5c0-4-.5-7.6-1.6-11-1.1-3.3-2.7-6.2-4.8-8.6-2.1-2.4-4.7-4.3-7.7-5.6-3.1-1.3-6.5-2-10.4-2h-14v54.6h14c4 0 7.5-.7 10.5-2.1 3.1-1.4 5.6-3.3 7.7-5.8 2.1-2.4 3.6-5.3 4.7-8.7 1.1-3.3 1.6-6.9 1.6-10.8zM2399.2 641.6c3.8 0 7-.8 9.6-2.3 2.6-1.6 4.7-3.6 6.3-6.1 1.6-2.5 2.7-5.3 3.4-8.6.7-3.2 1-6.5 1-10v-42.2h16v42.2c0 5.7-.7 11-2 16-1.4 5-3.5 9.3-6.4 13.1-2.9 3.7-6.7 6.7-11.2 8.9-4.6 2.2-10.1 3.3-16.4 3.3-6.6 0-12.2-1.1-16.8-3.4-4.6-2.3-8.4-5.3-11.3-9.1-2.9-3.8-5-8.1-6.2-13.1-1.3-5-1.9-10.1-1.9-15.5v-42.2h16.1v42.2c0 3.5.3 6.9 1 10.1s1.8 6.1 3.4 8.6c1.6 2.5 3.7 4.5 6.2 6 2.4 1.3 5.5 2.1 9.2 2.1zM2475.8 613.2c0-5.1.9-10.1 2.7-15 1.8-4.9 4.4-9.4 7.7-13.2s7.5-7 12.4-9.4c4.9-2.4 10.5-3.6 16.8-3.6 7.4 0 13.8 1.7 19.2 5 5.4 3.3 9.4 7.7 11.9 13.1l-12.4 8.5c-.9-2.3-2.1-4.3-3.6-5.9-1.5-1.6-3.1-2.9-4.8-3.8-1.8-.9-3.6-1.6-5.4-2-1.9-.4-3.7-.6-5.4-.6-3.8 0-7.1.8-10 2.4-2.9 1.6-5.3 3.8-7.2 6.4-1.9 2.6-3.3 5.6-4.3 8.9-1 3.3-1.5 6.6-1.5 9.8 0 3.7.6 7.2 1.7 10.6 1.1 3.4 2.7 6.3 4.8 8.9 2.1 2.6 4.5 4.6 7.4 6.2 2.9 1.6 6 2.3 9.4 2.3 1.8 0 3.6-.2 5.5-.7 1.9-.5 3.7-1.2 5.4-2.2 1.8-1 3.4-2.3 4.8-3.9 1.5-1.6 2.7-3.5 3.6-5.8l13.2 7.6c-1.2 3.1-3.1 5.9-5.4 8.2-2.4 2.4-5.1 4.4-8.1 6-3 1.6-6.2 2.9-9.6 3.7-3.3.9-6.6 1.3-9.9 1.3-5.8 0-11-1.2-15.8-3.7-4.8-2.5-8.9-5.7-12.4-9.7-3.5-4-6.1-8.5-8-13.6-1.7-5.3-2.7-10.5-2.7-15.8zM2578.5 655.2l32.6-82.8h13.1l32.5 82.8h-17l-7.6-20.6h-29l-7.6 20.6h-17zm39.1-65.4l-11.9 33.5h23.4l-11.5-33.5zM2719.8 670c.9.6 2.4 1.1 4.3 1.5 1.9.5 4 .7 6.1.7 2 0 3.6-.3 4.8-.9 1.2-.6 1.8-1.6 1.8-3s-.6-2.4-1.7-3c-1.1-.6-2.6-.9-4.4-.9-1.6 0-3.4.2-5.2.5-1.8.3-3.2.6-4.1.9l5.1-10.1c-5.4-.4-10.3-1.9-14.8-4.4-4.5-2.6-8.4-5.8-11.5-9.8-3.2-4-5.7-8.4-7.5-13.3-1.8-4.9-2.7-9.9-2.7-15s.9-10.1 2.7-15c1.8-4.9 4.4-9.4 7.8-13.2s7.5-7 12.4-9.4c4.9-2.4 10.5-3.6 16.8-3.6 7.4 0 13.8 1.7 19.2 5 5.4 3.3 9.4 7.7 11.9 13.1l-12.4 8.5c-.9-2.3-2.1-4.3-3.6-5.9-1.5-1.6-3.1-2.9-4.8-3.8s-3.6-1.6-5.4-2c-1.9-.4-3.7-.6-5.4-.6-3.8 0-7.2.8-10 2.4-2.9 1.6-5.3 3.8-7.2 6.4-1.9 2.6-3.3 5.6-4.3 8.9-1 3.3-1.4 6.6-1.4 9.8 0 3.7.6 7.2 1.7 10.6 1.1 3.4 2.7 6.3 4.8 8.9 2.1 2.6 4.5 4.6 7.4 6.2 2.9 1.6 6 2.3 9.4 2.3 1.8 0 3.6-.2 5.5-.7 1.9-.5 3.7-1.2 5.4-2.2 1.7-1 3.4-2.3 4.8-3.9 1.5-1.6 2.7-3.5 3.6-5.8l13.2 7.6c-1.2 2.8-2.8 5.3-4.8 7.5s-4.3 4.1-6.9 5.7c-2.6 1.6-5.3 2.9-8.3 3.9-3 1-5.9 1.6-8.9 1.9l-2.8 4.4c.5-.2 1.1-.3 1.8-.3.7-.1 1.3-.1 1.9-.1 2.7 0 5.1.6 7 1.9 1.9 1.3 2.9 3.4 2.9 6.2 0 3-1.2 5.4-3.7 7.3-2.4 1.9-6.2 2.9-11.3 2.9-2.6 0-4.9-.2-7-.7-2.1-.5-3.9-1-5.5-1.6l3.3-5.8zM2793.7 655.2l32.6-82.8h13.1l32.5 82.8h-17l-7.6-20.6h-29l-7.6 20.6h-17zm46.5-91.7c-1.8 0-3.3-.3-4.7-.8-1.3-.5-2.5-1.1-3.7-1.8-1.1-.7-2.3-1.3-3.4-1.8s-2.3-.8-3.6-.8c-1.3 0-2.3.3-3.1.8-.7.6-1.3 1.2-1.7 1.9-.4.7-.6 1.3-.7 1.9-.1.6-.1.9-.1 1h-8.6c0-.7.2-1.9.7-3.6.5-1.7 1.2-3.3 2.3-5 1.1-1.7 2.4-3.2 4.2-4.4 1.8-1.3 3.9-1.9 6.5-1.9 1.8 0 3.3.3 4.6.9 1.3.6 2.5 1.2 3.6 1.9s2.3 1.3 3.4 1.9c1.1.6 2.4.9 3.8.9s2.5-.3 3.3-.8c.8-.5 1.4-1.2 1.9-1.9.4-.7.7-1.4.8-2 .1-.6.2-1 .2-1.2h8.6c0 .5-.2 1.6-.7 3.3-.5 1.6-1.3 3.3-2.4 5-1.1 1.7-2.6 3.2-4.4 4.6-1.8 1.2-4.1 1.9-6.8 1.9zm-7.3 26.3l-11.9 33.5h23.4l-11.5-33.5zM2944.3 655.8c-5.8 0-11.2-1.2-16-3.6-4.8-2.4-9-5.5-12.4-9.4-3.5-3.9-6.1-8.4-8-13.5-1.9-5.1-2.8-10.2-2.8-15.5 0-5.5 1-10.8 3-15.9s4.7-9.5 8.3-13.4c3.5-3.9 7.7-7 12.5-9.3 4.8-2.3 10.1-3.4 15.7-3.4 5.8 0 11.2 1.2 16 3.7s8.9 5.7 12.4 9.6c3.4 4 6.1 8.5 7.9 13.5 1.9 5.1 2.8 10.2 2.8 15.4 0 5.5-1 10.8-3 15.8s-4.7 9.4-8.2 13.3c-3.5 3.9-7.7 6.9-12.5 9.2s-10 3.5-15.7 3.5zm-22.9-42c0 3.6.5 7 1.6 10.4 1 3.3 2.6 6.3 4.5 8.9 2 2.6 4.4 4.6 7.3 6.2 2.9 1.5 6.1 2.3 9.8 2.3 3.7 0 7-.8 9.8-2.4 2.8-1.6 5.2-3.7 7.2-6.4 1.9-2.6 3.4-5.6 4.4-8.9 1-3.3 1.5-6.7 1.5-10.1 0-3.6-.6-7-1.6-10.4-1.1-3.3-2.6-6.3-4.6-8.9-2-2.6-4.4-4.6-7.2-6.1s-6.1-2.3-9.6-2.3c-3.7 0-7 .8-9.8 2.4-2.8 1.6-5.2 3.7-7.2 6.3-2 2.6-3.5 5.6-4.5 8.9-1.1 3.3-1.6 6.7-1.6 10.1z"/>
  </g>
</svg>
